<?xml version="1.0" standalone="no"?>
<!DOCTYPE svg PUBLIC "-//W3C//DTD SVG 1.1//EN" "http://www.w3.org/Graphics/SVG/1.1/DTD/svg11.dtd" >
<svg>
<metadata>
Created by FontForge 20090914 at Tue Feb 12 05:33:45 2013
 By www-data
Converted by ALLTYPE
</metadata>
<defs>
<font id="Neuvarese-BoldItalic" horiz-adv-x="278" >
  <font-face 
    font-family="Neuvarese-BoldItalic"
    font-weight="5"
    font-style="italic"
    font-stretch="normal"
    units-per-em="1000"
    panose-1="0 0 0 0 0 0 0 0 0 0"
    ascent="800"
    descent="-200"
    x-height="474.999"
    cap-height="640.003"
    bbox="-74 -220.002 1040 884.998"
    underline-thickness="50"
    underline-position="-55"
    unicode-range="U+0020-U+F002"
  />
<missing-glyph 
 />
    <glyph glyph-name=".notdef" 
 />
    <glyph glyph-name="space" unicode=" " 
 />
    <glyph glyph-name="space" unicode="&#xa0;" 
 />
    <glyph glyph-name="exclam" unicode="!" horiz-adv-x="332" 
d="M96 58c4 21.333 15.167 39.833 33.5 55.5s38.5 23.5 60.5 23.5c20 0 36.333 -6.33301 49 -19s18.667 -28.667 18 -48v-3v-3c0 -1.33301 -0.166992 -2.5 -0.5 -3.5s-0.5 -2.16699 -0.5 -3.5c-3.33301 -22 -14.333 -40.667 -33 -56s-39 -23 -61 -23
c-20 0 -36.167 6.5 -48.5 19.5s-18.5 28.833 -18.5 47.5v6c0 2 0.333008 4 1 6v1zM170 189l41 445h136l-119 -445h-58v0z" />
    <glyph glyph-name="quotedbl" unicode="&#x22;" horiz-adv-x="425" 
d="M84 437l4 100.001c0 3.33301 0.166992 7 0.5 11s0.833008 7.66699 1.5 11c0.666992 2.66699 1.16699 5.16699 1.5 7.5s0.833008 4.83301 1.5 7.5c4.66699 20 12 34.833 22 44.5s23 14.5 39 14.5c12.667 0 22.167 -3 28.5 -9s9.5 -15 9.5 -27
c0 -3.33301 -0.166992 -7 -0.5 -11s-1.16602 -8 -2.49902 -12c-0.666992 -2.66699 -1.33398 -5.16699 -2.00098 -7.5s-1.33398 -4.83301 -2.00098 -7.5c-0.666992 -3.33301 -1.66699 -7 -3 -11l-4 -12l-38 -99c-0.666992 -2 -1.66699 -4.33301 -3 -7
s-3 -5.33398 -5 -8.00098c-3.33301 -4 -7.16602 -7.83301 -11.499 -11.5s-9.5 -5.5 -15.5 -5.5c-5.33301 0 -9.5 1.66699 -12.5 5s-5.16699 7 -6.5 11c-0.666992 2.66699 -1.16699 5 -1.5 7s-0.5 3.66699 -0.5 5v1.5v1.5v1zM260 437.001l4 100.001
c0 3.33301 0.166992 7 0.5 11s0.833008 7.66699 1.5 11c0.666992 2.66699 1.16699 5.16699 1.5 7.5s0.833008 4.83301 1.5 7.5c4.66699 20 12 34.833 22 44.5s23 14.5 39 14.5c12.667 0 22.167 -3 28.5 -9s9.5 -15 9.5 -27c0 -3.33301 -0.166992 -7 -0.5 -11
s-1.16602 -8 -2.49902 -12c-0.666992 -2.66699 -1.33398 -5.16699 -2.00098 -7.5s-1.33398 -4.83301 -2.00098 -7.5c-0.666992 -3.33301 -1.66699 -7 -3 -11l-4 -12l-38 -99c-0.666992 -2 -1.66699 -4.33301 -3 -7s-3 -5.33398 -5 -8.00098
c-3.33301 -4 -7.16602 -7.83301 -11.499 -11.5s-9.5 -5.5 -15.5 -5.5c-5.33301 0 -9.5 1.66699 -12.5 5s-5.16699 7 -6.5 11c-0.666992 2.66699 -1.16699 5 -1.5 7s-0.5 3.66699 -0.5 5v1.5v1.5v1z" />
    <glyph glyph-name="numbersign" unicode="#" horiz-adv-x="556" 
d="M500 257v-88h-100l-23 -169h-94l23 169h-97l-23 -169h-94l23 169h-88v88h100l17 122h-88v88h100l23 167h94l-23 -167h97l23 167h94l-23 -167h88v-88h-100l-17 -122h88v0zM335 379h-97l-17 -122h97l17 122v0z" />
    <glyph glyph-name="dollar" unicode="$" horiz-adv-x="545" 
d="M215 -143l19.9941 120.998c-30.667 0.666992 -60.667 4.16699 -90 10.5s-57.666 14.5 -84.999 24.5c2 16 3.83301 32.167 5.5 48.5s3.5 32.5 5.5 48.5c1.33301 16 2.83301 32.167 4.5 48.5s3.5 32.5 5.5 48.5l19 1c10.667 -48 27 -85.833 49 -113.5
s58.667 -41.5 110 -41.5c3.33301 0 6.83301 0.166992 10.5 0.5s7.16699 0.5 10.5 0.5c26 3.33301 50.5 13.166 73.5 29.499s37.5 40.166 43.5 71.499c0.666992 2.66699 1 5 1 7v6c0 22.667 -10 40.5 -30 53.5s-43.667 25.167 -71 36.5l-20 8l-20 8
c-36 14.667 -68.667 33.334 -98 56.001s-44 57 -44 103c0 6 0.5 12.167 1.5 18.5s1.83301 12.833 2.5 19.5c9.33301 58.667 36.5 102.834 81.5 132.501s95.833 46.834 152.5 51.501l21 120h63l-21 -119c8 -0.666992 15.833 -1.16699 23.5 -1.5s15.5 -0.833008 23.5 -1.5
c18.667 -2 37.167 -4.83301 55.5 -8.5s35.833 -8.16699 52.5 -13.5c-2 -15.333 -3.83301 -30.666 -5.5 -45.999s-3.16699 -30.666 -4.5 -45.999s-2.83301 -30.833 -4.5 -46.5s-3.5 -31.167 -5.5 -46.5l-19 1c-3.33301 44 -19.5 78 -48.5 102s-64.833 36 -107.5 36
c-6.66699 0 -13.5 -0.5 -20.5 -1.5s-14.167 -2.5 -21.5 -4.5c-19.333 -5.33301 -37.166 -14.5 -53.499 -27.5s-26.166 -31.167 -29.499 -54.5c-0.666992 -2 -1 -4 -1 -6v-6c0 -20 9.33301 -36.5 28 -49.5s41.334 -25.5 68.001 -37.5l25 -10.5
c8.66699 -3.66699 17 -7.5 25 -11.5c37.333 -16 71.166 -36.333 101.499 -61s45.5 -60 45.5 -106c0 -4.66699 -0.166992 -9.83398 -0.5 -15.501s-1.16602 -11.5 -2.49902 -17.5c-9.33301 -52 -34.666 -94 -75.999 -126s-85.666 -53.667 -132.999 -65l-16.5 -4
c-5.66699 -1.33301 -11.167 -2.33301 -16.5 -3l-21 -121h-62v0z" />
    <glyph glyph-name="percent" unicode="%" horiz-adv-x="760" 
d="M679 626l-549 -648l-37 30l548 648l38 -30v0zM693 139c-9.33301 -44 -32.1689 -80.5 -68.502 -109.5s-75.5 -45.833 -117.5 -50.5c-3.33301 0 -6.66602 -0.166992 -9.99902 -0.5s-6.66602 -0.5 -9.99902 -0.5c-40 0 -73.333 12 -100 36s-40 55 -40 93
c0 5.33301 0.5 10.833 1.5 16.5s1.83301 11.167 2.5 16.5c10.667 50 36.5 90.5 77.5 121.5s85.5 46.5 133.5 46.5c42 0 75 -12.5 99 -37.5s36 -56.5 36 -94.5c0 -6 -0.333008 -12.167 -1 -18.5s-1.66699 -12.833 -3 -19.5v1zM465.997 184
c-2.66699 -15.333 -4.83496 -29 -6.50195 -41s-2.5 -23 -2.5 -33c0.666992 -27.333 5.83398 -47.666 15.501 -60.999s22.834 -20 39.501 -20s31.667 6 45 18s22.666 30.333 27.999 55c3.33301 14.667 5.66602 28 6.99902 40s2 23 2 33
c-0.666992 27.333 -5.66699 47.666 -15 60.999s-22.666 20 -39.999 20c-16.667 0 -31.667 -6 -45 -18s-22.666 -30.333 -27.999 -55v1zM78.9961 488c10.667 49.333 36.333 89.5 77 120.5s85 46.5 133 46.5c42 0 75 -12.5 99 -37.5s36 -56.5 36 -94.5
c0 -6 -0.333008 -12.167 -1 -18.5s-1.66699 -12.833 -3 -19.5c-9.33301 -44 -32.5 -80.667 -69.5 -110s-76.5 -46 -118.5 -50c-2.66699 -0.666992 -5.5 -1 -8.5 -1h-8.5c-40 0 -73.333 12.167 -100 36.5s-40 55.5 -40 93.5c0 5.33301 0.5 10.833 1.5 16.5
s1.83301 11.167 2.5 16.5v1zM193.995 531c-2.66699 -15.333 -4.83203 -29.001 -6.49902 -41.001s-2.5 -23 -2.5 -33c0 -27.333 5 -47.666 15 -60.999s23.333 -20 40 -20s31.667 6 45 18s22.666 30.333 27.999 55c3.33301 14 5.5 27 6.5 39s1.5 22.667 1.5 32
c0 28.667 -4.83301 49.667 -14.5 63s-23.167 20 -40.5 20c-16.667 0 -31.5 -6 -44.5 -18s-22.167 -30.333 -27.5 -55v1z" />
    <glyph glyph-name="ampersand" unicode="&#x26;" horiz-adv-x="708" 
d="M527 290l103.995 -0.00195312c36.667 -0.666992 62.5 2 77.5 8s26.833 19 35.5 39l28 1l-3.5 -8.5c-1 -2.33301 -1.83301 -4.5 -2.5 -6.5c-14 -31.333 -29.333 -57.333 -46 -78s-41 -31.334 -73 -32.001c-24 -88.667 -66.833 -150 -128.5 -184s-133.834 -51 -216.501 -51
c-66.667 0 -123.167 14.5 -169.5 43.5s-69.166 71.167 -68.499 126.5c0 5.33301 0.333008 11 1 17l2 18c8 45.333 29.333 81.166 64 107.499s72 44.166 112 53.499c6 2 12.333 3.5 19 4.5s13 1.83301 19 2.5v3c-30.667 6.66699 -56.667 18.334 -78 35.001
s-32 41.334 -32 74.001c0 4.66699 0.333008 9.33398 1 14.001l2 14c9.33301 50.667 35 88.334 77 113.001s87.333 40.334 136 47.001c10.667 1.33301 21.334 2.33301 32.001 3s21 1 31 1c31.333 0 61.333 -2.33301 90 -7s55.667 -12.667 81 -24
c-0.666992 -2.66699 -1.33398 -5.66699 -2.00098 -9s-1.33398 -7 -2.00098 -11l-4.5 -33c-1.66699 -12 -3.16699 -24 -4.5 -36c-1.33301 -8.66699 -2.33301 -17.167 -3 -25.5l-2 -24.5l-25 1c-4 30.667 -17.5 53.834 -40.5 69.501s-50.167 23.5 -81.5 23.5
c-32 0 -61.667 -7.83301 -89 -23.5s-44 -41.167 -50 -76.5c-0.666992 -4.66699 -1.16699 -9 -1.5 -13s-0.5 -7.66699 -0.5 -11c0 -34.667 15.167 -57.334 45.5 -68.001s68.166 -16 113.499 -16l-7 -39c-1.33301 -0.666992 -2.66602 -1 -3.99902 -1
s-2.66602 -0.333008 -3.99902 -1c-13.333 -0.666992 -27.666 -1.66699 -42.999 -3s-31 -3.33301 -47 -6c-35.333 -6 -68.166 -18 -98.499 -36s-49.166 -48 -56.499 -90l-2 -15.5c-0.666992 -5 -1 -9.83301 -1 -14.5c0.666992 -35.333 12.834 -62.833 36.501 -82.5
s54.5 -29.5 92.5 -29.5c52 0 95 12.833 129 38.5s55.667 66.167 65 121.5l-69 1c-10.667 -0.666992 -19.5 -3 -26.5 -7s-13.833 -10 -20.5 -18l-8.5 -13c-3 -4.66699 -6.16699 -10 -9.5 -16l-25 1c14.667 50.667 35.834 84.667 63.501 102s57.167 26 88.5 26v1z" />
    <glyph glyph-name="quotesingle" unicode="'" horiz-adv-x="222" 
d="M71 437l4 100.001c0 3.33301 0.166992 7 0.5 11s0.833008 7.66699 1.5 11c0.666992 2.66699 1.16699 5.16699 1.5 7.5s0.833008 4.83301 1.5 7.5c4.66699 20 12 34.833 22 44.5s23 14.5 39 14.5c12.667 0 22.167 -3 28.5 -9s9.5 -15 9.5 -27
c0 -3.33301 -0.166992 -7 -0.5 -11s-1.16602 -8 -2.49902 -12c-0.666992 -2.66699 -1.33398 -5.16699 -2.00098 -7.5s-1.33398 -4.83301 -2.00098 -7.5c-0.666992 -3.33301 -1.66699 -7 -3 -11l-4 -12l-38 -99c-0.666992 -2 -1.66699 -4.33301 -3 -7
s-3 -5.33398 -5 -8.00098c-3.33301 -4 -7.16602 -7.83301 -11.499 -11.5s-9.5 -5.5 -15.5 -5.5c-5.33301 0 -9.5 1.66699 -12.5 5s-5.16699 7 -6.5 11c-0.666992 2.66699 -1.16699 5 -1.5 7s-0.5 3.66699 -0.5 5v1.5v1.5v1z" />
    <glyph glyph-name="parenleft" unicode="(" horiz-adv-x="333" 
d="M253 -123l-16.002 -21c-51.333 30.667 -88.666 67.5 -111.999 110.5s-35 95.5 -35 157.5c0 20 1.16699 40.833 3.5 62.5s5.5 44.5 9.5 68.5c18 100 47.833 181.5 89.5 244.5s103.834 114.833 186.501 155.5l9 -20c-35.333 -20 -62.5 -52.5 -81.5 -97.5
s-36.167 -107.167 -51.5 -186.5c-3.33301 -14.667 -6.33301 -30 -9 -46s-5.66699 -32.667 -9 -50c-9.33301 -54 -16.833 -101.667 -22.5 -143s-8.5 -77.333 -8.5 -108c0 -31.333 3.66699 -57.333 11 -78s19.333 -37 36 -49v0z" />
    <glyph glyph-name="parenright" unicode=")" horiz-adv-x="333" 
d="M171 635l14.999 20.999c52 -31.333 89.667 -68.666 113 -111.999s35 -95.666 35 -156.999c-0.666992 -19.333 -2 -40 -4 -62s-5.33301 -45.333 -10 -70c-17.333 -100 -46.833 -181.333 -88.5 -244s-104.167 -114.334 -187.5 -155.001l-8 21
c34.667 19.333 61.334 50.833 80.001 94.5s35.667 104.167 51 181.5c3.33301 16 6.5 32.333 9.5 49l9.5 53c9.33301 54.667 17 102.667 23 144s9 77.333 9 108c-0.666992 31.333 -4.5 57.5 -11.5 78.5s-18.833 37.167 -35.5 48.5v1z" />
    <glyph glyph-name="asterisk" unicode="*" horiz-adv-x="444" 
d="M106 373l-36 59l105 47l-105 47l37 63l91 -68l-14 113h76l-13 -113l91 68l36 -63l-105 -47l105 -47l-37 -59l-92 64l15 -113h-76l13 113l-91 -64v0z" />
    <glyph glyph-name="plus" unicode="+" horiz-adv-x="600" 
d="M310 309l42 197h112l-42 -197h197l-24 -112h-197l-42 -197h-112l42 197h-197l24 112h197v0z" />
    <glyph glyph-name="comma" unicode="," 
d="M107 109l125.001 -0.000976562c-9.33301 -40 -21.5 -74 -36.5 -102s-30.5 -51.333 -46.5 -70c-23.333 -27.333 -45 -46.333 -65 -57s-31 -16 -33 -16c-2.66699 0 -4.83398 0.5 -6.50098 1.5s-2.5 3.16699 -2.5 6.5v0.5v0.5v0.5v0.5c0.666992 2 4 7.33301 10 16
s12.333 20 19 34c4.66699 8.66699 9.16699 18.667 13.5 30s7.83301 23.333 10.5 36c2 8.66699 3.66699 18.167 5 28.5l4 32.5l2 29.5c0.666992 9.66699 1 18.834 1 27.501v1z" />
    <glyph glyph-name="hyphen" unicode="-" horiz-adv-x="333" 
d="M77 163l-19.002 0.000976562l38 131h173c24.667 -0.666992 44.334 1.66602 59.001 6.99902s26.334 18.333 35.001 39l19 1l-38 -129h-208c-3.33301 -0.666992 -7 -1.5 -11 -2.5s-8 -2.83301 -12 -5.5c-6.66699 -3.33301 -13.167 -8.5 -19.5 -15.5
s-11.833 -15.833 -16.5 -26.5v1z" />
    <glyph glyph-name="period" unicode="." 
d="M68 49c0 18.667 7 35 21 49s30.667 21 50 21s36 -7 50 -21s21 -30.667 21 -50s-7 -35.833 -21 -49.5s-30.667 -20.5 -50 -20.5s-36 6.83301 -50 20.5s-21 30.167 -21 49.5v1z" />
    <glyph glyph-name="slash" unicode="/" horiz-adv-x="445" 
d="M-54 -22l432 712l88 -34l-431 -712l-89 34v0z" />
    <glyph glyph-name="zero" unicode="0" horiz-adv-x="545" 
d="M48 317c0.666992 4 1.5 8.49707 2.5 13.4971s2.16699 9.83301 3.5 14.5c17.333 77.333 50 148.333 98 213s111.667 97 191 97c68.667 0 117 -24.167 145 -72.5s42 -105.166 42 -170.499c-0.666992 -16 -1.66699 -32 -3 -48s-3.33301 -32 -6 -48
c-0.666992 -4.66699 -1.5 -9.5 -2.5 -14.5s-2.16699 -9.83301 -3.5 -14.5c-16.667 -77.333 -49.167 -148.166 -97.5 -212.499s-112.166 -96.5 -191.499 -96.5c-68.667 0 -116.834 24.333 -144.501 73s-41.5 105.334 -41.5 170.001c0 15.333 0.666992 31 2 47
s3.33301 32 6 48v1zM187 316.997c-4.66699 -27.333 -8.33301 -52.832 -11 -76.499s-4 -45.167 -4 -64.5c0 -36.667 5.33301 -65.334 16 -86.001s28 -31 52 -31c37.333 0 66.833 23.5 88.5 70.5s39.167 109.167 52.5 186.5c5.33301 27.333 9.33301 53 12 77s4 46 4 66
c0 36 -5.33301 64 -16 84s-28 30 -52 30c-36.667 0 -66 -23.5 -88 -70.5s-40 -109.167 -54 -186.5v1z" />
    <glyph glyph-name="one" unicode="1" horiz-adv-x="390" 
d="M106 74l78.001 443.001c0.666992 3.33301 1.16699 6.83301 1.5 10.5s0.5 6.83398 0.5 9.50098c0 13.333 -3.83301 22.666 -11.5 27.999s-20.834 8 -39.501 8l-15 1l3 19l65 13c14 2 27.167 4.66699 39.5 8s23.833 6.66602 34.5 9.99902c24 8 43.167 15.167 57.5 21.5
s22.833 9.5 25.5 9.5c2 0 3.33301 -1 4 -3s1 -4.66699 1 -8c0 -2 -1.66699 -8.33301 -5 -19l-11 -36c-0.666992 -2 -1.16699 -3.83301 -1.5 -5.5s-0.833008 -3.5 -1.5 -5.5l-6 -23c-2 -7.33301 -3.66699 -14 -5 -20l-80 -466c-0.666992 -4.66699 -1.16699 -8.66699 -1.5 -12
s-0.5 -6.66602 -0.5 -9.99902c0 -10.667 2.83301 -18.5 8.5 -23.5s15.167 -8.83301 28.5 -11.5l-4 -18c-14 1.33301 -30.5 2.66602 -49.5 3.99902s-39.5 2 -61.5 2s-43.167 -0.666992 -63.5 -2l-60.5 -4l4 19c23.333 2.66699 39.5 8 48.5 16s14.833 22.667 17.5 44v1z" />
    <glyph glyph-name="two" unicode="2" horiz-adv-x="545" 
d="M42 0l16 89.9961c16.667 8.66699 34.167 18.334 52.5 29.001s36.833 22.334 55.5 35.001c54 36 104.5 78.333 151.5 127s75.833 101.334 86.5 158.001c1.33301 5.33301 2.16602 10.666 2.49902 15.999s0.166016 10.333 -0.500977 15c0 29.333 -8.16699 52.833 -24.5 70.5
s-42.166 26.5 -77.499 26.5c-30.667 0 -58.334 -10.333 -83.001 -31s-44.667 -46.334 -60 -77.001l-19 1c8.66699 27.333 16.167 54.5 22.5 81.5s11.833 52.833 16.5 77.5c17.333 8.66699 35.333 15.834 54 21.501s37.334 9.83398 56.001 12.501
c6.66699 0.666992 13.167 1.16699 19.5 1.5s12.5 0.5 18.5 0.5c57.333 0 109.333 -12.167 156 -36.5s70 -66.166 70 -125.499c0 -4.66699 -0.166992 -10 -0.5 -16s-1.16602 -12 -2.49902 -18c-10.667 -60 -39.667 -112.333 -87 -157s-98 -83 -152 -115l-66.5 -36l-61.5 -31
l-1 -1c12.667 -0.666992 24.667 -0.666992 36 0s22 1 32 1c8.66699 0.666992 17.167 1.16699 25.5 1.5s16.5 0.833008 24.5 1.5h13.5h13.5l164 1l-34 -124h-417v0z" />
    <glyph glyph-name="three" unicode="3" horiz-adv-x="545" 
d="M38 -19l-18.0049 61h48c14.667 -0.666992 31.834 0.5 51.501 3.5s39.834 7.5 60.501 13.5c36 10.667 69.5 26.834 100.5 48.501s49.5 49.5 55.5 83.5c1.33301 5.33301 2.16602 10.166 2.49902 14.499s0.5 8.5 0.5 12.5c-0.666992 29.333 -13.667 49.5 -39 60.5
s-68 16.5 -128 16.5l-34 1l13 64c56.667 -0.666992 105.834 9.5 147.501 30.5s66.5 53.833 74.5 98.5c0.666992 3.33301 1 6.16602 1 8.49902v7.5c0 22.667 -8.16699 38.667 -24.5 48s-35.833 14 -58.5 14c-32 0 -61.5 -9.5 -88.5 -28.5s-50.167 -42.833 -69.5 -71.5l-29 1
c5.33301 12.667 10 25.334 14 38.001l12 39c4 12.667 7.66699 25.5 11 38.5l10 38.5c14 6 28.333 11 43 15s29.334 7.33301 44.001 10c14 2.66699 28.333 4.66699 43 6s29 2 43 2c8.66699 0 17.334 -0.166992 26.001 -0.5s17.667 -1.16602 27 -2.49902
c36.667 -4.66699 70.334 -15.667 101.001 -33s45.667 -45.666 45 -84.999v-12c0 -4 -0.666992 -8.33301 -2 -13c-6 -36.667 -23.667 -66.834 -53 -90.501s-61 -41.5 -95 -53.5c-4.66699 -2 -9.33398 -3.66699 -14.001 -5l-14 -4l-1 -1
c2.66699 -0.666992 5.33398 -1.16699 8.00098 -1.5s5.33398 -0.5 8.00098 -0.5c34 -4.66699 65.5 -16.334 94.5 -35.001s43.5 -47 43.5 -85c0 -3.33301 -0.166992 -7 -0.5 -11s-0.833008 -8 -1.5 -12c-0.666992 -3.33301 -1.33398 -6.5 -2.00098 -9.5
s-1.33398 -6.16699 -2.00098 -9.5c-15.333 -53.333 -55.833 -102.166 -121.5 -146.499s-153.167 -66.5 -262.5 -66.5c-12.667 0 -25.167 0.166992 -37.5 0.5s-23.166 1.16602 -32.499 2.49902v0z" />
    <glyph glyph-name="four" unicode="4" horiz-adv-x="545" 
d="M271 0l25 141h-249l14 83l22.5 28.5l23.5 29.5c46.667 59.333 96 118.5 148 177.5l160 173.5l100 1l-71 -409h78l-15 -82h-78l-25 -143h-133v0zM309 223l44 247.999h-2l-111 -125c-35.333 -41.333 -68.333 -82.666 -99 -123.999l168 1v0z" />
    <glyph glyph-name="five" unicode="5" horiz-adv-x="545" 
d="M42 -22l-9 63.998c9.33301 0.666992 19 1.83398 29 3.50098s20 3.83398 30 6.50098c52 12.667 100.667 33.834 146 63.501s72.666 70.5 81.999 122.5c0.666992 4 1.16699 8 1.5 12s0.5 8 0.5 12c0 31.333 -11.833 53.833 -35.5 67.5s-56.5 20.5 -98.5 20.5
c-11.333 0 -25.166 -1.5 -41.499 -4.5s-33.166 -7.5 -50.499 -13.5c-2 -0.666992 -4.16699 -1.5 -6.5 -2.5s-4.5 -1.83301 -6.5 -2.5l81 307h365l-33 -118h-280l-33 -114c8 1.33301 15.667 3 23 5s14.666 3.66699 21.999 5c13.333 2.66699 26.666 4.66699 39.999 6
s27.666 2 42.999 2c47.333 0 87.833 -10.667 121.5 -32s50.5 -54 50.5 -98c0 -4.66699 -0.166992 -9.33398 -0.5 -14.001s-1.16602 -9.66699 -2.49902 -15c-14 -82 -64.667 -148.5 -152 -199.5s-182.666 -78.833 -285.999 -83.5v0z" />
    <glyph glyph-name="six" unicode="6" horiz-adv-x="545" 
d="M394 656l26.001 -27.998c-10 -10.667 -20.5 -21.167 -31.5 -31.5s-21.833 -21.166 -32.5 -32.499c-26.667 -26.667 -52.334 -55.334 -77.001 -86.001s-45.334 -63.334 -62.001 -98.001l2 1c18 16 36.833 28 56.5 36s41.834 12 66.501 12c50.667 0 90 -16.167 118 -48.5
s41.667 -71.5 41 -117.5c0 -6.66699 -0.166992 -13.167 -0.5 -19.5s-1.16602 -12.833 -2.49902 -19.5c-12.667 -72 -44.5 -131 -95.5 -177s-112.5 -69 -184.5 -69c-62.667 0 -109.5 19.167 -140.5 57.5s-46.5 85.5 -46.5 141.5c0 6 0.166992 12 0.5 18s0.833008 12 1.5 18
c0.666992 2.66699 1.16699 5.66699 1.5 9s0.833008 6.33301 1.5 9c17.333 97.333 60.666 180.666 129.999 249.999s145.333 127.333 228 174v1zM173.001 215.002c-2 -11.333 -3.5 -21.832 -4.5 -31.499s-1.5 -18.834 -1.5 -27.501
c0.666992 -30.667 7.16699 -54.5 19.5 -71.5s30.833 -25.5 55.5 -25.5c4 0 8 0.333008 12 1s8.33301 1.66699 13 3c18 5.33301 35 17.833 51 37.5s27.333 48.5 34 86.5c1.33301 9.33301 2.5 18.5 3.5 27.5s1.5 17.833 1.5 26.5c0 28 -6.33301 50.333 -19 67s-34 25 -64 25
c-24.667 0 -46.167 -10.5 -64.5 -31.5s-30.5 -50.167 -36.5 -87.5v1z" />
    <glyph glyph-name="seven" unicode="7" horiz-adv-x="485" 
d="M221 0h-156c9.33301 54 35.5 121.333 78.5 202s123.833 181 242.5 301l-223 1c-19.333 -0.666992 -35 -4.5 -47 -11.5s-23.333 -21.5 -34 -43.5c-2.66699 -4.66699 -5.16699 -9.66699 -7.5 -15s-4.5 -11 -6.5 -17l-30 1c8.66699 24 16.5 47.833 23.5 71.5l21.5 71.5
c3.33301 12 6.5 24 9.5 36s6.16699 24 9.5 36l420 1c-102.667 -161.333 -175.167 -288.833 -217.5 -382.5s-68.5 -168.167 -78.5 -223.5l-5 -28v0z" />
    <glyph glyph-name="eight" unicode="8" horiz-adv-x="545" 
d="M71 168c7.33301 43.333 25.499 79.002 54.499 107.002s62.833 48.333 101.5 61c-20.667 16 -38.5 33.5 -53.5 52.5s-22.5 42.833 -22.5 71.5c0 4.66699 0.333008 9.33398 1 14.001l2 14c8 47.333 30.333 84.666 67 111.999s76 44.333 118 51
c7.33301 1.33301 14.833 2.33301 22.5 3s15.167 1 22.5 1c47.333 0 89.666 -9.83301 126.999 -29.5s56 -53.167 56 -100.5c0 -4.66699 -0.166992 -9.5 -0.5 -14.5s-1.16602 -10.167 -2.49902 -15.5c-6 -36.667 -19.5 -65.5 -40.5 -86.5s-48.5 -39.167 -82.5 -54.5
c11.333 -8.66699 21.5 -17 30.5 -25s17.167 -16 24.5 -24c14 -15.333 24.5 -30.833 31.5 -46.5s10.5 -32.5 10.5 -50.5c0 -4.66699 -0.166992 -9.33398 -0.5 -14.001s-1.16602 -9.66699 -2.49902 -15c-11.333 -66.667 -43.333 -116.834 -96 -150.501
s-110.667 -50.5 -174 -50.5c-64 0 -112.833 14.667 -146.5 44s-50.5 66.333 -50.5 111v8.5c0 3 0.333008 5.83301 1 8.5c0 2.66699 0.166992 5.5 0.5 8.5s0.833008 5.83301 1.5 8.5v1zM330.999 263.002l-31.999 22.999l-30 -16c-20 -12 -36 -27.333 -48 -46s-20 -38 -24 -58
c-0.666992 -3.33301 -1.16699 -6.83301 -1.5 -10.5s-0.5 -7.16699 -0.5 -10.5c0 -24.667 7.5 -45.167 22.5 -61.5s35.833 -24.5 62.5 -24.5s50.667 8.33301 72 25s34.333 38.334 39 65.001c0 1.33301 0.166992 2.83301 0.5 4.5s0.5 3.5 0.5 5.5
c0.666992 1.33301 1 2.83301 1 4.5v4.5c0 8 -1.16699 15.833 -3.5 23.5s-5.83301 15.5 -10.5 23.5s-10.834 15.833 -18.501 23.5s-17.5 15.5 -29.5 23.5v1zM296 509.001c0 -1.33301 -0.169922 -2.49902 -0.50293 -3.49902s-0.5 -1.83301 -0.5 -2.5v-3v-3
c0 -16 5.33301 -30.5 16 -43.5s22.334 -24.167 35.001 -33.5c4 -3.33301 8 -6.5 12 -9.5s8 -5.83301 12 -8.5c16.667 11.333 31.334 25.166 44.001 41.499s20.667 34.833 24 55.5c0.666992 3.33301 1.16699 6.83301 1.5 10.5s0.5 6.83398 0.5 9.50098
c0 19.333 -5.66699 33.166 -17 41.499s-27.333 12.5 -48 12.5s-38.167 -6 -52.5 -18s-23.166 -27.667 -26.499 -47v1z" />
    <glyph glyph-name="nine" unicode="9" horiz-adv-x="520" 
d="M97 -22l-23 41.001c1.33301 0 2.5 0.5 3.5 1.5l2.5 2.5c46.667 35.333 91.5 73.833 134.5 115.5s77.167 88.5 102.5 140.5l-2 1c-4 -3.33301 -7.83301 -6.33301 -11.5 -9s-7.5 -5 -11.5 -7c-16.667 -9.33301 -33.834 -15.833 -51.501 -19.5s-36.5 -5.5 -56.5 -5.5
c-46 0 -82.5 16 -109.5 48s-40.5 69.333 -40.5 112c0 5.33301 0.333008 10.833 1 16.5l2 16.5c11.333 64.667 40.333 118 87 160s102.334 63 167.001 63c68 0 118.833 -18.333 152.5 -55s50.5 -84 50.5 -142c0 -9.33301 -0.5 -18.833 -1.5 -28.5s-2.5 -19.834 -4.5 -30.501
c-15.333 -92 -57.5 -174.333 -126.5 -247s-143.5 -125.667 -223.5 -159l-20.5 -8c-7 -2.66699 -13.833 -5 -20.5 -7v0zM250 328.001c31.333 -0.666992 55.332 9.33105 71.999 29.998s27.334 43.334 32.001 68.001c1.33301 7.33301 2.33301 14.5 3 21.5s1 13.833 1 20.5
c-0.666992 30 -7.5 55 -20.5 75s-32.5 30 -58.5 30c-24.667 0 -46.5 -9.5 -65.5 -28.5s-30.833 -44.5 -35.5 -76.5c-1.33301 -7.33301 -2.33301 -14.666 -3 -21.999s-1 -14.333 -1 -21c0 -30.667 6.83301 -54.667 20.5 -72s32.167 -26 55.5 -26v1z" />
    <glyph glyph-name="colon" unicode=":" 
d="M53 49c4.66699 18.667 15.501 35 32.501 49s35.167 21 54.5 21c17.333 0 31.166 -5.33301 41.499 -16s15.5 -24 15.5 -40c0 -2.66699 -0.166992 -5.16699 -0.5 -7.5s-0.833008 -4.83301 -1.5 -7.5c-4 -19.333 -14.5 -35.833 -31.5 -49.5s-35.167 -20.5 -54.5 -20.5
c-16.667 0 -30.5 5.16699 -41.5 15.5s-16.167 23.833 -15.5 40.5v6.5c0 2.33301 0.333008 4.83301 1 7.5v1zM111.001 321c4.66699 18.667 15.333 34.999 32 48.999s34.667 21 54 21c17.333 0 31.333 -5.33301 42 -16s16 -24 16 -40c0 -2.66699 -0.166992 -5.16699 -0.5 -7.5
s-0.833008 -4.83301 -1.5 -7.5c-4 -19.333 -14.5 -36 -31.5 -50s-35.167 -21 -54.5 -21c-16.667 0 -30.5 5.33301 -41.5 16s-16.167 24.334 -15.5 41.001v6.5c0 2.33301 0.333008 4.83301 1 7.5v1z" />
    <glyph glyph-name="semicolon" unicode=";" 
d="M87 109l125.001 -0.000976562c-9.33301 -40 -21.5 -74 -36.5 -102s-30.5 -51.333 -46.5 -70c-23.333 -27.333 -45 -46.333 -65 -57s-31 -16 -33 -16c-2.66699 0 -4.83398 0.5 -6.50098 1.5s-2.5 3.16699 -2.5 6.5v0.5v0.5v0.5v0.5c0.666992 2 4 7.33301 10 16
s12.333 20 19 34c4.66699 8.66699 9.16699 18.667 13.5 30s7.83301 23.333 10.5 36c2 8.66699 3.66699 18.167 5 28.5l4 32.5l2 29.5c0.666992 9.66699 1 18.834 1 27.501v1zM116.001 320.999c4.66699 18.667 15.333 34.999 32 48.999s34.667 21 54 21
c17.333 0 31.333 -5.33301 42 -16s16 -24 16 -40c0 -2.66699 -0.166992 -5.16699 -0.5 -7.5s-0.833008 -4.83301 -1.5 -7.5c-4 -19.333 -14.5 -36 -31.5 -50s-35.167 -21 -54.5 -21c-16.667 0 -30.5 5.33301 -41.5 16s-16.167 24.334 -15.5 41.001v6.5
c0 2.33301 0.333008 4.83301 1 7.5v1z" />
    <glyph glyph-name="less" unicode="&#x3c;" horiz-adv-x="600" 
d="M534 100l-23 -108l-460 216l19 90l552 216l-23 -108l-394 -153l329 -153v0z" />
    <glyph glyph-name="equal" unicode="=" horiz-adv-x="600" 
d="M546 201l-24 -112h-506l24 112h506v0zM592 417l-24 -112h-506l24 112h506v0z" />
    <glyph glyph-name="greater" unicode="&#x3e;" horiz-adv-x="600" 
d="M53 100l395 153l-330 153l23 108l460 -216l-19 -90l-552 -216l23 108v0z" />
    <glyph glyph-name="question" unicode="?" horiz-adv-x="500" 
d="M75 58c4 21.333 15.167 39.833 33.5 55.5s38.5 23.5 60.5 23.5c20 0 36.333 -6.33301 49 -19s18.667 -28.667 18 -48v-3v-3c0 -1.33301 -0.166992 -2.5 -0.5 -3.5s-0.5 -2.16699 -0.5 -3.5c-3.33301 -22 -14.333 -40.667 -33 -56s-39 -23 -61 -23
c-20 0 -36.167 6.5 -48.5 19.5s-18.5 28.833 -18.5 47.5v6c0 2 0.333008 4 1 6v1zM165 183l15.999 172.001c10 0 20.667 1 32 3s23 5 35 9c25.333 7.33301 49.166 19 71.499 35s35.833 37 40.5 63c1.33301 5.33301 2.16602 10.333 2.49902 15s0.5 9.33398 0.5 14.001
c0 28.667 -8.83301 50 -26.5 64s-42.5 21 -74.5 21c-40.667 0 -77.334 -11.333 -110.001 -34s-56.667 -53.667 -72 -93l-19 1l42 166c10.667 4.66699 22 9 34 13s24 7.33301 36 10c19.333 4.66699 38.333 8 57 10s35.334 3 50.001 3c56.667 0 108.5 -12 155.5 -36
s70.5 -62.667 70.5 -116c0 -4.66699 -0.166992 -9.33398 -0.5 -14.001s-1.16602 -9.66699 -2.49902 -15c-8.66699 -48 -28 -83.333 -58 -106s-62 -41.334 -96 -56.001c-5.33301 -2 -10.666 -4.16699 -15.999 -6.5s-10.666 -4.5 -15.999 -6.5c-30 -12 -57 -25.667 -81 -41
s-38.667 -38.333 -44 -69v-6h-27v0z" />
    <glyph glyph-name="at" unicode="@" horiz-adv-x="800" 
d="M490 250c0 -2.66699 0.333984 -5.66895 1.00098 -9.00195s3 -7 7 -11c4.66699 -4.66699 12.834 -9.16699 24.501 -13.5s29.167 -6.5 52.5 -6.5h2h2h1h2c21.333 0.666992 39 15.334 53 44.001s21 62.334 21 101.001v3.5v2.5c-2.66699 86.667 -27 150.334 -73 191.001
s-108.667 61 -188 61c-12.667 0 -25.834 -1.16699 -39.501 -3.5s-27.167 -5.83301 -40.5 -10.5c-44 -16 -84.333 -46.167 -121 -90.5s-55 -107.5 -55 -189.5c0 -8 0.333008 -15.833 1 -23.5s1.66699 -15.5 3 -23.5c9.33301 -62 37.333 -119 84 -171s112.667 -78 198 -78
c32.667 0 60.167 4.5 82.5 13.5s43.5 21.167 63.5 36.5l22.5 18.5c7.66699 6.33301 15.5 13.166 23.5 20.499l15 -73c-29.333 -17.333 -60.5 -31.833 -93.5 -43.5s-68.833 -17.5 -107.5 -17.5c-128.667 0 -223.667 32.833 -285 98.5s-93.333 140.5 -96 224.5v6v6
c0 102.667 34 185.334 102 248.001s148.333 94 241 94c90.667 0 170 -23.167 238 -69.5s102.333 -119.5 103 -219.5c0.666992 -48 -8.83301 -85 -28.5 -111s-49.167 -49.667 -88.5 -71c-6 -3.33301 -12.333 -6.66602 -19 -9.99902l-21 -10
c-6.66699 -3.33301 -14.334 -5.83301 -23.001 -7.5s-17.667 -3.16699 -27 -4.5c-4 0 -8 -0.166992 -12 -0.5s-8 -0.5 -12 -0.5c-8.66699 0.666992 -16.5 1.33398 -23.5 2.00098s-12.833 1.66699 -17.5 3c-15.333 2 -27.5 9.83301 -36.5 23.5s-14.5 28.5 -16.5 44.5
c0 2.66699 -0.166992 5.16699 -0.5 7.5s-0.5 4.83301 -0.5 7.5c0 3.33301 0.333008 8 1 14s1.33398 12.333 2.00098 19c0.666992 5.33301 1.5 10.833 2.5 16.5s1.83301 10.167 2.5 13.5l-2 1l-11 -26.5c-4 -9.66699 -8.33301 -19.167 -13 -28.5
c-10 -20 -22.167 -38.333 -36.5 -55s-31.833 -25 -52.5 -25c-26.667 0 -44.667 7.33301 -54 22s-14.666 31 -15.999 49c-0.666992 3.33301 -1 7 -1 11v11c0 4.66699 0.166992 9.5 0.5 14.5s0.833008 10.167 1.5 15.5c8 48 32 92.333 72 133s86.667 61 140 61
c3.33301 0 6.83301 -0.333008 10.5 -1l11.5 -2c1.33301 0 2.66602 -0.166992 3.99902 -0.5s2.66602 -0.5 3.99902 -0.5c2.66699 -0.666992 5.16699 -1.16699 7.5 -1.5s4.83301 -0.5 7.5 -0.5l34 15l-7 -44.5l-8 -53.5c0 -2.66699 -0.333008 -5.33398 -1 -8.00098
s-1 -5.33398 -1 -8.00098l-11 -78c-3.33301 -24.667 -5 -42.334 -5 -53.001v1zM412.001 445.998c-17.333 -0.666992 -30.3311 -4.66602 -38.998 -11.999s-16.334 -20.666 -23.001 -39.999l-2 -6c-0.666992 -2 -1.33398 -4.33301 -2.00098 -7
c-8 -24.667 -13.667 -48.5 -17 -71.5s-5 -43.167 -5 -60.5c0 -6.66699 1 -12.834 3 -18.501s5.33301 -8.5 10 -8.5s9.83398 3 15.501 9s11.167 13.667 16.5 23c6 10.667 12.167 23.167 18.5 37.5s11.833 28.833 16.5 43.5c8 22 14.333 42.667 19 62s7 33.666 7 42.999
c0 2 -1.83301 3.33301 -5.5 4s-7.83398 1 -12.501 1v1z" />
    <glyph glyph-name="A" unicode="A" horiz-adv-x="599" 
d="M-23 -6l3.99512 19c14.667 1.33301 26.334 6 35.001 14s16.667 18.333 24 31l278 498c0.666992 0.666992 1.33398 1.66699 2.00098 3l2 4c4 6 7.33301 11.667 10 17s4.33398 10 5.00098 14v0.5c0 0.333008 0.333008 0.833008 1 1.5v1.5v0.5
c0 0.666992 -0.166992 1.33398 -0.5 2.00098s-0.5 1.33398 -0.5 2.00098c-1.33301 4.66699 -4.5 8.83398 -9.5 12.501s-12.5 5.5 -22.5 5.5l4 20c15.333 -2 30.5 -3.66699 45.5 -5s30.167 -2 45.5 -2c10 0 20.167 0.333008 30.5 1l31.5 2
c5.33301 0.666992 10.5 1.16699 15.5 1.5s10.167 0.833008 15.5 1.5l82 -561c3.33301 -22.667 8.5 -38.334 15.5 -47.001s17.833 -15 32.5 -19l-4 -18l-61.5 4c-20.333 1.33301 -40.833 2 -61.5 2s-41.834 -0.666992 -63.501 -2l-64.5 -4l4 19
c18.667 2.66699 32 6.66699 40 12s13 13.666 15 24.999c0.666992 3.33301 1.16699 6.66602 1.5 9.99902s0.5 6.66602 0.5 9.99902c0 5.33301 -0.333008 10.666 -1 15.999s-1.66699 10 -3 14l-13 98h-192l-63 -118c-3.33301 -7.33301 -6.16602 -13.833 -8.49902 -19.5
s-4.16602 -11.167 -5.49902 -16.5v-2.5v-3.5c0 -7.33301 3.16699 -13.166 9.5 -17.499s16.833 -7.16602 31.5 -8.49902l-4 -18l-49.5 4c-16.333 1.33301 -33.166 2 -50.499 2c-16.667 -0 -33.667 -0.666992 -51 -2l-51 -4h-1zM262.995 274l138 0.000976562l-0.5 1.5
c-0.333008 1 -0.5 1.83301 -0.5 2.5c-4 32 -7.33301 65.167 -10 99.5s-4.66699 76.166 -6 125.499l-2 1c-10 -23.333 -20.667 -46 -32 -68l-34 -66l-27.5 -49.5l-25.5 -47.5v1z" />
    <glyph glyph-name="B" unicode="B" horiz-adv-x="654" 
d="M71 61l88.9971 512.001c0.666992 2 1 4 1 6v6c0 9.33301 -3 16.333 -9 21s-15.667 7.33398 -29 8.00098l3 20h355c8 -0.666992 16.5 -1.5 25.5 -2.5s18.167 -2.83301 27.5 -5.5c24.667 -7.33301 47 -20 67 -38s30 -44.333 30 -79
c0 -4.66699 -0.166992 -9.33398 -0.5 -14.001s-1.16602 -9.66699 -2.49902 -15c-6.66699 -38.667 -25.167 -70.334 -55.5 -95.001s-64.166 -41.667 -101.499 -51v-1c41.333 -2 77.333 -12.667 108 -32s45.667 -50 45 -92v-13.5c0 -4.33301 -0.666992 -8.83301 -2 -13.5
c-7.33301 -42 -24.166 -75.5 -50.499 -100.5s-54.833 -43.833 -85.5 -56.5c-22 -10 -43.5 -16.667 -64.5 -20s-38.167 -5 -51.5 -5h-355l3 19c16.667 0 29 3.33301 37 10s13.333 17 16 31v1zM254.997 285.001l-36 -202.997h85
c61.333 -0.666992 103.833 9.16602 127.5 29.499s38.167 42.5 43.5 66.5c0.666992 1.33301 1.16699 2.66602 1.5 3.99902s0.5 2.66602 0.5 3.99902c0.666992 2.66699 1 5.16699 1 7.5v7.5c0 21.333 -9.33301 40.5 -28 57.5s-53 25.5 -103 25.5l-92 1v0zM300.997 552.004
l-32 -184.998h68c45.333 -0.666992 79.166 7.66602 101.499 24.999s36.833 36.666 43.5 57.999c1.33301 2.66699 2.33301 5.66699 3 9s1.33398 6.33301 2.00098 9s1 5.16699 1 7.5v7.5c0 21.333 -8.83301 38 -26.5 50s-44.167 18 -79.5 18l-81 1v0z" />
    <glyph glyph-name="C" unicode="C" horiz-adv-x="599" 
d="M558 151l-31.002 -107c-13.333 -10 -27.5 -18.5 -42.5 -25.5s-30.167 -13.167 -45.5 -18.5c-23.333 -7.33301 -46.166 -12.833 -68.499 -16.5s-41.833 -5.5 -58.5 -5.5c-92.667 0 -162.167 27.333 -208.5 82s-69.5 118.667 -69.5 192c0 10 0.333008 20 1 30
s2 20.333 4 31c15.333 87.333 58.5 166.166 129.5 236.499s163.833 105.5 278.5 105.5c28 0 53 -1.66699 75 -5s40.333 -6.66602 55 -9.99902c6.66699 -2 12.334 -3.83301 17.001 -5.5s8.66699 -3.16699 12 -4.5c-6 -34 -11.5 -67.333 -16.5 -100
s-9.16699 -65.334 -12.5 -98.001l-18 1c-0.666992 40.667 -14 71.834 -40 93.501s-59.667 32.5 -101 32.5c-55.333 0 -105.666 -21 -150.999 -63s-74.666 -100.667 -87.999 -176c-0.666992 -3.33301 -1.16699 -6.5 -1.5 -9.5s-0.5 -6.16699 -0.5 -9.5
c-0.666992 -3.33301 -1 -6.5 -1 -9.5v-9.5c0 -50.667 16 -97.167 48 -139.5s77 -63.5 135 -63.5c15.333 0 32.5 2 51.5 6s38.5 9.66699 58.5 17c15.333 6 30.666 13 45.999 21s29.666 17 42.999 27v1z" />
    <glyph glyph-name="D" unicode="D" horiz-adv-x="708" 
d="M61 61l89.001 512c0.666992 2 1 4 1 6v6c0 9.33301 -3 16.333 -9 21s-15.667 7.33398 -29 8.00098l3 20h298c74 -0.666992 139.5 -19.834 196.5 -57.501s85.5 -99.834 85.5 -186.501c0 -10 -0.5 -20.5 -1.5 -31.5s-2.5 -22.5 -4.5 -34.5
c-16.667 -97.333 -63.834 -175.166 -141.501 -233.499s-161.167 -88.5 -250.5 -90.5h-5.5h-5.5h-282l3 19c16.667 0 29 3.33301 37 10s13.333 17 16 31v1zM290.001 546l-79 -457.999h74c63.333 -0.666992 119.333 19.5 168 60.5s77.667 89.833 87 146.5
c2 11.333 3.5 22.166 4.5 32.499s1.5 20.5 1.5 30.5c0 54.667 -15.5 99.5 -46.5 134.5s-80.833 52.5 -149.5 52.5l-60 1v0z" />
    <glyph glyph-name="E" unicode="E" horiz-adv-x="599" 
d="M71 61l89 512c0.666992 2 1 4 1 6v6c0 9.33301 -3 16.333 -9 21s-15.667 7.33398 -29 8.00098l3 20h491l-8 -55c-2.66699 -18 -5 -36 -7 -54c-1.33301 -9.33301 -2.5 -18.333 -3.5 -27s-1.83301 -17.667 -2.5 -27l-18 1c0 26.667 -4 45.5 -12 56.5s-25.333 16.5 -52 16.5
l-214 1l-30 -173h134c20 -0.666992 34 2.16602 42 8.49902s14.667 16.833 20 31.5c0.666992 1.33301 1.33398 2.83301 2.00098 4.5s1.33398 3.5 2.00098 5.5l18 1l-4.5 -20c-1.66699 -7.33301 -3.5 -14.666 -5.5 -21.999c0 -1.33301 -0.166992 -2.83301 -0.5 -4.5
s-0.833008 -3.16699 -1.5 -4.5c-1.33301 -8 -2.83301 -15.833 -4.5 -23.5l-4.5 -21.5c-1.33301 -6 -2.66602 -12.833 -3.99902 -20.5s-2.33301 -15.5 -3 -23.5c-1.33301 -10 -2.33301 -19.333 -3 -28s-1 -16.334 -1 -23.001l-19 1c0 17.333 -2.33301 30 -7 38
s-18.334 12 -41.001 12l-134 1l-34 -197h224c20.667 -0.666992 37 2.5 49 9.5s23.333 21.5 34 43.5c3.33301 6 6.66602 13 9.99902 21s6.66602 17 9.99902 27l25 1c-10.667 -39.333 -19.167 -72.833 -25.5 -100.5s-11.833 -54.167 -16.5 -79.5
c-0.666992 -2 -1.16699 -3.83301 -1.5 -5.5s-0.5 -3.16699 -0.5 -4.5h-514l3 19c16.667 0 29 3.33301 37 10s13.333 17 16 31v1z" />
    <glyph glyph-name="F" unicode="F" horiz-adv-x="545" 
d="M85 84l85.001 489.003c0.666992 2 1 4 1 6v6c0 9.33301 -3 16.333 -9 21s-15.667 7.33398 -29 8.00098l3 20h478l-8 -55c-2.66699 -18 -5 -36 -7 -54c-1.33301 -9.33301 -2.5 -18.333 -3.5 -27s-1.83301 -17.667 -2.5 -27l-18 1c0 26.667 -4 45.5 -12 56.5
s-25.333 16.5 -52 16.5l-201 1l-33 -191h119c22.667 -0.666992 38.5 3.5 47.5 12.5s16.167 23.833 21.5 44.5l19 1l-13 -50c-4 -16 -7.66699 -32 -11 -48c-0.666992 -2 -1.16699 -4.16699 -1.5 -6.5s-0.5 -4.5 -0.5 -6.5c-2 -10.667 -3.5 -21.334 -4.5 -32.001
s-2.16699 -21.667 -3.5 -33c-0.666992 -4.66699 -1.16699 -9.33398 -1.5 -14.001s-0.833008 -9.66699 -1.5 -15l-18 1c0.666992 2.66699 1 5.83398 1 9.50098v9.5c0 16 -4.66699 27.333 -14 34s-28 10 -56 10l-98 1l-34 -200c-0.666992 -4.66699 -1.16699 -8.5 -1.5 -11.5
s-0.5 -6.16699 -0.5 -9.5c0 -10.667 3.83301 -18.834 11.5 -24.501s22.5 -10.834 44.5 -15.501l-4 -18c-30.667 1.33301 -56.334 2.66602 -77.001 3.99902s-40 2 -58 2c-18.667 -0 -38 -0.666992 -58 -2s-41.667 -2.66602 -65 -3.99902l4 19
c21.333 2.66699 35.833 9.16699 43.5 19.5s13.5 27.166 17.5 50.499v1z" />
    <glyph glyph-name="G" unicode="G" horiz-adv-x="695" 
d="M445 153l11.998 76.0029c0.666992 2.66699 1.16699 5.33398 1.5 8.00098s0.5 5 0.5 7c-0.666992 12.667 -5.33398 20.167 -14.001 22.5s-22.667 3.83301 -42 4.5l4 26c20 -2 40 -3.66699 60 -5s40.333 -2 61 -2h22c7.33301 0 14.666 0.333008 21.999 1
c14.667 0.666992 29.334 1.5 44.001 2.5s29.334 1.83301 44.001 2.5l-5 -22c-16.667 -1.33301 -30 -5.33301 -40 -12s-16.667 -21.334 -20 -44.001l-40 -224h-57l-11 64c-36 -30 -71.167 -50.833 -105.5 -62.5s-68.166 -17.5 -101.499 -17.5
c-80.667 0 -142.667 24.833 -186 74.5s-65 111.5 -65 185.5v11c0 3.33301 0.333008 7 1 11c0 7.33301 0.5 14.666 1.5 21.999s2.16699 14.666 3.5 21.999c19.333 108.667 66.833 194.334 142.5 257.001s166.167 94 271.5 94c34 0 67 -3.33301 99 -10s60 -17.667 84 -33
c-4.66699 -24.667 -9.16699 -51.834 -13.5 -81.501s-8.5 -61.834 -12.5 -96.501l-24 1v0.5v1.5v0.5v1.5c0 43.333 -15.667 75.5 -47 96.5s-66.666 31.5 -105.999 31.5c-68 0 -123 -23.5 -165 -70.5s-68.667 -102.833 -80 -167.5c-1.33301 -10 -2.5 -20 -3.5 -30
s-1.5 -20 -1.5 -30c0 -51.333 11.833 -96.833 35.5 -136.5s59.5 -59.5 107.5 -59.5c35.333 0 63.5 7.5 84.5 22.5s33.833 33.833 38.5 56.5v1z" />
    <glyph glyph-name="H" unicode="H" horiz-adv-x="708" 
d="M60 55l91.0039 524.004c0.666992 2 1 4 1 6v6c0 9.33301 -3 16.333 -9 21s-16 7.33398 -30 8.00098l4 20c21.333 -2 41.5 -3.66699 60.5 -5s37.5 -2 55.5 -2c18.667 0 37.667 0.666992 57 2s40 2.66602 62 3.99902l-4 -18c-16.667 -1.33301 -28.834 -5.33301 -36.501 -12
s-12.834 -17 -15.501 -31l-34 -197h237l34 198c0.666992 2 1 4 1 6v6c0 9.33301 -3 16.333 -9 21s-16 7.33398 -30 8.00098l4 20c21.333 -2 41.5 -3.66699 60.5 -5s37.833 -2 56.5 -2c18 0 36.667 0.666992 56 2s40 2.66602 62 3.99902l-4 -18
c-16.667 -1.33301 -28.834 -5.33301 -36.501 -12s-12.834 -17 -15.501 -31l-91 -523c-0.666992 -3.33301 -1 -6 -1 -8v-6c0 -9.33301 3 -16.333 9 -21s16 -7.33398 30 -8.00098l-4 -18c-21.333 1.33301 -41.5 2.66602 -60.5 3.99902s-37.5 2 -55.5 2s-37 -0.666992 -57 -2
l-62 -4l4 19c17.333 0 29.666 3.33301 36.999 10s12.333 17 15 31l40 231h-237l-40 -230c-0.666992 -3.33301 -1 -6 -1 -8v-6c0 -9.33301 3 -16.333 9 -21s16 -7.33398 30 -8.00098l-4 -18c-21.333 1.33301 -41.5 2.66602 -60.5 3.99902s-37.5 2 -55.5 2
c-18.667 -0 -37.834 -0.666992 -57.501 -2l-61.5 -4l4 19c16.667 0 28.834 3.33301 36.501 10s12.834 17 15.501 31v1z" />
    <glyph glyph-name="I" unicode="I" horiz-adv-x="325" 
d="M70 55l91.001 524.002c0.666992 2 1 4 1 6v6c0 9.33301 -3 16.333 -9 21s-16 7.33398 -30 8.00098l4 20c21.333 -2 41.5 -3.66699 60.5 -5s37.5 -2 55.5 -2c18.667 0 37.667 0.666992 57 2s40 2.66602 62 3.99902l-4 -18c-16.667 -1.33301 -28.834 -5.33301 -36.501 -12
s-12.834 -17 -15.501 -31l-91 -523c-0.666992 -3.33301 -1 -6 -1 -8v-6c0 -9.33301 3 -16.333 9 -21s16 -7.33398 30 -8.00098l-4 -18c-21.333 1.33301 -41.5 2.66602 -60.5 3.99902s-37.5 2 -55.5 2c-18.667 -0 -37.834 -0.666992 -57.501 -2l-61.5 -4l4 19
c16.667 0 28.834 3.33301 36.501 10s12.834 17 15.501 31v1z" />
    <glyph glyph-name="J" unicode="J" horiz-adv-x="325" 
d="M114 621l4.00195 19.001c15.333 -2 32.5 -3.5 51.5 -4.5s38.5 -1.83301 58.5 -2.5h10h10c18.667 0 37.667 0.666992 57 2s40 2.66602 62 3.99902l-4 -18c-16.667 -1.33301 -28.834 -5.33301 -36.501 -12s-12.834 -17 -15.501 -31l-83 -480
c-12.667 -71.333 -38.5 -127.5 -77.5 -168.5s-89.833 -64.833 -152.5 -71.5l-9 37c24 8.66699 41.167 21.334 51.5 38.001s19.5 44.667 27.5 84c0.666992 5.33301 1.5 11 2.5 17s2.16699 12.333 3.5 19l88 506c0.666992 2.66699 1.16699 5.66699 1.5 9s0.5 6.33301 0.5 9
c0 13.333 -3.83301 23.666 -11.5 30.999s-20.5 11.333 -38.5 12v1z" />
    <glyph glyph-name="K" unicode="K" horiz-adv-x="654" 
d="M80 55l90.999 524.003c0.666992 2 1 4 1 6v6c0 9.33301 -3 16.333 -9 21s-16 7.33398 -30 8.00098l4 20c21.333 -2 41.5 -3.66699 60.5 -5s37.5 -2 55.5 -2c8 0 16.333 0.166992 25 0.5s17.334 0.5 26.001 0.5c15.333 0.666992 30.166 1.5 44.499 2.5l35.5 2.5l-4 -18
c-24.667 -1.33301 -41.334 -7.5 -50.001 -18.5s-14.334 -23.5 -17.001 -37.5l-41 -239h2l211 224c8.66699 8.66699 14.834 16.5 18.501 23.5s5.83398 13.5 6.50098 19.5c0.666992 1.33301 1 2.5 1 3.5v2.5c-0.666992 6 -3.83398 10.333 -9.50098 13
s-13.167 4.33398 -22.5 5.00098l5 23c18.667 -2 37.334 -3.66699 56.001 -5s37.334 -2 56.001 -2c19.333 0 38.5 0.666992 57.5 2l54.5 4l-5 -21c-7.33301 -1.33301 -13.833 -2.83301 -19.5 -4.5s-10.834 -3.83398 -15.501 -6.50098c-6.66699 -4 -13.334 -9 -20.001 -15
s-15 -14.333 -25 -25l-199 -209c6 -11.333 12 -22 18 -32s11.667 -20 17 -30c3.33301 -5.33301 6.33301 -10.666 9 -15.999s5.66699 -10.333 9 -15c14 -25.333 28.167 -52.5 42.5 -81.5l49.5 -100.5c7.33301 -16 14 -28.5 20 -37.5s11.667 -16.167 17 -21.5
c3.33301 -2.66699 6.5 -4.83398 9.5 -6.50098s6.16699 -2.83398 9.5 -3.50098l16 -3l-2 -17l-56.5 4c-18.333 1.33301 -36.166 2 -53.499 2c-19.333 0 -36.833 -0.666992 -52.5 -2s-29.5 -2.66602 -41.5 -3.99902c-5.33301 11.333 -10.333 22.666 -15 33.999
s-9.66699 22.666 -15 33.999c-8.66699 20.667 -17.667 41 -27 61l-29 61c-10.667 21.333 -22.5 43 -35.5 65s-27.5 44.333 -43.5 67l-43 -248c-0.666992 -3.33301 -1 -6.5 -1 -9.5v-8.5c0 -10.667 3.16699 -19.334 9.5 -26.001s19.5 -10.667 39.5 -12l-4 -18
c-27.333 1.33301 -51 2.66602 -71 3.99902s-39 2 -57 2c-18.667 -0 -37.834 -0.666992 -57.501 -2l-61.5 -4l4 19c16.667 0 28.834 3.33301 36.501 10s12.834 17 15.501 31v1z" />
    <glyph glyph-name="L" unicode="L" horiz-adv-x="545" 
d="M76 61l90.002 517.999c0.666992 2 1 4 1 6v6c0 9.33301 -3 16.333 -9 21s-16 7.33398 -30 8.00098l4 20c21.333 -2 41.5 -3.66699 60.5 -5s37.5 -2 55.5 -2c8 0 16.333 0.166992 25 0.5s17.334 0.5 26.001 0.5c15.333 0.666992 30.166 1.5 44.499 2.5l35.5 2.5l-4 -18
c-24.667 -1.33301 -41.334 -7.5 -50.001 -18.5s-14.334 -23.5 -17.001 -37.5l-82 -477h185c32.667 -0.666992 58.167 7.16602 76.5 23.499s34.833 43.5 49.5 81.5l23 1c-6 -16.667 -11.667 -33.167 -17 -49.5s-10.333 -32.5 -15 -48.5c-5.33301 -16 -10 -32.167 -14 -48.5
s-7.66699 -32.166 -11 -47.499h-483l3 19c16.667 0 29 3.33301 37 10s13.333 17 16 31v1z" />
    <glyph glyph-name="M" unicode="M" horiz-adv-x="871" 
d="M93 67l94.002 418.002c3.33301 13.333 6.66602 27.5 9.99902 42.5s6.66602 32.5 9.99902 52.5c0.666992 3.33301 1.16699 6.16602 1.5 8.49902s0.5 4.83301 0.5 7.5c0 8 -2.5 13.333 -7.5 16s-13.5 5 -25.5 7c-1.33301 0 -2.5 0.166992 -3.5 0.5s-1.83301 0.5 -2.5 0.5
l3 20c14.667 -2 30.5 -3.66699 47.5 -5s34.167 -2 51.5 -2c9.33301 0 18.333 0.166992 27 0.5s17.667 0.833008 27 1.5l26.5 2l26.5 2l93 -444l233 445c16.667 -2 33.334 -3.66699 50.001 -5s33.667 -2 51 -2s34.5 0.666992 51.5 2l50.5 4l-3 -18
c-18 -2 -29.667 -6.16699 -35 -12.5s-9.33301 -16.166 -12 -29.499c-1.33301 -8.66699 -2.5 -18.5 -3.5 -29.5s-2.16699 -22.5 -3.5 -34.5l-2 -22l-2 -21l-43 -426v-1.5v-1.5v-1.5v-0.5c0 -9.33301 3.66699 -15.833 11 -19.5s15.333 -6.16699 24 -7.5
c1.33301 -0.666992 3 -1.16699 5 -1.5s3.66699 -0.5 5 -0.5l-4 -18l-32 2l-31 2c-10.667 0.666992 -21.334 1.16699 -32.001 1.5s-21.334 0.5 -32.001 0.5c-21.333 0 -42.666 -0.666992 -63.999 -2l-62 -4l4 19c24 2.66699 40.833 7.66699 50.5 15s16.167 22.333 19.5 45
c1.33301 7.33301 2.83301 16.666 4.5 27.999s2.83398 23 3.50098 35l2 20c0.666992 6.66699 1.33398 13 2.00098 19l30 299h-2l-247 -480h-83l-103 486h-2l-58 -293c-4.66699 -26.667 -8.83398 -47.834 -12.501 -63.501s-6.83398 -30.167 -9.50098 -43.5
c-0.666992 -6.66699 -1.33398 -12.5 -2.00098 -17.5s-1 -9.5 -1 -13.5c0 -12 3.83301 -20.5 11.5 -25.5s22.5 -8.83301 44.5 -11.5l-4 -18c-11.333 0.666992 -22.333 1.5 -33 2.5s-21 1.83301 -31 2.5c-8 0 -16 0.166992 -24 0.5s-16 0.5 -24 0.5h-8h-7
c-16 -0.666992 -31.5 -1.5 -46.5 -2.5s-29.167 -2.16699 -42.5 -3.5l4 19c19.333 0.666992 33.833 4.5 43.5 11.5s16.834 20.833 21.501 41.5v1z" />
    <glyph glyph-name="N" unicode="N" horiz-adv-x="708" 
d="M80 55l90.9971 523.996c0.666992 2 1 4 1 6v6c0 9.33301 -3 16.333 -9 21s-16 7.33398 -30 8.00098l4 20c21.333 -2 41.5 -3.66699 60.5 -5s37.5 -2 55.5 -2c13.333 0 27.333 0.333008 42 1s30 2.33398 46 5.00098l196 -427h1l61 353
c0.666992 2.66699 1.16699 5.33398 1.5 8.00098s0.5 5.33398 0.5 8.00098c-0.666992 16.667 -5.66699 27.334 -15 32.001s-19.666 7 -30.999 7h-2.5h-2.5l4 20c16 -2 31.833 -3.66699 47.5 -5s30.834 -2 45.501 -2c16.667 0 33 0.666992 49 2l48 4l-4 -18
c-16.667 -1.33301 -28.834 -5.33301 -36.501 -12s-12.834 -17 -15.501 -31l-101 -584h-104l-238 504h-1l-75 -429c-0.666992 -4 -1.16699 -7.5 -1.5 -10.5s-0.5 -5.83301 -0.5 -8.5c0.666992 -15.333 5.16699 -25.333 13.5 -30s17.833 -7.33398 28.5 -8.00098h4.5h4.5
l-4 -18l-47 4c-15.333 1.33301 -30.666 2 -45.999 2c-6.66699 -0 -13.167 -0.166992 -19.5 -0.5s-12.833 -0.5 -19.5 -0.5c-10 -0.666992 -19.833 -1.5 -29.5 -2.5s-19.167 -1.83301 -28.5 -2.5l4 19c16.667 0 28.834 3.33301 36.501 10s12.834 17 15.501 31v1z" />
    <glyph glyph-name="O" unicode="O" horiz-adv-x="708" 
d="M678 316c-18.667 -106 -65.5 -188.833 -140.5 -248.5s-156.167 -89.5 -243.5 -89.5c-84.667 0 -149 27.167 -193 81.5s-65.667 119.833 -65 196.5c0 11.333 0.5 23 1.5 35s2.5 24 4.5 36c16 95.333 59.833 173.833 131.5 235.5s152.5 92.5 242.5 92.5
c87.333 0 153.833 -26.833 199.5 -80.5s68.5 -118.167 68.5 -193.5c0 -10.667 -0.5 -21.5 -1.5 -32.5s-2.5 -22.167 -4.5 -33.5v1zM525 274c2.66699 12.667 4.66406 26.167 5.99707 40.5s2 28.833 2 43.5v4v4c-1.33301 48.667 -12.666 93 -33.999 133
s-59.666 60 -114.999 60c-46 0 -83 -14 -111 -42s-48.667 -59 -62 -93c-4.66699 -10.667 -8.5 -21.334 -11.5 -32.001s-5.5 -21 -7.5 -31c-2 -12 -3.66699 -24.667 -5 -38s-2 -26.666 -2 -39.999v-5.5v-5.5c1.33301 -50 13 -95.667 35 -137s59.667 -62 113 -62
c50 0 92.333 19.667 127 59s56.334 86.333 65.001 141v1z" />
    <glyph glyph-name="P" unicode="P" horiz-adv-x="599" 
d="M305 546l-81.998 -472.995c-0.666992 -4.66699 -1.16699 -8.5 -1.5 -11.5s-0.5 -6.16699 -0.5 -9.5c0 -10.667 3.83301 -18.834 11.5 -24.501s22.5 -10.834 44.5 -15.501l-4 -18c-30.667 1.33301 -56.334 2.66602 -77.001 3.99902s-40 2 -58 2
c-18.667 0 -37.834 -0.666992 -57.501 -2l-61.5 -4l4 19c19.333 2.66699 32.666 9.16699 39.999 19.5s13 27.166 17 50.499l85 490c0.666992 2 1 4 1 6v6c0 9.33301 -3 16.333 -9 21s-15.667 7.33398 -29 8.00098l3 20h290c78.667 -0.666992 134.167 -15.834 166.5 -45.501
s48.5 -67.834 48.5 -114.501c0 -7.33301 -0.333008 -14.833 -1 -22.5s-1.66699 -15.167 -3 -22.5c-10.667 -62 -39.667 -110.833 -87 -146.5s-102.666 -53.5 -165.999 -53.5c-5.33301 0 -10.666 0.333008 -15.999 1l-16 2c-16.667 3.33301 -32.5 8.16602 -47.5 14.499
s-24.833 12.833 -29.5 19.5c-0.666992 1.33301 -1.16699 2.83301 -1.5 4.5s-0.5 3.16699 -0.5 4.5c1.33301 4.66699 3.33301 7.33398 6 8.00098s6.33398 1 11.001 1c2 0 4.16699 -0.166992 6.5 -0.5s5.16602 -0.5 8.49902 -0.5c2.66699 -0.666992 5.5 -1.16699 8.5 -1.5
s6.16699 -0.5 9.5 -0.5c51.333 0 90.333 13.333 117 40s43.667 60.667 51 102c1.33301 5.33301 2.16602 10.5 2.49902 15.5s0.5 9.83301 0.5 14.5c0 33.333 -11 57 -33 71s-52 21 -90 21l-61 1v0z" />
    <glyph glyph-name="Q" unicode="Q" horiz-adv-x="708" 
d="M647 55l-28.001 -51.998c-19.333 -6.66699 -37 -11.167 -53 -13.5s-29.333 -3.5 -40 -3.5c-18.667 0 -35.334 2.5 -50.001 7.5s-25.667 10.833 -33 17.5c-10 -6.66699 -23.667 -12.334 -41 -17.001s-35.333 -8.33398 -54 -11.001c-10.667 -1.33301 -21 -2.5 -31 -3.5
s-19.333 -1.5 -28 -1.5c-84.667 0 -149 27.167 -193 81.5s-65.667 119.833 -65 196.5c0 11.333 0.5 23 1.5 35s2.5 24 4.5 36c16 95.333 59.833 173.833 131.5 235.5s152.5 92.5 242.5 92.5c87.333 0 153.833 -26.833 199.5 -80.5s68.5 -118.167 68.5 -193.5
c0 -10.667 -0.5 -21.5 -1.5 -32.5s-2.5 -22.167 -4.5 -33.5c-8.66699 -49.333 -24.5 -94.333 -47.5 -135s-48.833 -73.667 -77.5 -99c4 -8 9.5 -14.167 16.5 -18.5s14.167 -7.5 21.5 -9.5c5.33301 -1.33301 10.5 -2.33301 15.5 -3s9.5 -1 13.5 -1
c2.66699 0 5.33398 0.166992 8.00098 0.5s5.33398 0.5 8.00098 0.5l8 2l8 2v1zM519.999 274.002c2.66699 12.667 4.66406 26.167 5.99707 40.5s2 28.833 2 43.5v4v4c-1.33301 48.667 -12.666 93 -33.999 133s-59.666 60 -114.999 60c-46 0 -83 -14 -111 -42
s-48.667 -59 -62 -93c-4.66699 -10.667 -8.5 -21.334 -11.5 -32.001s-5.5 -21 -7.5 -31c-2 -12 -3.66699 -24.667 -5 -38s-2 -26.666 -2 -39.999v-5.5v-5.5c1.33301 -50 13 -95.667 35 -137s59.667 -62 113 -62c50 0 92.333 19.667 127 59s56.334 86.333 65.001 141v1z" />
    <glyph glyph-name="R" unicode="R" horiz-adv-x="654" 
d="M310 546l-81.9961 -472.997c-0.666992 -4.66699 -1.16699 -8.5 -1.5 -11.5s-0.5 -6.16699 -0.5 -9.5c0 -10.667 3.83301 -18.834 11.5 -24.501s22.5 -10.834 44.5 -15.501l-4 -18c-30.667 1.33301 -56.334 2.66602 -77.001 3.99902s-40 2 -58 2
c-18.667 -0 -37.834 -0.666992 -57.501 -2l-61.5 -4l4 19c19.333 2.66699 32.666 9.16699 39.999 19.5s13 27.166 17 50.499l85 490c0.666992 2 1 4 1 6v6c0 9.33301 -3 16.333 -9 21s-15.667 7.33398 -29 8.00098l3 20h348c50 -0.666992 91.167 -12 123.5 -34
s48.5 -56 48.5 -102c0 -5.33301 -0.166992 -11 -0.5 -17s-1.16602 -12 -2.49902 -18c-6.66699 -38.667 -24 -74.5 -52 -107.5s-77 -58.5 -147 -76.5l121 -224c7.33301 -13.333 14.833 -23.333 22.5 -30s16.834 -10 27.501 -10h1.5h1.5h0.5h1.5l-3 -21l-50 4
c-16.667 1.33301 -33.334 2 -50.001 2c-10.667 0 -21.834 -0.333008 -33.501 -1l-34.5 -2c-5.33301 -0.666992 -10.833 -1.16699 -16.5 -1.5s-11.5 -0.833008 -17.5 -1.5c-14.667 40 -31 79.833 -49 119.5s-36.667 77.834 -56 114.501l-20 37.5l-20 36.5l1 3
c73.333 8.66699 126.666 21 159.999 37s53.666 46.333 60.999 91c1.33301 4.66699 2 9 2 13v12c0 31.333 -11.667 53.666 -35 66.999s-54.666 20 -93.999 20l-65 1v0z" />
    <glyph glyph-name="S" unicode="S" horiz-adv-x="599" 
d="M70 220l19.001 -0.00292969c0.666992 -55.333 16.334 -96 47.001 -122s72.334 -39 125.001 -39c8 0 16.5 0.333008 25.5 1s17.833 2 26.5 4c24 4.66699 46.167 13.5 66.5 26.5s33.166 33.167 38.499 60.5c0.666992 2.66699 1 5.16699 1 7.5v7.5
c0 18.667 -6.66699 32.834 -20 42.501s-28 17.5 -44 23.5c-4.66699 1.33301 -9.33398 2.83301 -14.001 4.5l-13 4.5l-66 22c-42.667 12.667 -81.667 30.5 -117 53.5s-53 57.833 -53 104.5c0 5.33301 0.333008 10.666 1 15.999l2 16c12.667 72.667 48.5 123.667 107.5 153
s122.833 45.333 191.5 48c4.66699 0.666992 9.5 1 14.5 1h14.5c31.333 0 62 -2.66699 92 -8s58.333 -13.333 85 -24c-6 -36 -10.833 -69.333 -14.5 -100s-6.83398 -59 -9.50098 -85l-19 1c-2.66699 45.333 -19.667 79 -51 101s-69 33 -113 33c-8 0 -16.833 -0.5 -26.5 -1.5
s-19.5 -2.83301 -29.5 -5.5c-20.667 -4.66699 -39.834 -13 -57.501 -25s-28.5 -29.667 -32.5 -53c-0.666992 -2.66699 -1 -5.33398 -1 -8.00098v-8c0 -18.667 6.33301 -32.5 19 -41.5s26.667 -16.167 42 -21.5l6 -2l6 -2l98 -29c42 -13.333 79.333 -30.666 112 -51.999
s49 -56.666 49 -105.999c-0.666992 -6 -1.16699 -12.167 -1.5 -18.5s-1.16602 -13.166 -2.49902 -20.499c-12 -66 -49.333 -116 -112 -150s-133.667 -51 -213 -51h-13.5c-4.33301 0 -8.83301 0.333008 -13.5 1c-31.333 1.33301 -62.5 4.83301 -93.5 10.5
s-59.5 13.5 -85.5 23.5c6.66699 39.333 12.167 76.333 16.5 111s7.83301 66.334 10.5 95.001v1z" />
    <glyph glyph-name="T" unicode="T" horiz-adv-x="570" 
d="M417 546l-82.0049 -471.999c-0.666992 -3.33301 -1 -6.16602 -1 -8.49902v-7.5c0 -16.667 5.33301 -28.334 16 -35.001s22.334 -10.334 35.001 -11.001h2.5h2.5l-4 -18l-69.5 4c-23 1.33301 -45.167 2 -66.5 2c-18 0 -36.667 -0.5 -56 -1.5
s-38.666 -2.16699 -57.999 -3.5c-4 0 -8 -0.166992 -12 -0.5s-8 -0.5 -12 -0.5l4 19c2.66699 -0.666992 5.33398 -0.833984 8.00098 -0.500977s5.33398 0.5 8.00098 0.5c12.667 2.66699 24.667 8.33398 36 17.001s18.666 23 21.999 43l82 473h-98
c-25.333 -0.666992 -45.666 -10 -60.999 -28s-28.666 -45 -39.999 -81l-18 1c1.33301 6.66699 2.83301 13.5 4.5 20.5s3.16699 13.833 4.5 20.5l10 42c3.33301 14 6 28 8 42l13 71h531l-13 -70c-2 -14.667 -3.83301 -29 -5.5 -43s-3.16699 -28 -4.5 -42
c-0.666992 -6.66699 -1.5 -13.5 -2.5 -20.5s-1.83301 -14.167 -2.5 -21.5l-19 1v5v6c0 32 -4.66699 56 -14 72s-26 24 -50 24l-98 1v0z" />
    <glyph glyph-name="U" unicode="U" horiz-adv-x="680" 
d="M60 208l64.002 371c0.666992 2 1 4 1 6v6c0 9.33301 -3 16.333 -9 21s-16 7.33398 -30 8.00098l4 20c15.333 -2 32.666 -3.66699 51.999 -5s39.333 -2 60 -2c25.333 0 48.5 0.666992 69.5 2l61.5 4l-4 -18c-20.667 -1.33301 -35.167 -5.16602 -43.5 -11.499
s-14.166 -19.166 -17.499 -38.499l-64 -370c-1.33301 -10 -2.5 -19.167 -3.5 -27.5s-1.5 -16.166 -1.5 -23.499c0 -34.667 9.5 -57.5 28.5 -68.5s45.167 -16.5 78.5 -16.5c39.333 0 71.5 8.66699 96.5 26s42.167 53.666 51.5 108.999l65 372
c0.666992 3.33301 1.16699 6.5 1.5 9.5s0.5 5.83301 0.5 8.5c0 11.333 -3.5 19 -10.5 23s-19.167 6.33301 -36.5 7l4 20c19.333 -2 39.333 -3.66699 60 -5s43.667 -2 69 -2c21.333 0 41.666 0.666992 60.999 2s37 2.66602 53 3.99902l-4 -18
c-16.667 -1.33301 -28.834 -5.33301 -36.501 -12s-12.834 -17 -15.501 -31l-63 -356c-15.333 -93.333 -49.166 -157.333 -101.499 -192s-122.5 -52 -210.5 -52c-76.667 0 -135.167 12.333 -175.5 37s-60.5 68 -60.5 130c0 9.33301 0.5 19.166 1.5 29.499
s2.5 21.166 4.5 32.499v1z" />
    <glyph glyph-name="V" unicode="V" horiz-adv-x="599" 
d="M26 621l3.99707 18.999c21.333 -2 42.833 -3.66699 64.5 -5s43.5 -2 65.5 -2c21.333 0 43 0.666992 65 2l66 4l-4 -18c-20 -1.33301 -34.5 -5.16602 -43.5 -11.499s-14.5 -15.166 -16.5 -26.499v-1.5v-1.5c-0.666992 -0.666992 -1 -1.33398 -1 -2.00098v-2
c0 -2.66699 0.5 -7.33398 1.5 -14.001s2.16699 -16.667 3.5 -30l58 -366h2l186 367c1.33301 1.33301 2.66602 3.33301 3.99902 6s2.66602 5.66699 3.99902 9c2.66699 6 5.33398 12.5 8.00098 19.5s4.33398 14.167 5.00098 21.5c0.666992 1.33301 1 2.83301 1 4.5v3.5
c-0.666992 6.66699 -3.66699 11.334 -9 14.001s-12.666 5 -21.999 7c-1.33301 0 -3.16602 0.166992 -5.49902 0.5s-4.5 0.833008 -6.5 1.5l4 20c17.333 -2 34.833 -3.66699 52.5 -5s35.167 -2 52.5 -2c9.33301 0 18.333 0.166992 27 0.5s17.667 0.833008 27 1.5l26.5 2
l26.5 2l-4 -18c-13.333 -2.66699 -23.666 -6.5 -30.999 -11.5s-14.333 -12.167 -21 -21.5c-2 -2.66699 -4 -5.83398 -6 -9.50098l-7 -12.5l-306 -572h-120l-104 556c-0.666992 2.66699 -1.33398 6 -2.00098 10s-1.66699 8 -3 12
c-3.33301 10.667 -8.16602 20.834 -14.499 30.501s-15.5 15.5 -27.5 17.5v1z" />
    <glyph glyph-name="W" unicode="W" horiz-adv-x="780" 
d="M135 -6l-59.9951 562.002c-2.66699 25.333 -7 42.5 -13 51.5s-17 14.167 -33 15.5l3 17c19.333 -2 38.666 -3.66699 57.999 -5s39 -2 59 -2c19.333 0 38.833 0.666992 58.5 2l59.5 4l-4 -18c-2 -0.666992 -4.33301 -1.33398 -7 -2.00098l-8 -2
c-6 -1.33301 -11.333 -3.83301 -16 -7.5s-8 -8.83398 -10 -15.501c-0.666992 -3.33301 -1.16699 -7 -1.5 -11s-0.5 -8 -0.5 -12c0 -5.33301 0.333008 -10.833 1 -16.5l2 -17.5c0 -6 0.333008 -12 1 -18s1 -12 1 -18l26 -335h2l132 292l-9 110
c-1.33301 20.667 -7 34.5 -17 41.5s-24 10.5 -42 10.5l4 20c22 -2 44 -3.66699 66 -5s44.333 -2 67 -2c11.333 0 22.666 0.166992 33.999 0.5s22.666 0.833008 33.999 1.5l34 2l34 2l-4 -18c-19.333 -0.666992 -33.833 -4.33398 -43.5 -11.001s-15.834 -16.667 -18.501 -30
c-1.33301 -6.66699 -2 -13.167 -2 -19.5v-18.5v-5.5v-4.5l23 -369h2l150 357c0.666992 0 1.16699 0.5 1.5 1.5s0.5 1.83301 0.5 2.5s0.166992 1.16699 0.5 1.5l0.5 0.5l13 31c4 10 6.33301 17.667 7 23c0.666992 2 1 4 1 6v5c0 11.333 -3.83301 18.833 -11.5 22.5
s-17.167 5.5 -28.5 5.5l4 21c15.333 -2 31 -3.66699 47 -5s32.333 -2 49 -2c15.333 0 31.166 0.666992 47.499 2l49.5 4l-4 -18c-12.667 -1.33301 -23.667 -5.33301 -33 -12s-18.333 -18 -27 -34c-2 -2.66699 -3.83301 -5.66699 -5.5 -9s-3.16699 -6.66602 -4.5 -9.99902
l-257 -562h-113l-30 351h-2l-152 -351h-115v0z" />
    <glyph glyph-name="X" unicode="X" horiz-adv-x="654" 
d="M10 -6l4.00293 19.002c4 -0.666992 8.83301 -0.666992 14.5 0s11.5 2 17.5 4c5.33301 2 10.833 4.66699 16.5 8s10.5 7.66602 14.5 12.999l232 278l1 2l-116 271c-2.66699 6.66699 -7.16699 12.334 -13.5 17.001s-13.166 8.33398 -20.499 11.001
c-2.66699 0.666992 -5.5 1.33398 -8.5 2.00098s-5.83301 1 -8.5 1l4 20c22.667 -2 45.167 -3.66699 67.5 -5s44.833 -2 67.5 -2s45.5 0.666992 68.5 2l68.5 4l-3 -18c-12.667 -1.33301 -22.834 -4 -30.501 -8s-12.5 -10.667 -14.5 -20c0 -4 0.666992 -9 2 -15
s3 -12.667 5 -20l38 -114l93 111l2.5 2.5c1 1 1.83301 2.16699 2.5 3.5s1.5 2.66602 2.5 3.99902s1.83301 2.66602 2.5 3.99902l9 15c2.66699 4.66699 4 8.66699 4 12v1.5v1.5v0.5v1.5c0 5.33301 -2.5 9.33301 -7.5 12s-12.5 5 -22.5 7l4 20
c17.333 -2 34.666 -3.66699 51.999 -5s35.333 -2 54 -2c17.333 0 34.833 0.666992 52.5 2l53.5 4l-4 -18c-15.333 -1.33301 -29 -5.5 -41 -12.5s-21.333 -14.833 -28 -23.5l-186 -224l127 -299l1.5 -4.5c0.333008 -1 0.833008 -2.16699 1.5 -3.5
c5.33301 -10.667 12.333 -20.334 21 -29.001s20.667 -13 36 -13l-4 -18l-70.5 4c-23.667 1.33301 -47.167 2 -70.5 2c-24 0 -48 -0.666992 -72 -2l-72 -4l4 19c20.667 -0.666992 35.167 1.16602 43.5 5.49902s13.166 10.833 14.499 19.5v1.5
c0 0.333008 0.333008 0.833008 1 1.5v2v2c0 5.33301 -1 11 -3 17s-4.66699 13.333 -8 22l-60 152l-129 -161c-1.33301 -2.66699 -2.66602 -5 -3.99902 -7s-3 -4.33301 -5 -7c-0.666992 -0.666992 -1.33398 -1.5 -2.00098 -2.5s-1.33398 -1.83301 -2.00098 -2.5l-5.5 -9.5
c-1.66699 -3 -2.83398 -5.83301 -3.50098 -8.5v-1.5v-0.5v-1.5v-1.5c0 -7.33301 3.5 -12.5 10.5 -15.5s14.5 -4.83301 22.5 -5.5h5h4l-4 -18l-55.5 4c-18.333 1.33301 -37.166 2 -56.499 2c-18.667 -0 -37.5 -0.666992 -56.5 -2l-57.5 -4v0z" />
    <glyph glyph-name="Y" unicode="Y" horiz-adv-x="545" 
d="M28 621l3.99902 18.999c20.667 -2 41.5 -3.66699 62.5 -5s42.167 -2 63.5 -2s42.5 0.666992 63.5 2l63.5 4l-4 -18c-11.333 -1.33301 -21 -3.5 -29 -6.5s-13 -9.83301 -15 -20.5c0 -4 0.5 -8.83301 1.5 -14.5s2.83301 -15.167 5.5 -28.5l54 -214h2l116 196
c8 12 14 21.833 18 29.5s6.33301 15.167 7 22.5c0.666992 0.666992 1 1.16699 1 1.5v1.5c0 0.666992 0.166992 1.33398 0.5 2.00098s0.5 1.33398 0.5 2.00098v2v2c0 8 -3.33301 14 -10 18s-15.667 6 -27 6l4 20c17.333 -2 34.5 -3.66699 51.5 -5s33.833 -2 50.5 -2
c8.66699 0 17.334 0.166992 26.001 0.5s17.334 0.833008 26.001 1.5l26 2l26 2l-4 -18c-10.667 -0.666992 -20.334 -3 -29.001 -7s-16.667 -11.667 -24 -23l-236 -372l-28 -164c-0.666992 -2.66699 -1 -4.83398 -1 -6.50098v-4.5c0 -10.667 3.66699 -18.5 11 -23.5
s18.333 -7.83301 33 -8.5l-4 -18c-24 1.33301 -45.667 2.66602 -65 3.99902s-38.333 2 -57 2c-18 0 -37 -0.666992 -57 -2s-42 -2.66602 -66 -3.99902l4 19c16.667 0 29.667 3.33301 39 10s15.333 17 18 31l28 167l-104 368c-4.66699 14 -10.5 22.667 -17.5 26
s-16.5 5 -28.5 5v1z" />
    <glyph glyph-name="Z" unicode="Z" horiz-adv-x="599" 
d="M436 546l-187.999 -0.00195312c-26.667 -0.666992 -46.5 -6.5 -59.5 -17.5s-23.167 -28.5 -30.5 -52.5l-19 1c1.33301 4 2.66602 8.33301 3.99902 13s2.66602 9.66699 3.99902 15c1.33301 4.66699 2.83301 9.33398 4.5 14.001s3.16699 9.66699 4.5 15
c4.66699 16.667 9 33.5 13 50.5s7.33301 33.167 10 48.5l488 1l-418 -546h214c32 -0.666992 56.667 2.83301 74 10.5s33.333 30.5 48 68.5c1.33301 2 2.33301 4.16699 3 6.5s1.33398 4.5 2.00098 6.5l19 1c-9.33301 -31.333 -18 -62.166 -26 -92.499
s-14.667 -59.833 -20 -88.5h-541l414 546v0z" />
    <glyph glyph-name="bracketleft" unicode="[" horiz-adv-x="326" 
d="M76 -123l133 758l184 21l-3 -19c-24.667 -5.33301 -42.167 -15 -52.5 -29s-17.5 -33 -21.5 -57l-104 -591l-2 -15.5c-0.666992 -5 -1 -9.83301 -1 -14.5c0.666992 -15.333 4.5 -27.5 11.5 -36.5s19.167 -15.167 36.5 -18.5l-3 -19l-178 21v0z" />
    <glyph glyph-name="backslash" unicode="\" 
d="M47 690l280 -712l-96 -34l-280 712l96 34v0z" />
    <glyph glyph-name="bracketright" unicode="]" horiz-adv-x="326" 
d="M22 -144l1.99902 19c24.667 4.66699 42.334 14 53.001 28s18 33 22 57l104 592c1.33301 4.66699 2.16602 9.5 2.49902 14.5s0.5 9.83301 0.5 14.5c0 15.333 -3.66699 27.5 -11 36.5s-19.666 15.167 -36.999 18.5l3 20l178 -21l-132 -758l-185 -21v0z" />
    <glyph glyph-name="asciicircum" unicode="^" horiz-adv-x="600" 
d="M184 269h-109l175 365h100l175 -365h-110l-115 253l-116 -253v0z" />
    <glyph glyph-name="underscore" unicode="_" horiz-adv-x="500" 
d="M500 -125h-500v50h500v-50v0z" />
    <glyph glyph-name="grave" unicode="`" 
d="M167 535l-137.999 86c-15.333 9.33301 -25.833 18.333 -31.5 27s-8.5 17.334 -8.5 26.001c0 11.333 4.33301 21.5 13 30.5s18.667 13.5 30 13.5c17.333 0 32.166 -5.33301 44.499 -16s23.833 -22.334 34.5 -35.001c3.33301 -4 6.5 -8 9.5 -12s6.16699 -7.66699 9.5 -11
l95 -109h-58v0z" />
    <glyph glyph-name="a" unicode="a" horiz-adv-x="500" 
d="M470 79l14.002 -16.001l-16.5 -16.5c-6.33301 -6.33301 -13.5 -12.5 -21.5 -18.5c-10.667 -8.66699 -22.167 -16.667 -34.5 -24s-25.166 -12.666 -38.499 -15.999c-4 -1.33301 -8 -2.33301 -12 -3s-8 -1 -12 -1c-26.667 0 -43.834 8.33301 -51.501 25s-11.5 41 -11.5 73
c0 5.33301 0.333008 13 1 23s1.66699 20.333 3 31l4 27.5c1.33301 9 2.66602 16.5 3.99902 22.5l-2 1l-15 -37.5c-5.33301 -13 -11.333 -26.167 -18 -39.5c-15.333 -32 -34.5 -61 -57.5 -87s-51.167 -39 -84.5 -39s-56.333 11.667 -69 35s-20.334 49 -23.001 77
c-0.666992 6.66699 -1.16699 13.334 -1.5 20.001s-0.5 13 -0.5 19s0.166992 12 0.5 18s0.833008 12 1.5 18c10 76 45.333 145.667 106 209s129.667 95 207 95c8 0 16.333 -0.666992 25 -2s17.334 -3 26.001 -5c0.666992 -0.666992 1.66699 -1 3 -1
s2.66602 -0.333008 3.99902 -1c2 0 3.83301 -0.166992 5.5 -0.5s3.16699 -0.833008 4.5 -1.5l41 25l-13 -91c-1.33301 -10.667 -3.5 -26.667 -6.5 -48l-9.5 -71c-0.666992 -6 -1.5 -12.167 -2.5 -18.5s-1.83301 -12.5 -2.5 -18.5
c-3.33301 -29.333 -6.33301 -57.666 -9 -84.999s-4 -48 -4 -62c0 -8.66699 1.5 -16.834 4.5 -24.501s9.83301 -11.5 20.5 -11.5c5.33301 0 10.5 1.16699 15.5 3.5s9.83301 5.16602 14.5 8.49902c2 1.33301 3.83301 2.5 5.5 3.5s3.5 2.16699 5.5 3.5v1zM293.002 411.999
c-26.667 -0.666992 -46.667 -6.99805 -60 -18.998s-25 -33.333 -35 -64l-4 -12c-1.33301 -4 -2.66602 -8.33301 -3.99902 -13c-12 -41.333 -20.5 -77.833 -25.5 -109.5s-7.5 -61.834 -7.5 -90.501v-1.5v-1.5c0 -10.667 1.5 -20.334 4.5 -29.001s8.16699 -13 15.5 -13
s15.333 4.66699 24 14s17.334 21.666 26.001 36.999c9.33301 17.333 18.666 37.333 27.999 60s18 45.667 26 69c11.333 33.333 20.666 65.333 27.999 96s11 53.334 11 68.001c0 2.66699 -2.5 4.66699 -7.5 6s-10.5 2 -16.5 2h-1.5h-1.5v1z" />
    <glyph glyph-name="b" unicode="b" horiz-adv-x="500" 
d="M398 730l-21.9961 -97.002c-3.33301 0 -6.66602 0.333008 -9.99902 1l-10 2c-6.66699 1.33301 -13.334 2.5 -20.001 3.5s-13.334 1.5 -20.001 1.5c-21.333 0 -36.333 -6.16699 -45 -18.5s-15.667 -34.166 -21 -65.499l-46 -282l2 -2c3.33301 10.667 7.5 22.5 12.5 35.5
s10.5 26.167 16.5 39.5c15.333 32 34.666 61.167 57.999 87.5s51.666 39.5 84.999 39.5c37.333 0 62.5 -12.333 75.5 -37s19.5 -53 19.5 -85c0 -13.333 -0.833008 -26.666 -2.5 -39.999s-3.83398 -26.666 -6.50098 -39.999c-16 -72.667 -50 -139 -102 -199
s-114 -90 -186 -90c-3.33301 0 -6.5 0.166992 -9.5 0.5s-6.16699 0.833008 -9.5 1.5c-10 2 -19.833 5.66699 -29.5 11s-17.834 12.666 -24.501 21.999l-58 -35l64 466c0.666992 4 1.33398 8.33301 2.00098 13l2 14c6 40.667 13.333 72 22 94s22.667 42 42 60l14.5 12
l15.5 12c25.333 18.667 53 35.667 83 51s61 23 93 23l15 1v0zM183.004 105.998c0 -17.333 2.83398 -31.5 8.50098 -42.5s16.167 -16.5 31.5 -16.5c3.33301 0 6.5 0.333008 9.5 1s5.83301 2 8.5 4c16 8.66699 31.667 28.5 47 59.5s28.333 71.833 39 122.5
c5.33301 25.333 9.33301 46.5 12 63.5s4 30.833 4 41.5v6.5c0 2.33301 -0.333008 4.5 -1 6.5c-0.666992 6.66699 -3 12.834 -7 18.501s-11.333 8.5 -22 8.5c-4 0 -8.33301 -1.16699 -13 -3.5s-9 -5.5 -13 -9.5c-12 -12 -24 -29.667 -36 -53s-22.667 -48 -32 -74
c-10.667 -28.667 -19.334 -55.834 -26.001 -81.501s-10 -43.167 -10 -52.5v1z" />
    <glyph glyph-name="c" unicode="c" horiz-adv-x="389" 
d="M360 131l12.9971 -18.999c-10 -10.667 -19.833 -20.667 -29.5 -30l-28.5 -27c-22.667 -20.667 -46.5 -37.667 -71.5 -51s-54.5 -20 -88.5 -20c-35.333 0 -63 12.167 -83 36.5s-33.333 51.5 -40 81.5c-1.33301 8 -2.5 16.167 -3.5 24.5s-1.5 16.166 -1.5 23.499v9.5
c0 3 0.333008 6.16699 1 9.5c4.66699 76.667 35.5 146.834 92.5 210.501s126.833 95.5 209.5 95.5c6.66699 0 12.834 -0.166992 18.501 -0.5s11.167 -0.5 16.5 -0.5c2 0 3.83301 -0.166992 5.5 -0.5s3.5 -0.5 5.5 -0.5l-26 -107l-29.5 10.5
c-10.333 3.66699 -20.833 6.5 -31.5 8.5c-4 0.666992 -8.16699 1.16699 -12.5 1.5s-8.5 0.5 -12.5 0.5c-24 0 -43.333 -13.333 -58 -40s-26 -56.334 -34 -89.001c-5.33301 -22.667 -9.16602 -44.334 -11.499 -65.001s-3.5 -36.667 -3.5 -48v-7.5v-6.5
c0.666992 -19.333 4.66699 -37.166 12 -53.499s23.333 -24.5 48 -24.5c3.33301 0 6.5 0.166992 9.5 0.5s6.16699 0.833008 9.5 1.5c14.667 3.33301 29.334 9.33301 44.001 18s28.667 18 42 28l19.5 15.5c6.33301 5 12.5 9.5 18.5 13.5v1z" />
    <glyph glyph-name="d" unicode="d" horiz-adv-x="500" 
d="M477 96l15.001 -15c-4 -5.33301 -8.5 -10.5 -13.5 -15.5s-10.167 -9.83301 -15.5 -14.5c-17.333 -17.333 -36.666 -32.833 -57.999 -46.5s-43.333 -20.5 -66 -20.5c-18.667 0 -31.5 6.16699 -38.5 18.5s-11.5 26.166 -13.5 41.499c-0.666992 6.66699 -1 13 -1 19v17
c0 24.667 0.666992 46.334 2 65.001s3.33301 36.334 6 53.001l-2 3c-3.33301 -12.667 -7.66602 -27 -12.999 -43s-11.666 -32 -18.999 -48c-14.667 -32 -33.334 -61 -56.001 -87s-49 -39 -79 -39c-28.667 0 -50.334 11 -65.001 33s-24.334 46.333 -29.001 73
c-1.33301 7.33301 -2.33301 14.666 -3 21.999s-1 14.333 -1 21c0 92.667 28.5 172.834 85.5 240.501s122.5 101.5 196.5 101.5l16 1c1.33301 15.333 3 31 5 47l6 48c2 15.333 4.33301 31 7 47l8 48c-6 -0.666992 -11.833 -1.5 -17.5 -2.5s-11.167 -1.83301 -16.5 -2.5
c-5.33301 -1.33301 -10.833 -2.33301 -16.5 -3s-11.5 -1.66699 -17.5 -3l4 26c8 2 16 4.16699 24 6.5l23 6.5l12 4l12 4l71.5 22.5c23.667 7.66699 47.167 15.834 70.5 24.501l-6 -26c-2 -8.66699 -3.66699 -17.334 -5 -26.001c-2 -8.66699 -3.83301 -17.334 -5.5 -26.001
s-3.16699 -17.334 -4.5 -26.001l-15 -93.5l-21 -137.5c-0.666992 -6.66699 -1.5 -13.5 -2.5 -20.5s-2.16699 -14.167 -3.5 -21.5c-8.66699 -61.333 -16.334 -119.166 -23.001 -173.499s-10 -90.5 -10 -108.5v-4.5c0 -1.66699 0.333008 -3.16699 1 -4.5
c0.666992 -5.33301 2.16699 -10.333 4.5 -15s5.5 -7 9.5 -7c2.66699 0 5.5 0.5 8.5 1.5s5.83301 2.16699 8.5 3.5c4 2 7.83301 4.33301 11.5 7s7.16699 5.66699 10.5 9l10 8l9 7v1zM157.001 117c0 -3.33301 0.168945 -7.49902 0.501953 -12.499s0.833008 -10.167 1.5 -15.5
c1.33301 -7.33301 3.66602 -14.166 6.99902 -20.499s8.33301 -9.5 15 -9.5s13.5 3.83301 20.5 11.5s14.167 18.167 21.5 31.5c10 17.333 19.667 38.166 29 62.499s18 49.5 26 75.5c11.333 36 20.5 70.167 27.5 102.5s10.5 55.166 10.5 68.499c0 2 -0.833008 3.5 -2.5 4.5
s-5.16699 1.5 -10.5 1.5c-27.333 0 -46.333 -2.33301 -57 -7s-19.667 -13 -27 -25c-1.33301 -2 -2.66602 -4.33301 -3.99902 -7l-4 -8c-8.66699 -16.667 -16.334 -36 -23.001 -58s-12.334 -44.667 -17.001 -68c-4.66699 -24 -8.16699 -47.167 -10.5 -69.5
s-3.5 -41.833 -3.5 -58.5v1z" />
    <glyph glyph-name="e" unicode="e" horiz-adv-x="444" 
d="M392 152l15.9961 -20c-2.66699 -5.33301 -5.66699 -10.166 -9 -14.499s-7 -8.83301 -11 -13.5c-23.333 -30 -51.666 -57.5 -84.999 -82.5s-69 -37.5 -107 -37.5c-52.667 0 -94 15.833 -124 47.5s-45 73.5 -45 125.5c0 72.667 27.167 138.667 81.5 198
s113.833 97 178.5 113c10 2 19.667 3.66699 29 5s18.666 2 27.999 2c24.667 0 46.834 -6.66699 66.501 -20s29.5 -35 29.5 -65c0 -45.333 -18.667 -83.666 -56 -114.999s-78.333 -56.333 -123 -75c-17.333 -7.33301 -34.666 -13.5 -51.999 -18.5
s-33.666 -9.16699 -48.999 -12.5l-0.5 -1.5c-0.333008 -1 -0.5 -1.83301 -0.5 -2.5c-0.666992 -2.66699 -1.16699 -5.5 -1.5 -8.5s-0.5 -6.5 -0.5 -10.5c0 -4.66699 0.5 -10.834 1.5 -18.501s3.16699 -15.834 6.5 -24.501c4.66699 -12.667 13.167 -24.167 25.5 -34.5
s30.166 -15.5 53.499 -15.5c24.667 0 47.334 7.5 68.001 22.5s39.334 31.5 56.001 49.5c4 4 8 8.33301 12 13s8 9 12 13v1zM321.996 357c0 18.667 -5.16602 31.334 -15.499 38.001s-24.5 10 -42.5 10c-7.33301 0 -13.333 -0.833008 -18 -2.5s-9 -4.5 -13 -8.5l-1.5 -1.5
l-1.5 -1.5c-7.33301 -8.66699 -14.666 -21.834 -21.999 -39.501s-14 -36.5 -20 -56.5c-5.33301 -17.333 -9.83301 -33.833 -13.5 -49.5s-6.5 -28.5 -8.5 -38.5c8.66699 2 18 5.16699 28 9.5s20 9.5 30 15.5c19.333 12 37.666 26.333 54.999 43s29.666 34 36.999 52
c2 4.66699 3.5 9.5 4.5 14.5s1.5 9.83301 1.5 14.5v1z" />
    <glyph glyph-name="f" unicode="f" 
d="M52 430l4.00391 40.001h15c14.667 -0.666992 26.834 2.66602 36.501 9.99902s14.5 23 14.5 47c0 4.66699 -0.333008 9.5 -1 14.5s-1 9.83301 -1 14.5l-2 14.5c-0.666992 5 -1 9.83301 -1 14.5c0 48 17.167 82.833 51.5 104.5s72.166 34.167 113.499 37.5
c6 0.666992 11.667 1.16699 17 1.5s10.666 0.5 15.999 0.5h18c6 0 12 -0.333008 18 -1l-18 -82c-4.66699 -0.666992 -9.33398 -0.833984 -14.001 -0.500977s-9 0.5 -13 0.5c-4.66699 0.666992 -9.33398 1 -14.001 1h-14h-14c-5.33301 0 -11 -0.333008 -17 -1
c-10.667 -1.33301 -20.334 -4.16602 -29.001 -8.49902s-13 -11.833 -13 -22.5c0 -8 1.83301 -16.5 5.5 -25.5l12.5 -29.5c4 -10.667 7.83301 -23 11.5 -37s5.5 -30 5.5 -48l93 1l-4 -46h-96l-10 -67l-10 -66c-1.33301 -7.33301 -2.5 -14.833 -3.5 -22.5
s-2.16699 -15.5 -3.5 -23.5c-10 -72.667 -21 -145.167 -33 -217.5s-28.667 -143.5 -50 -213.5l-64 -10c-1.33301 18 -2.33301 33.667 -3 47l-2 39c0 10 -0.166992 20.167 -0.5 30.5s-0.5 21.5 -0.5 33.5c0 32.667 1.83301 70 5.5 112s8.16699 85 13.5 129l10 73.5l10 71.5
l7.5 43l6.5 40l-54 1v0z" />
    <glyph glyph-name="g" unicode="g" horiz-adv-x="500" 
d="M29 141c0 14.667 1.66895 30.5029 5.00195 47.5029s8 34.167 14 51.5c21.333 58.667 57.166 112.5 107.499 161.5s106.833 73.5 169.5 73.5c13.333 0 27.166 -1.66699 41.499 -5s28.833 -8 43.5 -14l52 33c-10 -63.333 -17.833 -124 -23.5 -182
s-11.167 -108.333 -16.5 -151c-2.66699 -23.333 -5.5 -44 -8.5 -62s-6.16699 -32.333 -9.5 -43c-3.33301 -10 -7.5 -20.333 -12.5 -31s-10.5 -21 -16.5 -31c-26.667 -46.667 -63 -89.5 -109 -128.5s-94 -59.167 -144 -60.5h-2h-2c-16.667 0 -32.5 2.16699 -47.5 6.5
s-29.5 9.16602 -43.5 14.499l31 101c10 -6.66699 21 -12.5 33 -17.5s24 -8.83301 36 -11.5c7.33301 -2 14.333 -3.33301 21 -4s13 -1 19 -1c32 0 56.167 12.167 72.5 36.5s31.166 71.166 44.499 140.499c3.33301 16 6.5 33.333 9.5 52l9.5 60l-3 2
c-3.33301 -11.333 -7.66602 -23.5 -12.999 -36.5s-11.333 -25.833 -18 -38.5c-15.333 -30.667 -34.5 -58.334 -57.5 -83.001s-50.5 -37 -82.5 -37c-28.667 0 -52.5 15 -71.5 45s-28.5 67 -28.5 111v1zM159.002 121.003l0.00390625 -7.49902v-6.5
c0.666992 -9.33301 2.66699 -17.666 6 -24.999s10.666 -11 21.999 -11c5.33301 0 10.666 1.66699 15.999 5s10.666 8.33301 15.999 15c12.667 14.667 25.334 36 38.001 64s24 57.333 34 88c12 36 21.833 70 29.5 102s11.5 53.333 11.5 64c0 2.66699 -0.5 4.66699 -1.5 6
s-2.83301 2 -5.5 2c-2 0 -7 -0.333008 -15 -1s-16.333 -1.66699 -25 -3c-8.66699 -2 -16.667 -4 -24 -6s-12.333 -4.66699 -15 -8c-2.66699 -2.66699 -5.33398 -6 -8.00098 -10s-5.33398 -8.33301 -8.00098 -13c-8 -14.667 -16 -32.834 -24 -54.501
s-15.333 -43.834 -22 -66.501c-7.33301 -27.333 -13.333 -53.333 -18 -78s-7 -43.667 -7 -57v1z" />
    <glyph glyph-name="h" unicode="h" horiz-adv-x="556" 
d="M511 79l14.999 -20.002c-4 -4 -8.66699 -8 -14 -12l-16 -12c-10 -6.66699 -20.5 -13.167 -31.5 -19.5s-22.167 -11.5 -33.5 -15.5c-10.667 -4.66699 -21.167 -8.5 -31.5 -11.5s-20.166 -4.5 -29.499 -4.5c-20 0 -33.833 7.16699 -41.5 21.5s-11.5 30.833 -11.5 49.5
c0 11.333 1.83301 29.166 5.5 53.499l11.5 76.5l2 10.5l2 10.5l11 60l8 44c0.666992 2.66699 1.16699 5.33398 1.5 8.00098s0.833008 5.66699 1.5 9l0.5 0.5c0.333008 0.333008 0.5 0.833008 0.5 1.5c1.33301 6 2.5 12 3.5 18s1.5 11.333 1.5 16s-1.33301 8.5 -4 11.5
s-6.66699 4.5 -12 4.5c-10.667 0 -23.167 -10.667 -37.5 -32s-28.833 -47.333 -43.5 -78c-6.66699 -13.333 -13.167 -27.166 -19.5 -41.499l-18.5 -43.5c-16.667 -39.333 -31.334 -76.666 -44.001 -111.999s-21 -59.333 -25 -72l-110 -16l64 466
c0.666992 4 1.33398 8.33301 2.00098 13l2 14c6 40.667 13.333 72 22 94s22.667 42 42 60l14.5 12l15.5 12c25.333 18.667 53 35.667 83 51s61 23 93 23l15 1l-22 -97c-3.33301 0 -6.66602 0.333008 -9.99902 1l-10 2c-6.66699 1.33301 -13.334 2.5 -20.001 3.5
s-13.334 1.5 -20.001 1.5c-21.333 0 -36.333 -6.16699 -45 -18.5s-15.667 -34.166 -21 -65.499l-55 -343l2 -2l24 51c9.33301 20 20 40.667 32 62c20.667 38 45.334 72.5 74.001 103.5s61 46.5 97 46.5c26 0 43.333 -6.83301 52 -20.5s13 -32.167 13 -55.5
c0 -15.333 -2.16699 -36.833 -6.5 -64.5s-9.16602 -56.5 -14.499 -86.5c-0.666992 -2.66699 -1.33398 -5.66699 -2.00098 -9s-1 -6.33301 -1 -9c-6.66699 -33.333 -12.5 -63.833 -17.5 -91.5s-7.5 -46.5 -7.5 -56.5c0 -7.33301 2 -12.833 6 -16.5s8 -5.83398 12 -6.50098
h1.5h1.5c2.66699 0 5.5 0.333008 8.5 1s5.83301 1.66699 8.5 3c3.33301 1.33301 6.33301 2.83301 9 4.5s5.33398 3.5 8.00098 5.5c2 0.666992 3.66699 1.5 5 2.5s2.66602 1.83301 3.99902 2.5v1z" />
    <glyph glyph-name="i" unicode="i" 
d="M250 83l14.002 -19.9971c-4.66699 -4.66699 -9.66699 -9.16699 -15 -13.5l-16 -12.5c-12 -9.33301 -25 -18 -39 -26s-28 -14.667 -42 -20c-6.66699 -2 -13.167 -3.66699 -19.5 -5s-12.833 -2 -19.5 -2c-20.667 0 -34.667 7 -42 21s-11.333 29.333 -12 46v1.5v1.5
c0 15.333 2.5 41.833 7.5 79.5l16.5 119.5v2v2l12 84.5c4 27 7 50.5 9 70.5c-4 -0.666992 -8.16699 -1.5 -12.5 -2.5s-8.83301 -1.83301 -13.5 -2.5s-9.16699 -1.5 -13.5 -2.5s-8.5 -1.83301 -12.5 -2.5l4 26c15.333 4.66699 30 9.5 44 14.5l41 14.5l37 13.5
c12 4.33301 24 9.16602 36 14.499c6 2 11.833 4.33301 17.5 7l17.5 8l-13 -74c-2 -12.667 -5 -33.167 -9 -61.5l-13 -91.5c-0.666992 -2.66699 -1.16699 -5.33398 -1.5 -8.00098s-0.5 -5.33398 -0.5 -8.00098c-6 -42 -11.333 -81.167 -16 -117.5s-7 -56.166 -7 -59.499
c0 -6.66699 1.66699 -11.834 5 -15.501s8.33301 -5.5 15 -5.5c2.66699 0 5.66699 0.666992 9 2s6.66602 3.33301 9.99902 6c1.33301 0.666992 2.83301 1.5 4.5 2.5s3.16699 1.83301 4.5 2.5l7.5 5.5c2.33301 1.66699 4.16602 3.16699 5.49902 4.5v1zM126.002 593.003
c0 2.66699 0.167969 5.83301 0.500977 9.5s0.833008 7.16699 1.5 10.5c3.33301 20.667 12 39.667 26 57s32.667 26 56 26c24 0 40.667 -5.66699 50 -17s14 -25.333 14 -42v-1.5v-1.5c-0.666992 -27.333 -9.16699 -52.5 -25.5 -75.5s-37.833 -34.5 -64.5 -34.5
c-16 0 -28.833 5.66699 -38.5 17s-15.834 24 -18.501 38c0 2 -0.166992 4.16699 -0.5 6.5s-0.5 4.5 -0.5 6.5v1z" />
    <glyph glyph-name="j" unicode="j" 
d="M134 -180l-69 -9.99902c-2 22.667 -3.66699 45 -5 67s-2 43.667 -2 65c0 12.667 0.166992 25.167 0.5 37.5s0.833008 24.5 1.5 36.5c0.666992 12.667 1.5 25.167 2.5 37.5s2.16699 24.833 3.5 37.5l38 322c-4 -1.33301 -8.16699 -2.5 -12.5 -3.5
s-8.83301 -1.83301 -13.5 -2.5s-9.16699 -1.5 -13.5 -2.5s-8.5 -1.83301 -12.5 -2.5l4 26c15.333 4.66699 30 9.5 44 14.5l41 14.5l37 13.5c12 4.33301 24 9.16602 36 14.499c6 2 11.833 4.33301 17.5 7l17.5 8l-13 -74c-6 -36 -11.5 -71.5 -16.5 -106.5l-14.5 -105.5
c-4 -32 -8.33301 -64 -13 -96s-9.66699 -64.333 -15 -97s-11.5 -66 -18.5 -100s-15.167 -67.667 -24.5 -101v0zM126 593.001c0 2.66699 0.167969 5.83301 0.500977 9.5s0.833008 7.16699 1.5 10.5c3.33301 20.667 12 39.667 26 57s32.667 26 56 26
c24 0 40.667 -5.66699 50 -17s14 -25.333 14 -42v-1.5v-1.5c-0.666992 -27.333 -9.16699 -52.5 -25.5 -75.5s-37.833 -34.5 -64.5 -34.5c-16 0 -28.833 5.66699 -38.5 17s-15.834 24 -18.501 38c0 2 -0.166992 4.16699 -0.5 6.5s-0.5 4.5 -0.5 6.5v1z" />
    <glyph glyph-name="k" unicode="k" horiz-adv-x="500" 
d="M386 730l-26.0039 -94.0039c-8.66699 0.666992 -17.5 1.66699 -26.5 3s-18.167 2 -27.5 2c-25.333 0 -42 -9.83301 -50 -29.5s-14.333 -44.5 -19 -74.5c-0.666992 -5.33301 -1.5 -10.833 -2.5 -16.5s-1.83301 -11.167 -2.5 -16.5l-40 -262h2c6 12 12.5 25.833 19.5 41.5
s14.5 31.5 22.5 47.5c18.667 36 41 69 67 99s58.333 45 97 45c24.667 0 45.667 -7.66699 63 -23s26 -35.333 26 -60c0 -36.667 -13.667 -69.167 -41 -97.5s-57.333 -50.833 -90 -67.5l-4 -2l-4 -2c14.667 -47.333 26.334 -82 35.001 -104s17 -37 25 -45
c3.33301 -3.33301 7 -5.66602 11 -6.99902s8 -2 12 -2c6.66699 0 13 1.33301 19 4s11.333 6 16 10c1.33301 1.33301 2.83301 2.5 4.5 3.5s3.16699 2.16699 4.5 3.5l15 -16c-4 -4.66699 -8.16699 -9.16699 -12.5 -13.5l-12.5 -12.5
c-16.667 -15.333 -35.167 -29.166 -55.5 -41.499s-41.166 -18.5 -62.499 -18.5s-38.666 10.833 -51.999 32.5s-24 45.834 -32 72.501c-5.33301 18 -9.83301 35.167 -13.5 51.5s-7.16699 29.5 -10.5 39.5c16.667 12.667 32.334 27.667 47.001 45s27.667 35 39 53
c11.333 18.667 20.5 37 27.5 55s10.5 33.333 10.5 46v5c0 2 -0.333008 3.66699 -1 5c-0.666992 4 -2 7.66699 -4 11s-5.66699 5 -11 5c-4.66699 0 -9.5 -1 -14.5 -3s-9.83301 -5 -14.5 -9c-19.333 -14.667 -38.5 -40.667 -57.5 -78s-36.167 -77 -51.5 -119
c-15.333 -41.333 -28.333 -80.666 -39 -117.999s-17.667 -63.333 -21 -78l-106 -16l59 476c7.33301 56.667 18.666 98 33.999 124s34 48.667 56 68c0 0.666992 0.333008 1.16699 1 1.5s1.33398 0.833008 2.00098 1.5c25.333 22 52.333 39.833 81 53.5s64.667 20.5 108 20.5
v1z" />
    <glyph glyph-name="l" unicode="l" 
d="M256 96l15 -20.999l-23.5 -18.5l-28.5 -21.5l-20.5 -14.5c-7 -5 -14.167 -9.5 -21.5 -13.5c-12 -6 -23.833 -11.333 -35.5 -16s-22.5 -7 -32.5 -7c-24 0 -39.5 8 -46.5 24s-10.5 34 -10.5 54c0 15.333 3.33301 52.833 10 112.5s14.334 123.834 23.001 192.501
c0.666992 9.33301 1.66699 18.833 3 28.5l4 28.5c6.66699 54.667 13.334 104.5 20.001 149.5s11.667 75.833 15 92.5c-6 -0.666992 -11.833 -1.5 -17.5 -2.5s-11.167 -1.83301 -16.5 -2.5c-5.33301 -1.33301 -10.833 -2.33301 -16.5 -3s-11.5 -1.66699 -17.5 -3l4 26
c8 2 16 4.16699 24 6.5l23 6.5l12 4l12 4l71.5 22.5c23.667 7.66699 47.167 15.834 70.5 24.501l-6 -26c-2 -8.66699 -3.66699 -17.334 -5 -26.001c-2 -8.66699 -3.83301 -17.334 -5.5 -26.001s-3.16699 -17.334 -4.5 -26.001
c-2.66699 -14.667 -7.33398 -45.167 -14.001 -91.5l-22 -152.5l-2 -15.5l-2 -15.5c-8.66699 -62.667 -16.334 -121 -23.001 -175s-10 -88 -10 -102c0 -8.66699 1.66699 -15.5 5 -20.5s8 -7.5 14 -7.5c3.33301 0 7.33301 1 12 3s9.33398 4.66699 14.001 8
c1.33301 0.666992 2.66602 1.5 3.99902 2.5s2.66602 1.83301 3.99902 2.5l11.5 8c3.66699 2.66699 6.83398 4.66699 9.50098 6v1z" />
    <glyph glyph-name="m" unicode="m" horiz-adv-x="779" 
d="M52 -16l58.9961 429c-4 -1.33301 -8.16699 -2.5 -12.5 -3.5s-8.83301 -1.83301 -13.5 -2.5s-9.16699 -1.5 -13.5 -2.5s-8.5 -1.83301 -12.5 -2.5l4 26c15.333 4.66699 30 9.5 44 14.5l41 14.5l37 13.5c12 4.33301 24 9.16602 36 14.499c6 2 11.833 4.33301 17.5 7l17.5 8
l-45 -244h2l20 42.5c8 17 17.667 34.833 29 53.5c18.667 30.667 40.834 58.834 66.501 84.501s53.167 38.5 82.5 38.5c23.333 0 40 -4.83301 50 -14.5s15 -26.167 15 -49.5c0 -8 -1.16699 -20.667 -3.5 -38s-5.16602 -35.666 -8.49902 -54.999
c-0.666992 -2.66699 -1.16699 -5.33398 -1.5 -8.00098s-0.833008 -5.33398 -1.5 -8.00098c-2 -14 -4.16699 -27.167 -6.5 -39.5s-4.16602 -22.5 -5.49902 -30.5l2 -1c4.66699 12.667 11.167 28.334 19.5 47.001s17.833 37.667 28.5 57c19.333 35.333 42.333 67.5 69 96.5
s55.334 43.5 86.001 43.5c26 0 43.333 -6.83301 52 -20.5s13 -32.167 13 -55.5c0 -15.333 -2.16699 -36.833 -6.5 -64.5s-9.16602 -56.5 -14.499 -86.5c-0.666992 -2.66699 -1.33398 -5.66699 -2.00098 -9s-1.33398 -6.33301 -2.00098 -9l-16.5 -91.5
c-5 -27.667 -7.5 -46.5 -7.5 -56.5c0 -7.33301 2 -12.833 6 -16.5s8 -5.83398 12 -6.50098h1.5h1.5c2.66699 0 5.5 0.333008 8.5 1s5.83301 1.66699 8.5 3c3.33301 1.33301 6.33301 2.83301 9 4.5s5.33398 3.5 8.00098 5.5c2 0.666992 3.66699 1.5 5 2.5
s2.66602 1.83301 3.99902 2.5l15 -19c-4 -4 -8.66699 -8 -14 -12l-16 -12c-10 -6.66699 -20.5 -13.167 -31.5 -19.5s-22.167 -11.5 -33.5 -15.5c-10.667 -4.66699 -21.167 -8.5 -31.5 -11.5s-20.166 -4.5 -29.499 -4.5c-17.333 0 -29.833 5.33301 -37.5 16
s-12.5 22.667 -14.5 36c0 3.33301 -0.166992 6.5 -0.5 9.5s-0.5 5.83301 -0.5 8.5c0 10.667 1.83301 29.5 5.5 56.5s8.16699 55.5 13.5 85.5c0 3.33301 0.333008 6.33301 1 9l2 8l14.5 89.5c4.33301 26.333 6.5 40.833 6.5 43.5c0 6 -1 11.333 -3 16s-5.66699 7 -11 7
c-6.66699 0 -12.667 -3.5 -18 -10.5s-10 -14.833 -14 -23.5c-2 -2.66699 -3.66699 -5.33398 -5 -8.00098l-4 -8c-8 -14 -18.333 -35.167 -31 -63.5s-25.667 -59.5 -39 -93.5l-10 -25l-10 -25l-21.5 -58.5c-7 -19 -13.167 -36.833 -18.5 -53.5l-104 -16l34 277
c0.666992 2.66699 1.16699 5.83398 1.5 9.50098s0.833008 7.5 1.5 11.5c0 2 0.166992 4.33301 0.5 7s0.833008 5 1.5 7c2 12 3.66699 23 5 33s2 16.667 2 20c0 5.33301 -0.833008 10 -2.5 14s-5.16699 6 -10.5 6h-2.5c-1 0 -1.83301 -0.333008 -2.5 -1
c-8.66699 -1.33301 -18.167 -9.66602 -28.5 -24.999s-25.833 -43 -46.5 -83c-12.667 -24.667 -24.5 -54.167 -35.5 -88.5s-21.5 -69.833 -31.5 -106.5l-8.5 -33l-8.5 -32l-111 -16v0z" />
    <glyph glyph-name="n" unicode="n" horiz-adv-x="556" 
d="M52 -16l59.002 429.003c-4 -1.33301 -8.16699 -2.5 -12.5 -3.5s-8.83301 -1.83301 -13.5 -2.5s-9.16699 -1.5 -13.5 -2.5s-8.5 -1.83301 -12.5 -2.5l4 26c15.333 4.66699 30 9.5 44 14.5l41 14.5l37 13.5c12 4.33301 24 9.16602 36 14.499c6 2 11.833 4.33301 17.5 7
l17.5 8l-44 -279h2l19.5 47.5c7.66699 18.333 16.5 37.166 26.5 56.499c20 37.333 44.167 71.666 72.5 102.999s61.166 47 98.499 47c26 0 43.333 -6.83301 52 -20.5s13 -32.167 13 -55.5c0 -15.333 -2.16699 -36.833 -6.5 -64.5s-9.16602 -56.5 -14.499 -86.5
c-0.666992 -2.66699 -1.33398 -5.66699 -2.00098 -9s-1 -6.33301 -1 -9c-6.66699 -33.333 -12.5 -63.833 -17.5 -91.5s-7.5 -46.5 -7.5 -56.5c0 -7.33301 2 -12.833 6 -16.5s8 -5.83398 12 -6.50098h1.5h1.5c2.66699 0 5.5 0.333008 8.5 1s5.83301 1.66699 8.5 3
c3.33301 1.33301 6.33301 2.83301 9 4.5s5.33398 3.5 8.00098 5.5c2 0.666992 3.66699 1.5 5 2.5s2.66602 1.83301 3.99902 2.5l15 -19c-4 -4 -8.66699 -8 -14 -12l-16 -12c-10 -6.66699 -20.5 -13.167 -31.5 -19.5s-22.167 -11.5 -33.5 -15.5
c-10.667 -4.66699 -21.167 -8.5 -31.5 -11.5s-20.166 -4.5 -29.499 -4.5c-16.667 0 -28.834 5.16699 -36.501 15.5s-12.5 21.833 -14.5 34.5c-0.666992 3.33301 -1.16699 6.66602 -1.5 9.99902s-0.5 6.66602 -0.5 9.99902c0 12 1.66699 30 5 54s7.33301 49.333 12 76l2 11.5
l2 10.5l11 60l8 44c0.666992 2.66699 1.16699 5.33398 1.5 8.00098s0.833008 5.66699 1.5 9l0.5 0.5c0.333008 0.333008 0.5 0.833008 0.5 1.5c1.33301 6 2.5 12 3.5 18s1.5 11.333 1.5 16s-1.33301 8.5 -4 11.5s-6.66699 4.5 -12 4.5c-10.667 0 -23.167 -10.667 -37.5 -32
s-28.833 -47.333 -43.5 -78c-6.66699 -13.333 -13.167 -27.166 -19.5 -41.499l-18.5 -43.5c-16.667 -39.333 -31.334 -76.666 -44.001 -111.999s-21 -59.333 -25 -72l-110 -16v0z" />
    <glyph glyph-name="o" unicode="o" horiz-adv-x="444" 
d="M27 154c0 78.667 21 146.667 63 204s88.333 93.666 139 108.999c8 2.66699 16 4.66699 24 6s16 2 24 2c53.333 0 90 -16.667 110 -50s30 -73.666 30 -120.999c0 -15.333 -1.5 -31.5 -4.5 -48.5s-7.16699 -34.167 -12.5 -51.5
c-17.333 -55.333 -46.833 -105.833 -88.5 -151.5s-90.5 -68.5 -146.5 -68.5c-50 0 -85.5 17 -106.5 51s-31.5 73.333 -31.5 118v1zM157 147l0.00292969 -14.998c0 -4.66699 0.333008 -9.33398 1 -14.001c2 -19.333 6.66699 -37 14 -53s20.666 -24 39.999 -24
c5.33301 0 10.166 1.16699 14.499 3.5s8.16602 6.16602 11.499 11.499c2.66699 4.66699 5.83398 14.667 9.50098 30s7.5 33.666 11.5 54.999c2 9.33301 3.83301 19.166 5.5 29.499s3.16699 20.5 4.5 30.5c5.33301 30.667 9.66602 59.334 12.999 86.001s5 45 5 55v7.5
c0 2.33301 -0.333008 4.83301 -1 7.5c-1.33301 15.333 -5.33301 29.166 -12 41.499s-18 18.5 -34 18.5c-7.33301 0 -13.833 -2.5 -19.5 -7.5s-10.167 -11.167 -13.5 -18.5c-0.666992 -2 -1.5 -4.16699 -2.5 -6.5s-1.83301 -4.83301 -2.5 -7.5
c-4.66699 -14 -9.33398 -30 -14.001 -48s-9 -36.333 -13 -55c-5.33301 -25.333 -9.66602 -49.666 -12.999 -72.999s-5 -41.666 -5 -54.999v1z" />
    <glyph glyph-name="p" unicode="p" horiz-adv-x="500" 
d="M121 -210l-65.999 -10.002c-0.666992 6 -1.16699 11.833 -1.5 17.5s-0.833008 11.167 -1.5 16.5c0 9.33301 -0.166992 18.833 -0.5 28.5s-0.5 20.167 -0.5 31.5c0 30 1.33301 65.167 4 105.5s6.33398 81.833 11.001 124.5l4 34l4 33l32 242
c-2.66699 -1.33301 -5.83398 -2.33301 -9.50098 -3l-10.5 -2c-2.66699 -0.666992 -5.33398 -1.16699 -8.00098 -1.5s-5 -0.833008 -7 -1.5c-3.33301 -0.666992 -6.5 -1.16699 -9.5 -1.5s-6.16699 -0.833008 -9.5 -1.5l4 26c14 2.66699 27.833 6.33398 41.5 11.001
s27.167 9.66699 40.5 15c17.333 6.66699 34.5 13.834 51.5 21.501l52.5 24.5l2 1l-29 -200h2l14.5 33c5.66699 13.333 12.167 27 19.5 41c14 24.667 31 47.5 51 68.5s43 31.5 69 31.5c35.333 0 61.833 -13.167 79.5 -39.5s27.5 -55.5 29.5 -87.5
c0.666992 -2 1 -4.33301 1 -7v-8c0 -16 -1.5 -32.5 -4.5 -49.5s-7.5 -34.167 -13.5 -51.5c-21.333 -62 -57 -118.833 -107 -170.5s-103.667 -77.5 -161 -77.5h-3.5h-3.5l-10 2c-3.33301 0.666992 -6 1.66699 -8 3l-49 -199v0zM225.001 47.998
c20.667 -0.666992 39.333 14.666 56 45.999s30.667 66 42 104c8.66699 30 15.5 58.333 20.5 85s7.5 45.667 7.5 57v1.5v1.5c0 10.667 -2.16699 20.667 -6.5 30s-12.833 14 -25.5 14c-5.33301 0 -11 -2.5 -17 -7.5s-12.333 -11.833 -19 -20.5
c-10 -14.667 -20.167 -33.5 -30.5 -56.5s-19.5 -47.167 -27.5 -72.5c-11.333 -31.333 -20.333 -61.166 -27 -89.499s-10 -47.833 -10 -58.5s3.66699 -19.167 11 -25.5s16 -9.5 26 -9.5v1z" />
    <glyph glyph-name="q" unicode="q" horiz-adv-x="500" 
d="M260 -220l-0.000976562 127.999c0 26.667 1.83301 59.834 5.5 99.501s11.834 89.5 24.501 149.5l-2 3c-2.66699 -10 -6.33398 -20.5 -11.001 -31.5s-9.66699 -22.167 -15 -33.5c-14 -28 -32.167 -53.5 -54.5 -76.5s-48.166 -34.5 -77.499 -34.5
c-31.333 0 -54.5 11.333 -69.5 34s-24.833 47.667 -29.5 75c-1.33301 8.66699 -2.33301 17.5 -3 26.5s-1 17.5 -1 25.5c0 17.333 2.5 35.666 7.5 54.999s11.833 39 20.5 59c24.667 54 61 103.5 109 148.5s99 67.5 153 67.5c18.667 0 35.667 -1.83301 51 -5.5
s30.333 -8.16699 45 -13.5l51 33l-17 -118l-26 -173c-1.33301 -7.33301 -2.5 -14.5 -3.5 -21.5s-2.16699 -14.167 -3.5 -21.5c-10 -62.667 -19.5 -119.167 -28.5 -169.5s-15.5 -81.166 -19.5 -92.499l-42 -113h-64v0zM327.999 401.999c0 2.66699 -2.5 4.83398 -7.5 6.50098
s-15.5 2.5 -31.5 2.5c-11.333 0 -22.333 -2.83301 -33 -8.5s-20 -15.834 -28 -30.501c-8.66699 -14.667 -16.5 -31.167 -23.5 -49.5s-13.167 -36.833 -18.5 -55.5c-10 -34.667 -17.333 -67.5 -22 -98.5s-7 -51.833 -7 -62.5c0 -11.333 2 -20 6 -26s10.333 -9 19 -9
c4.66699 0 9.16699 1.16699 13.5 3.5s8.83301 5.5 13.5 9.5c14.667 14 28.834 35.5 42.501 64.5s26.167 59.5 37.5 91.5c11.333 34.667 20.666 67.167 27.999 97.5s11 51.5 11 63.5v1z" />
    <glyph glyph-name="r" unicode="r" horiz-adv-x="389" 
d="M430 476l-30.999 -129.999c-6.66699 0.666992 -13.5 1.66699 -20.5 3s-14.167 2 -21.5 2c-31.333 0 -58.333 -19 -81 -57s-41.667 -80 -57 -126c-12 -34.667 -21.833 -67.834 -29.5 -99.501s-13.834 -54.5 -18.501 -68.5l-119 -16l59 429
c-4 -1.33301 -8.16699 -2.5 -12.5 -3.5s-8.83301 -1.83301 -13.5 -2.5s-9.16699 -1.5 -13.5 -2.5s-8.5 -1.83301 -12.5 -2.5l4 26c15.333 4.66699 30 9.5 44 14.5l41 14.5l37 13.5c12 4.33301 24 9.16602 36 14.499c6 2 11.833 4.33301 17.5 7l17.5 8l-45 -255h2l26 65.5
l23 56.5c15.333 34.667 32 61.334 50 80.001s41.333 28 70 28l48 1v0z" />
    <glyph glyph-name="s" unicode="s" horiz-adv-x="389" 
d="M16 18l26.0059 122.004c27.333 -19.333 55.5 -35.666 84.5 -48.999s60.5 -20 94.5 -20c2 0 4.16699 0.166992 6.5 0.5s4.5 0.5 6.5 0.5c9.33301 2 18 5.66699 26 11s12 13 12 23c0 9.33301 -8.16699 18.5 -24.5 27.5s-34.5 17.167 -54.5 24.5
c-4.66699 2 -9.33398 3.83301 -14.001 5.5s-9.33398 3.5 -14.001 5.5l-19 7.5l-17 6.5c-28.667 12.667 -50 26.5 -64 41.5s-21 36.5 -21 64.5c0 46 19.667 86 59 120s82.666 55 129.999 63l18.5 2c6.33301 0.666992 12.5 1 18.5 1c17.333 0 33.166 -1.66699 47.499 -5
s28.5 -8 42.5 -14l-27 -118c-16.667 7.33301 -34.167 14.333 -52.5 21s-36.833 11.667 -55.5 15c-8.66699 1.33301 -17.167 2.5 -25.5 3.5s-16.5 1.5 -24.5 1.5c-2.66699 0 -6.33398 -0.166992 -11.001 -0.5s-9.33398 -1.16602 -14.001 -2.49902
c-7.33301 -1.33301 -14.166 -4 -20.499 -8s-9.5 -9.66699 -9.5 -17c0 -2.66699 0.666992 -5.33398 2 -8.00098s3.33301 -5.33398 6 -8.00098c8 -7.33301 20.667 -14.833 38 -22.5l65 -28.5c29.333 -12.667 56.166 -26.834 80.499 -42.501s36.5 -38.167 36.5 -67.5
c0 -56.667 -19.833 -101.334 -59.5 -134.001s-83.5 -51 -131.5 -55c-3.33301 -0.666992 -6.83301 -1 -10.5 -1h-10.5c-5.33301 0 -10.833 0.166992 -16.5 0.5s-11.167 1.16602 -16.5 2.49902c-17.333 2 -33.833 5.66699 -49.5 11s-28.167 11.666 -37.5 18.999v1z" />
    <glyph glyph-name="t" unicode="t" horiz-adv-x="333" 
d="M341 476l-8.99805 -46.001h-99l-33 -250l-5.5 -45c-1.66699 -14 -2.5 -26 -2.5 -36v-5.5c0 -1.66699 0.333008 -3.5 1 -5.5c1.33301 -7.33301 4.16602 -14 8.49902 -20s10.5 -9 18.5 -9c13.333 0 25.666 4.33301 36.999 13s22 18.334 32 29.001l14 14l13 13l16 -15
l-21.5 -25l-23.5 -27c-18 -19.333 -37.833 -37 -59.5 -53s-44.5 -24 -68.5 -24c-34 0 -58.667 11.167 -74 33.5s-23 49.5 -23 81.5c0 10.667 0.5 21.167 1.5 31.5s2.16699 20.833 3.5 31.5l33 268h-61l6 46h62l17 126l140 54l-24 -180h101v0z" />
    <glyph glyph-name="u" unicode="u" horiz-adv-x="556" 
d="M535 90l16.001 -16.001l-14.5 -14l-15.5 -14c-14 -12.667 -29.5 -24.5 -46.5 -35.5s-34.167 -18.5 -51.5 -22.5c-4 -1.33301 -8.33301 -2.33301 -13 -3s-9 -1 -13 -1c-22 0 -37.833 7.66699 -47.5 23s-15.834 32.333 -18.501 51
c-0.666992 4.66699 -1.16699 9.66699 -1.5 15s-0.5 10.333 -0.5 15c0 21.333 1.66699 42.333 5 63s7 41.334 11 62.001l2 10.5l2 11.5l-2 3l-18 -50.5c-6.66699 -19 -14.334 -38.5 -23.001 -58.5c-15.333 -36.667 -34.666 -70 -57.999 -100s-52.333 -45 -87 -45
c-30.667 0 -52.167 10.833 -64.5 32.5s-19.166 45.5 -20.499 71.5v4v4c0 18 1.5 41.167 4.5 69.5s6.5 57.5 10.5 87.5c0.666992 4.66699 1.16699 9.33398 1.5 14.001s0.833008 9.33398 1.5 14.001l10 73c3.33301 23.333 5.66602 42.666 6.99902 57.999
c-1.33301 0 -2.66602 -0.166992 -3.99902 -0.5s-3 -0.5 -5 -0.5l-12.5 -2l-12.5 -2c-5.33301 -0.666992 -10.666 -1.5 -15.999 -2.5s-10 -1.83301 -14 -2.5l4 26c18 4.66699 34.667 9.5 50 14.5l45 14.5c16 5.33301 31.333 10.833 46 16.5l44 17.5
c3.33301 1.33301 6.66602 2.83301 9.99902 4.5s6.66602 3.16699 9.99902 4.5c-2.66699 -22 -6 -46.167 -10 -72.5s-8.33301 -53.5 -13 -81.5l-2 -13.5l-2 -12.5c-6 -38.667 -11.333 -76.5 -16 -113.5s-7 -68.833 -7 -95.5v-1.5v-1.5c0 -6 1.5 -11.5 4.5 -16.5
s8.16699 -7.5 15.5 -7.5c8.66699 0 18.667 8.83301 30 26.5s23 39.834 35 66.501c6.66699 15.333 13.334 31.666 20.001 48.999l20 53c14 40 25.833 77.833 35.5 113.5s15.167 59.834 16.5 72.501l126 24l-10 -67l-13 -86c-0.666992 -6.66699 -1.5 -13.334 -2.5 -20.001
s-2.16699 -13.334 -3.5 -20.001c-5.33301 -40.667 -10.166 -79.5 -14.499 -116.5s-6.5 -65.5 -6.5 -85.5c0 -12 1.83301 -20.833 5.5 -26.5s10.167 -8.5 19.5 -8.5c7.33301 0 13.833 2 19.5 6l17.5 13c0.666992 0.666992 1.66699 1.5 3 2.5s2.33301 1.83301 3 2.5
c1.33301 1.33301 2.66602 2.5 3.99902 3.5s2.66602 1.83301 3.99902 2.5v1z" />
    <glyph glyph-name="v" unicode="v" horiz-adv-x="444" 
d="M205 -10l-71.9971 -6.00098c-2 10 -3.83301 19.667 -5.5 29s-3.16699 18.666 -4.5 27.999c-11.333 64 -20.833 127.167 -28.5 189.5s-11.834 122.833 -12.501 181.5c-3.33301 -0.666992 -6.83301 -1.5 -10.5 -2.5s-7.16699 -1.83301 -10.5 -2.5
c-4 -0.666992 -7.83301 -1.5 -11.5 -2.5s-7.16699 -1.83301 -10.5 -2.5l3 26c29.333 9.33301 58.166 20 86.499 32s56.166 25.333 83.499 40c0 -4.66699 -0.166992 -9.66699 -0.5 -15s-0.5 -10.333 -0.5 -15v-15.5v-15.5c0 -39.333 1.16699 -80 3.5 -122s5.5 -84 9.5 -126
c1.33301 -16.667 2.83301 -33.5 4.5 -50.5s3.5 -33.833 5.5 -50.5l2 1l16.5 26.5c6.33301 10.333 12.833 21.833 19.5 34.5l16 33c5.33301 11.333 10.333 23 15 35c6.66699 16.667 12.167 33.334 16.5 50.001s6.5 31.667 6.5 45c0 15.333 -3.5 28 -10.5 38
s-15.833 19.333 -26.5 28c-2 1.33301 -3.83301 2.83301 -5.5 4.5s-3.5 3.16699 -5.5 4.5l78 111c19.333 -9.33301 36.833 -22.166 52.5 -38.499s23.5 -35.833 23.5 -58.5c0 -23.333 -7.83301 -52.833 -23.5 -88.5s-34.834 -72.167 -57.501 -109.5l-21 -36
c-7.33301 -12 -15 -23.667 -23 -35c-19.333 -30 -38.166 -57.833 -56.499 -83.5s-33.5 -46.167 -45.5 -61.5v0z" />
    <glyph glyph-name="w" unicode="w" horiz-adv-x="667" 
d="M39 403v24.9961c27.333 8 54.166 17.5 80.499 28.5l78.5 33.5l11.5 5.5c3.66699 1.66699 7.5 3.16699 11.5 4.5c-1.33301 -17.333 -2.5 -34.666 -3.5 -51.999s-2.16699 -34.666 -3.5 -51.999l-2 -52c-0.666992 -17.333 -1 -34.666 -1 -51.999
c0 -29.333 0.5 -58.333 1.5 -87s2.5 -56 4.5 -82l2 1l6.5 15.5l7.5 17.5c19.333 48.667 38 98.5 56 149.5s33.333 103.833 46 158.5l95 24l-2 -50.5l-2 -48.5c-0.666992 -16.667 -1 -33.167 -1 -49.5v-49.5c0 -29.333 1.5 -58.666 4.5 -87.999s6.5 -58.333 10.5 -87
c0 -3.33301 0.166992 -6.66602 0.5 -9.99902s0.833008 -6.66602 1.5 -9.99902c5.33301 7.33301 11.166 15.833 17.499 25.5s12.833 20.167 19.5 31.5l16 29c5.33301 10 10.333 20 15 30c9.33301 21.333 17.333 41.666 24 60.999s10 35.666 10 48.999
c0 17.333 -6.33301 33.833 -19 49.5s-26.667 26.5 -42 32.5l94 97c21.333 -12 38.833 -26.833 52.5 -44.5s20.5 -38.834 20.5 -63.501c0 -20 -9.5 -48 -28.5 -84s-41.5 -74 -67.5 -114l-15.5 -23.5l-15.5 -23.5l-67 -94l-48 -64l-74 -6l-6 40l-6 40
c-4 28 -7.16699 56.833 -9.5 86.5s-4.16602 62.5 -5.49902 98.5l-2 1l-102 -260l-90 -6l-6 41.5c-2 14.333 -3.66699 28.833 -5 43.5c-5.33301 50.667 -9.16602 100.334 -11.499 149.001s-3.5 91.667 -3.5 129v66c-4 -1.33301 -8 -2.5 -12 -3.5s-8 -1.83301 -12 -2.5
s-8 -1.5 -12 -2.5s-8 -1.83301 -12 -2.5v1z" />
    <glyph glyph-name="x" unicode="x" horiz-adv-x="444" 
d="M74 -10l-87.9951 -5.99902c9.33301 10.667 19.333 23.167 30 37.5l34 44.5l66 86.5c20 26.333 30 40.5 30 42.5c0 3.33301 -0.833008 7.83301 -2.5 13.5s-4.83398 15.834 -9.50098 30.501c-2 5.33301 -4.66699 15.166 -8 29.499l-11 47.5
c-0.666992 2.66699 -1.33398 5.16699 -2.00098 7.5s-1 4.5 -1 6.5c-4 16 -7.5 31.5 -10.5 46.5s-5.16699 26.833 -6.5 35.5c-4 -0.666992 -7.83301 -1.5 -11.5 -2.5s-7.5 -1.83301 -11.5 -2.5s-7.83301 -1.5 -11.5 -2.5s-7.5 -1.83301 -11.5 -2.5l-11 26
c13.333 3.33301 28.166 7.83301 44.499 13.5s33.166 12.167 50.499 19.5l38.5 18.5c13 6.33301 25.167 13.166 36.5 20.499l4 -25.5c1.33301 -8.33301 3 -16.5 5 -24.5c0 -2.66699 0.333008 -5.5 1 -8.5s1 -5.83301 1 -8.5l12.5 -66.5
c4.33301 -22.333 9.83301 -45.833 16.5 -70.5c15.333 20 29.333 40.667 42 62l37 64c1.33301 2 2.5 4 3.5 6s2.16699 4 3.5 6l9.5 15.5c3 5 5.83301 10.167 8.5 15.5l100 11l-91.5 -109.5l-89.5 -114.5c-0.666992 -0.666992 -1.16699 -1.5 -1.5 -2.5
s-0.5 -1.83301 -0.5 -2.5c-0.666992 -2 -1 -3.66699 -1 -5v-3c0 -6 2.16699 -15.5 6.5 -28.5s9.5 -26.5 15.5 -40.5c1.33301 -3.33301 2.66602 -6.33301 3.99902 -9l4 -8c6 -14 11.667 -26.333 17 -37s9 -17.334 11 -20.001c4 -4.66699 8.5 -8.66699 13.5 -12
s10.5 -5 16.5 -5c9.33301 0 17.5 3.5 24.5 10.5s13.833 14.5 20.5 22.5c0.666992 2 1.5 3.66699 2.5 5s2.16699 2.66602 3.5 3.99902l12 18l16 -20l-28 -42c-0.666992 -2 -1.5 -3.66699 -2.5 -5s-1.83301 -2.66602 -2.5 -3.99902
c-14.667 -21.333 -30.667 -40.666 -48 -57.999s-39 -26 -65 -26c-24.667 0 -45.167 9.83301 -61.5 29.5s-29.833 41.5 -40.5 65.5c-4.66699 11.333 -9 22.333 -13 33l-11 29l-22 -36.5l-22 -37.5c-8 -12.667 -15.667 -25.5 -23 -38.5l-22 -38.5v0z" />
    <glyph glyph-name="y" unicode="y" horiz-adv-x="500" 
d="M458 489l-48.0029 -381.003c-4.66699 -35.333 -11.167 -66.5 -19.5 -93.5s-21.833 -53.5 -40.5 -79.5c-8 -12 -17.333 -23.833 -28 -35.5s-22.667 -23.5 -36 -35.5c-25.333 -23.333 -50.166 -39.833 -74.499 -49.5s-47.166 -14.5 -68.499 -14.5
c-4.66699 0 -9.16699 0.166992 -13.5 0.5s-8.83301 0.833008 -13.5 1.5c-11.333 1.33301 -22.5 3.5 -33.5 6.5s-21.5 6.83301 -31.5 11.5l23 104c16.667 -7.33301 33.834 -13.833 51.501 -19.5s35.5 -8.5 53.5 -8.5c29.333 0.666992 50 5.33398 62 14.001s20.333 27 25 55
l43 253h-2l-14.5 -47c-5.66699 -18 -12.5 -36.333 -20.5 -55c-13.333 -33.333 -30 -63.666 -50 -90.999s-44 -41 -72 -41c-24 0 -42.333 6.66699 -55 20s-21.334 28.333 -26.001 45c-3.33301 9.33301 -5.5 18.666 -6.5 27.999s-1.5 17 -1.5 23
c0 17.333 1.83301 40.166 5.5 68.499l11.5 90.5l2 15.5l2 15.5c2.66699 21.333 5.16699 42.5 7.5 63.5s3.83301 40.5 4.5 58.5l-49 -9l4 24c31.333 8 62.666 18.333 93.999 31s62 26.667 92 42c-2 -17.333 -4.83301 -38.333 -8.5 -63l-11.5 -78
c-0.666992 -6 -1.5 -12 -2.5 -18s-1.83301 -12.333 -2.5 -19l-13 -110c-4 -35.333 -6 -62.666 -6 -81.999v-7.5c0 -3 0.333008 -5.83301 1 -8.5c0.666992 -6.66699 2.16699 -12.5 4.5 -17.5s6.5 -7.5 12.5 -7.5c8 0 17 8.83301 27 26.5s20.333 39.834 31 66.501l16.5 48
l16.5 50c12.667 40.667 23.834 78.834 33.501 114.501s15.834 59.167 18.501 70.5l106 24v0z" />
    <glyph glyph-name="z" unicode="z" horiz-adv-x="389" 
d="M54 300l-24.9971 0.000976562l52 189c14 -2.66699 28.167 -4.66699 42.5 -6l42.5 -4c14 -1.33301 28.167 -2.33301 42.5 -3s28.5 -1 42.5 -1c24.667 0 49.167 1 73.5 3s48.5 5.33301 72.5 10c-34.667 -60 -72.667 -119.333 -114 -178s-85.666 -115.667 -132.999 -171
c20 0 36.167 -1.66699 48.5 -5s23.166 -7 32.499 -11c2 -1.33301 4.33301 -2.5 7 -3.5s5.33398 -2.16699 8.00098 -3.5c6 -2.66699 12.167 -4.83398 18.5 -6.50098s13.833 -2.5 22.5 -2.5c16 0 28.5 4.33301 37.5 13s15.833 19.667 20.5 33l14 40l24 -3l-19 -64
c-12.667 -44 -27.167 -78.667 -43.5 -104s-41.166 -38 -74.499 -38c-6.66699 0 -13.334 0.5 -20.001 1.5s-13.334 2.16699 -20.001 3.5c-10 2.66699 -20 5.5 -30 8.5s-19.667 6.5 -29 10.5l-43 17c-13.333 5.33301 -24.333 8 -33 8c-8 0 -14.833 -2.83301 -20.5 -8.5
s-10.5 -11.834 -14.5 -18.501l-4 -6l-4 -6l-28 22l16 18.5l16 18.5l122 150c40 50.667 76 104 108 160c-17.333 -5.33301 -34.833 -8.66602 -52.5 -9.99902s-35.5 -2 -53.5 -2c-6.66699 0 -13.334 0.333008 -20.001 1l-20 2c-6.66699 1.33301 -13.334 2.5 -20.001 3.5
s-13.334 2.16699 -20.001 3.5l-22 -61v0z" />
    <glyph glyph-name="braceleft" unicode="{" horiz-adv-x="326" 
d="M100 -14l29.002 163.998c1.33301 6.66699 2.33301 13.167 3 19.5s1 12.166 1 17.499c0 17.333 -4.5 31.333 -13.5 42s-24.5 19.334 -46.5 26.001c31.333 8.66699 53.333 21 66 37s21.667 39 27 69l29 165c9.33301 54.667 30 89.834 62 105.501s83.333 23.5 154 23.5
l-3 -18c-28.667 -8 -49.834 -21.333 -63.501 -40s-23.167 -44 -28.5 -76l-26 -146c-6 -33.333 -15.333 -59.5 -28 -78.5s-36.667 -32.5 -72 -40.5l-1 -1c24.667 -6.66699 41.5 -15.834 50.5 -27.501s13.5 -27.167 13.5 -46.5c0 -6.66699 -0.5 -13.667 -1.5 -21
s-2.16699 -15.333 -3.5 -24l-26 -146c-0.666992 -7.33301 -1.33398 -14.166 -2.00098 -20.499s-1 -12.166 -1 -17.499c0 -20.667 4.16699 -37.167 12.5 -49.5s22.5 -21.5 42.5 -27.5l-3 -19c-60.667 0 -105 5.5 -133 16.5s-42 35.167 -42 72.5c0 6 0.333008 12.5 1 19.5
s1.66699 14.167 3 21.5v0z" />
    <glyph glyph-name="bar" unicode="|" horiz-adv-x="222" 
d="M55 -22v752h112v-752h-112v0z" />
    <glyph glyph-name="braceright" unicode="}" horiz-adv-x="326" 
d="M316 526l-30.001 -164.002c-1.33301 -7.33301 -2.33301 -14.333 -3 -21s-1 -12.667 -1 -18c0 -17.333 4.5 -31.333 13.5 -42s24.167 -19.334 45.5 -26.001c-30.667 -8.66699 -52.167 -21 -64.5 -37s-21.166 -39 -26.499 -69l-30 -163
c-9.33301 -55.333 -30.166 -90.833 -62.499 -106.5s-83.5 -23.5 -153.5 -23.5l3 19c29.333 7.33301 50.833 20.333 64.5 39s23.167 44 28.5 76l25 147c6 32 15.5 57.5 28.5 76.5s36.833 32.5 71.5 40.5l1 3c-24 5.33301 -40.5 14 -49.5 26s-13.5 27.333 -13.5 46
c0 6.66699 0.5 13.667 1.5 21s2.16699 15.333 3.5 24l25 148c1.33301 6.66699 2.33301 13.334 3 20.001s1 12.667 1 18c0 20 -4.5 36.167 -13.5 48.5s-23.5 21.5 -43.5 27.5l3 20c61.333 -0.666992 106.166 -6.5 134.499 -17.5s42.166 -36.167 41.499 -75.5
c0 -5.33301 -0.166992 -11.166 -0.5 -17.499s-1.16602 -13.166 -2.49902 -20.499v1z" />
    <glyph glyph-name="asciitilde" unicode="~" horiz-adv-x="600" 
d="M495 342l35.999 -88.998c-0.666992 -1.33301 -1.33398 -2.5 -2.00098 -3.5s-1.33398 -1.83301 -2.00098 -2.5c-14.667 -20.667 -31.167 -39.334 -49.5 -56.001s-42.166 -25 -71.499 -25c-18 0 -34.167 2.66699 -48.5 8s-28.166 11.666 -41.499 18.999
c-0.666992 0.666992 -1.66699 1.16699 -3 1.5s-2.66602 0.833008 -3.99902 1.5c-0.666992 0.666992 -1.5 1.16699 -2.5 1.5s-1.83301 0.833008 -2.5 1.5c-16 8.66699 -32.833 16.334 -50.5 23.001s-39.167 10 -64.5 10c-21.333 0 -38.5 -6.83301 -51.5 -20.5
s-23.5 -28.834 -31.5 -45.501c0 -0.666992 -0.166992 -1.16699 -0.5 -1.5s-0.5 -0.833008 -0.5 -1.5l-36 90c0.666992 0 1.16699 0.5 1.5 1.5s0.833008 1.83301 1.5 2.5c11.333 20.667 26.5 39.334 45.5 56.001s44.5 25 76.5 25c10.667 0 21.5 -1.16699 32.5 -3.5
s22.167 -5.5 33.5 -9.5c8 -3.33301 16 -6.5 24 -9.5s16 -6.16699 24 -9.5c18.667 -8.66699 36.5 -16.334 53.5 -23.001s32.167 -10 45.5 -10c20 0 36.833 7.16699 50.5 21.5s26.167 29.833 37.5 46.5v1z" />
    <glyph glyph-name="endash" unicode="&#xa1;" horiz-adv-x="332" 
d="M243 274l-39 -445h-136l117 445h58v0zM318 405c-4 -22.667 -15.167 -41.833 -33.5 -57.5s-38.5 -23.5 -60.5 -23.5c-20 0 -36.333 6.5 -49 19.5s-18.667 28.833 -18 47.5v3.5v3.5c0 0.666992 0.166992 1.66699 0.5 3s0.5 2.33301 0.5 3c3.33301 22 14.333 40.833 33 56.5
s39 23.5 61 23.5c20 0 36.167 -6.5 48.5 -19.5s18.5 -29.167 18.5 -48.5v-6c0 -2 -0.333008 -4 -1 -6v1z" />
    <glyph glyph-name="cent" unicode="&#xa2;" horiz-adv-x="505" 
d="M202 -126l20.999 109.998c-57.333 4.66699 -103.5 23.667 -138.5 57s-52.5 78.666 -52.5 135.999c0 8 0.5 16.167 1.5 24.5s2.16699 16.833 3.5 25.5c13.333 72.667 45.166 128.5 95.499 167.5s104.5 64.167 162.5 75.5c2 0 4.16699 0.166992 6.5 0.5
s4.83301 0.833008 7.5 1.5l21 114h70l-21 -110c2.66699 -0.666992 5.33398 -1 8.00098 -1h8c16 -1.33301 31.667 -3.5 47 -6.5s30 -7.16699 44 -12.5l-17 -149h-24c-3.33301 29.333 -14.5 50 -33.5 62s-43.833 18 -74.5 18c-40.667 0 -74 -11.833 -100 -35.5
s-43.667 -49.5 -53 -77.5c-1.33301 -4 -2.5 -7.83301 -3.5 -11.5s-1.83301 -7.5 -2.5 -11.5c-1.33301 -7.33301 -2.33301 -14.5 -3 -21.5s-1 -13.833 -1 -20.5c0 -46 14.333 -79.167 43 -99.5s63.334 -30.5 104.001 -30.5c3.33301 0 6.66602 0.166992 9.99902 0.5
s7 0.5 11 0.5c20.667 2 41 6.83301 61 14.5s39.333 16.834 58 27.501l-34 -100c-14.667 -9.33301 -30.834 -16.666 -48.501 -21.999s-35.5 -9.33301 -53.5 -12c-5.33301 -1.33301 -10.666 -2.16602 -15.999 -2.49902s-10.666 -0.833008 -15.999 -1.5l-21 -110h-70v0z" />
    <glyph glyph-name="sterling" unicode="&#xa3;" horiz-adv-x="590" 
d="M73 288l15 87.999h63c-0.666992 3.33301 -1.33398 7 -2.00098 11s-1 8.33301 -1 13c0 3.33301 0.166992 6.83301 0.5 10.5s0.833008 7.5 1.5 11.5c0 1.33301 0.166992 3 0.5 5s0.5 3.66699 0.5 5c0.666992 2 1.16699 3.83301 1.5 5.5s0.5 3.5 0.5 5.5
c11.333 61.333 44 112 98 152s115.333 60 184 60c29.333 0 57.333 -3.16699 84 -9.5s52 -15.833 76 -28.5c-1.33301 -13.333 -2.83301 -26.833 -4.5 -40.5s-3.5 -27.167 -5.5 -40.5c-2 -14 -3.83301 -27.833 -5.5 -41.5s-3.16699 -27.167 -4.5 -40.5l-18 1
c-0.666992 0.666992 -1.16699 1.66699 -1.5 3s-0.833008 2.66602 -1.5 3.99902c-10 26 -25.5 50 -46.5 72s-48.167 33 -81.5 33h-3.5h-3.5c-28 -1.33301 -54 -10.666 -78 -27.999s-38.667 -41.333 -44 -72c-0.666992 -3.33301 -1.16699 -6.83301 -1.5 -10.5
s-0.5 -7.16699 -0.5 -10.5c0.666992 -10 1.83398 -20 3.50098 -30s3.5 -19.667 5.5 -29c0.666992 -2 1.16699 -4 1.5 -6s0.833008 -4 1.5 -6l168 1l-15 -88h-152c-8.66699 -29.333 -23.5 -57.833 -44.5 -85.5s-44.167 -52.167 -69.5 -73.5l168 1
c41.333 -0.666992 76.833 3.5 106.5 12.5s54.5 36.833 74.5 83.5l19 1c-3.33301 -16 -7 -31.5 -11 -46.5s-7.66699 -30.167 -11 -45.5c-1.33301 -4 -2.33301 -7.83301 -3 -11.5s-1.66699 -7.16699 -3 -10.5l-14 -57c-4.66699 -18.667 -9 -37.334 -13 -56.001h-466
c6 13.333 14 27 24 41l30 41l16 20.5l16 20.5c8 11.333 15 22.833 21 34.5s10 23.5 12 35.5c1.33301 7.33301 2.33301 15 3 23s1 16.333 1 25s-0.5 16.834 -1.5 24.501s-2.16699 14.834 -3.5 21.501l-86 1v0z" />
    <glyph glyph-name="Idieresis" unicode="&#xa4;" horiz-adv-x="556" 
d="M18 516l60.999 61.001l55 -55c20.667 13.333 43.167 24 67.5 32s49.833 12 76.5 12s52.167 -4 76.5 -12s46.833 -19 67.5 -33l55 56l61 -61l-55 -55c14 -21.333 25 -44 33 -68s12 -49.667 12 -77c0 -26 -3.83301 -51 -11.5 -75s-19.167 -46.667 -34.5 -68l56 -55l-61 -61
l-56 56c-20 -15.333 -42 -27 -66 -35s-49.667 -12 -77 -12c-26.667 0 -52.167 4 -76.5 12s-46.5 19.333 -66.5 34l-56 -55l-61 61l56 56c-14.667 19.333 -26 41.166 -34 65.499s-12 49.833 -12 76.5s3.83301 52.167 11.5 76.5s18.834 46.833 33.501 67.5l-55 56v0z
M139.999 317.001c0 -38.667 13.5 -71.5 40.5 -98.5s59.5 -40.5 97.5 -40.5s70.5 13.5 97.5 40.5s40.5 59.5 40.5 97.5s-13.5 70.5 -40.5 97.5s-59.5 40.5 -97.5 40.5s-70.5 -13.5 -97.5 -40.5s-40.5 -59.5 -40.5 -97.5v1z" />
    <glyph glyph-name="ae" unicode="&#xa5;" horiz-adv-x="545" 
d="M32 117l10.9922 64h149l14 79h-149l12 64h120l-74 266c-4 13.333 -9.66699 21.666 -17 24.999s-16.666 5 -27.999 5l4 20c5.33301 -1.33301 10.5 -2.16602 15.5 -2.49902s10.167 -0.5 15.5 -0.5c15.333 -1.33301 30.666 -2.33301 45.999 -3s30.333 -1 45 -1
c19.333 0 39.5 0.666992 60.5 2l64.5 4l-4 -18c-11.333 -1.33301 -21.166 -3.5 -29.499 -6.5s-13.5 -9.83301 -15.5 -20.5c0 -4 0.333008 -8.66699 1 -14s2 -13 4 -23l39 -179h2l95 156c6.66699 11.333 11.834 20.833 15.501 28.5s5.83398 15.167 6.50098 22.5
c0.666992 0 1 0.333008 1 1v2c0 0.666992 0.166992 1.16699 0.5 1.5s0.5 0.833008 0.5 1.5v3.5v2.5c0 8 -3.33301 13.833 -10 17.5s-15 5.5 -25 5.5l4 20c5.33301 -1.33301 10.833 -2.16602 16.5 -2.49902s11.167 -0.833008 16.5 -1.5l33.5 -2
c11 -0.666992 21.833 -1 32.5 -1c15.333 0 31.5 0.666992 48.5 2l51.5 4l-4 -18c-8.66699 -0.666992 -16.667 -2.5 -24 -5.5s-14.666 -8.16699 -21.999 -15.5c-1.33301 -2 -2.66602 -3.83301 -3.99902 -5.5s-2.66602 -3.5 -3.99902 -5.5l-167 -265h122l-12 -64h-151l-14 -79
h151l-10 -64h-151l-11 -62c-0.666992 -2.66699 -1 -4.83398 -1 -6.50098v-4.5c0 -10.667 3.5 -18.5 10.5 -23.5s17.833 -7.83301 32.5 -8.5l-4 -18c-24 1.33301 -45.667 2.66602 -65 3.99902s-38 2 -56 2c-12.667 0 -28.5 -0.666992 -47.5 -2s-40.5 -2.66602 -64.5 -3.99902
l4 19c16.667 0 29.834 3.33301 39.501 10s15.834 17 18.501 31l10 63h-149v0z" />
    <glyph glyph-name="brokenbar" unicode="&#xa6;" 
 />
    <glyph glyph-name="section" unicode="&#xa7;" horiz-adv-x="500" 
d="M447 521h-18.999c-1.33301 14.667 -7.33301 28 -18 40s-24.334 18 -41.001 18h-2h-1c-12.667 -0.666992 -24.334 -3.83398 -35.001 -9.50098s-17.334 -16.167 -20.001 -31.5v-1.5v-1.5c-0.666992 -0.666992 -1 -1.33398 -1 -2.00098v-2c0 -16 8.83301 -33.667 26.5 -53
l57.5 -62c20.667 -22.667 39.834 -47 57.501 -73s26.5 -53.667 26.5 -83c0 -2.66699 -0.166992 -5.83398 -0.5 -9.50098s-0.833008 -7.16699 -1.5 -10.5c-7.33301 -40 -28 -75.667 -62 -107s-70.667 -48.666 -110 -51.999h-4.5h-5.5v-1
c18 -15.333 33.333 -31.166 46 -47.499s19 -36.5 19 -60.5c0 -3.33301 -0.166992 -7 -0.5 -11s-0.833008 -8 -1.5 -12c-6.66699 -38 -29.5 -71.167 -68.5 -99.5s-82.167 -42.5 -129.5 -42.5c-6.66699 0 -13.667 0.333008 -21 1s-14.666 1.66699 -21.999 3
c-11.333 2 -22.333 4.66699 -33 8s-21 7 -31 11c1.33301 12 2.83301 23.833 4.5 35.5s3.5 23.167 5.5 34.5c1.33301 12 2.83301 23.833 4.5 35.5s3.16699 23.5 4.5 35.5h19c1.33301 -24.667 8.66602 -45.5 21.999 -62.5s33.333 -25.5 60 -25.5
c21.333 0 38.5 3.83301 51.5 11.5s20.833 18.167 23.5 31.5v1.5c0 0.333008 0.333008 0.833008 1 1.5v2v2c0 4.66699 -1 9.5 -3 14.5s-4.66699 9.83301 -8 14.5c-8.66699 12.667 -21.834 25.334 -39.501 38.001s-35.834 26.667 -54.501 42
c-26.667 21.333 -51 45.666 -73 72.999s-33 60.333 -33 99c0 4.66699 0.333008 9.5 1 14.5l2 14.5c9.33301 50 32.833 90.333 70.5 121s79.834 46 126.501 46c-18.667 22.667 -32.167 42.667 -40.5 60s-12.166 33.333 -11.499 48v7.5c0 2.33301 0.333008 4.83301 1 7.5
c6 36.667 23.333 64.834 52 84.501s59.334 31.5 92.001 35.5c4.66699 0.666992 9.33398 1.16699 14.001 1.5s9.33398 0.5 14.001 0.5c19.333 0 37.666 -1.33301 54.999 -4s33.666 -7.66699 48.999 -15c-0.666992 -6.66699 -1.5 -13.167 -2.5 -19.5
s-1.83301 -12.833 -2.5 -19.5c-0.666992 -3.33301 -1.16699 -6.5 -1.5 -9.5s-0.833008 -6.16699 -1.5 -9.5c-1.33301 -9.33301 -2.5 -18.833 -3.5 -28.5s-2.16699 -19.5 -3.5 -29.5v1zM151.001 275c0 -1.33301 -0.169922 -2.50098 -0.50293 -3.50098
s-0.5 -1.83301 -0.5 -2.5v-3v-3c0 -2.66699 0.166992 -5.16699 0.5 -7.5s0.833008 -4.83301 1.5 -7.5c3.33301 -20 13 -39 29 -57s33.333 -31.667 52 -41c6.66699 -3.33301 13.5 -6 20.5 -8s13.5 -3 19.5 -3c19.333 0 37.333 6.33301 54 19s27 29.334 31 50.001
c0.666992 1.33301 1 2.83301 1 4.5v5.5c0 4.66699 -0.666992 9.66699 -2 15s-3 10.666 -5 15.999c-7.33301 16.667 -18.666 32.5 -33.999 47.5s-31.666 26.5 -48.999 34.5c-6 2.66699 -12.167 4.83398 -18.5 6.50098s-12.5 2.5 -18.5 2.5c-20 0 -37.667 -6.5 -53 -19.5
s-24.666 -28.5 -27.999 -46.5v1z" />
    <glyph glyph-name="dieresis" unicode="&#xa8;" 
d="M-31 607c0.666992 17.333 7.16699 32.333 19.5 45s27.5 19 45.5 19s33.333 -6.33301 46 -19s19 -28 19 -46s-6.33301 -33.333 -19 -46s-28 -19 -46 -19s-33.167 6.33301 -45.5 19s-18.5 28 -18.5 46zM179 607c0 17.333 6.33301 32.333 19 45s28 19 46 19
s33.333 -6.33301 46 -19s19 -28 19 -46s-6.33301 -33.333 -19 -46s-28 -19 -46 -19s-33.333 6.33301 -46 19s-19 28 -19 46v1z" />
    <glyph glyph-name="copyright" unicode="&#xa9;" horiz-adv-x="275" 
d="M12 533c0 30.667 11 56.666 33 77.999s48.333 32 79 32c31.333 0 57.833 -10.667 79.5 -32s32.5 -47.666 32.5 -78.999c0 -30.667 -10.833 -57 -32.5 -79s-48.167 -33 -79.5 -33c-30.667 0 -57 11 -79 33s-33 48.333 -33 79v1zM38 532.999
c0 -26.667 8.5 -48.5 25.5 -65.5s37.167 -25.5 60.5 -25.5s43.5 8.5 60.5 25.5s25.5 38.5 25.5 64.5c0 25.333 -8.5 46.666 -25.5 63.999s-37.167 26 -60.5 26s-43.5 -8.66699 -60.5 -26s-25.5 -38.666 -25.5 -63.999v1zM59 532.999
c0 1.33301 0.166016 3.16309 0.499023 5.49609s0.5 4.5 0.5 6.5c2.66699 12.667 9.33398 24.334 20.001 35.001s28 16 52 16c2 0 5 -0.166992 9 -0.5s8 -1.16602 12 -2.49902c3.33301 -0.666992 6.33301 -1.5 9 -2.5s5 -2.5 7 -4.5v-24h-6
c-0.666992 0 -1.16699 0.5 -1.5 1.5s-0.833008 2.16699 -1.5 3.5c-2.66699 4.66699 -6.16699 9 -10.5 13s-10.166 6 -17.499 6c-10.667 0 -18.834 -4.83301 -24.501 -14.5s-8.5 -22.167 -8.5 -37.5s2.33301 -28.833 7 -40.5s13.334 -17.5 26.001 -17.5
c7.33301 0 14.166 3.16699 20.499 9.5s11.833 13.833 16.5 22.5l5 1l-5 -29c-2 -2 -4.33301 -3.66699 -7 -5s-5.33398 -2.33301 -8.00098 -3c-5.33301 -1.33301 -10.166 -2.16602 -14.499 -2.49902s-7.5 -0.5 -9.5 -0.5c-22 0 -39.333 5.33301 -52 16s-19 26.334 -19 47.001
v1z" />
    <glyph glyph-name="ellipsis" unicode="&#xaa;" horiz-adv-x="325" 
d="M220 656l14.5 -1.99805l15.5 -2c2.66699 -0.666992 5.16699 -1.16699 7.5 -1.5s4.83301 -0.833008 7.5 -1.5l34 15l-7 -44.5l-8 -53.5c0 -2.66699 -0.333008 -5.33398 -1 -8.00098s-1 -5.33398 -1 -8.00098l-11 -78c-3.33301 -24.667 -5 -42.334 -5 -53.001
c0 -6.66699 1 -12.167 3 -16.5s6.66699 -6.5 14 -6.5c3.33301 0 6.66602 0.666992 9.99902 2s6.66602 3 9.99902 5c0.666992 0.666992 1.66699 1.33398 3 2.00098l4 2l9 -9c-3.33301 -3.33301 -7.16602 -6.83301 -11.499 -10.5s-9.16602 -7.16699 -14.499 -10.5
c-6.66699 -5.33301 -14.334 -10.5 -23.001 -15.5s-17.334 -8.16699 -26.001 -9.5c-2 -0.666992 -4.16699 -1.16699 -6.5 -1.5s-4.5 -0.5 -6.5 -0.5c-20.667 0 -33.667 5.16699 -39 15.5s-8 24.833 -8 43.5c0 3.33301 0.333008 8 1 14s1.33398 12.333 2.00098 19
c0.666992 5.33301 1.5 10.833 2.5 16.5s1.83301 10.167 2.5 13.5l-2 1c-2.66699 -7.33301 -5.66699 -14.833 -9 -22.5s-7.33301 -15.5 -12 -23.5c-10 -19.333 -22.5 -37 -37.5 -53s-33.167 -24 -54.5 -24c-26.667 0 -44.667 7.33301 -54 22s-14.666 31 -15.999 49
c-0.666992 3.33301 -1 7 -1 11v11c0 53.333 21 102 63 146s92.333 66 151 66v1zM188 616.002c-17.333 -0.666992 -30.3311 -4.66699 -38.998 -12s-16.334 -20.666 -23.001 -39.999l-2 -6c-0.666992 -2 -1.33398 -4.33301 -2.00098 -7c-8 -24.667 -13.667 -46.5 -17 -65.5
s-5 -37.167 -5 -54.5c0 -6.66699 1 -12.834 3 -18.501s5.33301 -8.5 10 -8.5s9.83398 2.66699 15.501 8s11.167 12.666 16.5 21.999c6.66699 10 13 21.833 19 35.5s11.667 27.834 17 42.501c7.33301 20 13.333 39.167 18 57.5s7 31.833 7 40.5c0 2 -1.83301 3.33301 -5.5 4
s-7.83398 1 -12.501 1v1z" />
    <glyph glyph-name="ydieresis" unicode="&#xab;" horiz-adv-x="500" 
d="M358 247c0 -29.333 5.00195 -55.498 15.002 -78.498s21 -43.167 33 -60.5c11.333 -17.333 22 -31.666 32 -42.999s15 -19 15 -23c0 -0.666992 -0.166992 -1.5 -0.5 -2.5s-0.5 -1.83301 -0.5 -2.5c-1.33301 -2.66699 -3 -5 -5 -7s-4.66699 -3 -8 -3
c-6.66699 0 -19.667 6.16699 -39 18.5s-40 28.166 -62 47.499c-16.667 14.667 -32.834 31 -48.501 49s-28.5 36.333 -38.5 55c-5.33301 10 -9.5 20 -12.5 30s-4.5 19.667 -4.5 29c0 11.333 2.66699 23.166 8 35.499s12.666 24.5 21.999 36.5c10 14 21.5 27.833 34.5 41.5
s26.167 26.5 39.5 38.5c22.667 20 44 36.5 64 49.5s32.667 19.5 38 19.5h1.5h0.5c2 -0.666992 4 -1.83398 6 -3.50098s3 -3.83398 3 -6.50098c0 -5.33301 -4.83301 -14.833 -14.5 -28.5s-20.167 -30.5 -31.5 -50.5c-12 -19.333 -22.833 -41.166 -32.5 -65.499
s-14.5 -49.833 -14.5 -76.5v1zM171.002 254.002c0 -28 6.00195 -53.167 18.002 -75.5s25 -41.833 39 -58.5c14 -16 27 -29 39 -39s18 -16 18 -18c0 -3.33301 -1.33301 -6.33301 -4 -9s-6.66699 -4 -12 -4c-4.66699 0 -17.834 4.33301 -39.501 13
s-45.167 21.334 -70.5 38.001c-28 18.667 -53.667 41.667 -77 69s-35 58.333 -35 93c0 26 11.5 50.833 34.5 74.5s48.167 44.5 75.5 62.5c26 16.667 50 29.834 72 39.501s34.667 14.5 38 14.5c1.33301 0 2.66602 -0.166992 3.99902 -0.5s2.66602 -0.5 3.99902 -0.5
c2.66699 -0.666992 5.33398 -1.83398 8.00098 -3.50098s4 -3.5 4 -5.5c0 -6 -6 -14.667 -18 -26s-25.333 -25.333 -40 -42s-28 -35.334 -40 -56.001s-18 -43 -18 -67v1z" />
    <glyph glyph-name="emdash" unicode="&#xac;" 
 />
    <glyph glyph-name="uni00AD" unicode="&#xad;" 
 />
    <glyph glyph-name="registered" unicode="&#xae;" horiz-adv-x="265" 
d="M7 539c0 30.667 11.167 56.666 33.5 77.999s48.833 32 79.5 32c31.333 0 58.166 -10.667 80.499 -32s33.5 -47.666 33.5 -78.999c0 -30.667 -11.167 -57.167 -33.5 -79.5s-49.166 -33.5 -80.499 -33.5c-30.667 0 -57.167 11.167 -79.5 33.5s-33.5 48.833 -33.5 79.5v1z
M35 538.999c0 -26 8.16699 -47.833 24.5 -65.5s36.5 -26.5 60.5 -26.5c23.333 0 43.333 8.83301 60 26.5s25 39.167 25 64.5s-8.33301 46.666 -25 63.999s-36.667 26 -60 26c-24 0 -44.167 -8.66699 -60.5 -26s-24.5 -38.666 -24.5 -63.999v1zM104 580.999
l-0.000976562 -81.002c0 -4 0.5 -6.66699 1.5 -8s3.16699 -2.33301 6.5 -3c0.666992 0 1.33398 -0.166992 2.00098 -0.5s1.33398 -0.5 2.00098 -0.5l-1 -2h-5.5h-4.5h-3.5h-2.5c-1.33301 -0.666992 -2.5 -1 -3.5 -1h-3.5h-2.5c-1 0 -2.16699 0.333008 -3.5 1h-4h-4h-3
c-1.33301 0 -2.66602 -0.333008 -3.99902 -1v4c3.33301 0 5.5 0.666992 6.5 2s1.5 4.33301 1.5 9v85c0 2.66699 -0.5 4.33398 -1.5 5.00098s-2.5 1.33398 -4.5 2.00098h-0.5h-1.5v4h61c10 -0.666992 18.167 -3.16699 24.5 -7.5s9.83301 -11.5 10.5 -21.5v-2v-2
c-0.666992 -6 -3.16699 -11.667 -7.5 -17s-11.5 -9 -21.5 -11l28 -39c1.33301 -2.66699 2.83301 -4.66699 4.5 -6s3.83398 -1.66602 6.50098 -0.999023v-3h-3.5h-3.5h-2.5h-2.5c-1.33301 -0.666992 -2.33301 -1 -3 -1h-3h-2.5c-1 0 -2.16699 0.333008 -3.5 1h-0.5h-1.5h-2
h-2h-1.5h-0.5c-0.666992 0 -1.16699 -0.166992 -1.5 -0.5s-0.833008 -0.5 -1.5 -0.5c-2 3.33301 -4 6.5 -6 9.5s-4 5.83301 -6 8.5c-0.666992 2 -1.5 3.66699 -2.5 5s-2.16699 3 -3.5 5l-9.5 13.5l-8.5 12.5v0c1.33301 -0.666992 2.66602 -0.833984 3.99902 -0.500977
s2.66602 0.5 3.99902 0.5c9.33301 2 16.166 4.33301 20.499 7s6.5 7.66699 6.5 15s-2.33301 12.333 -7 15s-10.667 4 -18 4l-12 1v0z" />
    <glyph glyph-name="glyph263" unicode="&#xaf;" 
 />
    <glyph glyph-name="glyph264" unicode="&#xb0;" 
 />
    <glyph glyph-name="mu" unicode="&#xb1;" horiz-adv-x="600" 
d="M47 0l20 112h506l-20 -112h-506v0zM312 382l22 124h112l-22 -124h197l-20 -112h-197l-22 -125h-112l22 125h-197l20 112h197v0z" />
    <glyph glyph-name="uni00B2" unicode="&#xb2;" 
 />
    <glyph glyph-name="uni00B3" unicode="&#xb3;" 
 />
    <glyph glyph-name="acute" unicode="&#xb4;" 
d="M53 535l95.001 110c3.33301 2.66699 6.5 6 9.5 10s6.16699 8 9.5 12c10.667 12.667 22.167 24.334 34.5 35.001s27.166 16 44.499 16c11.333 0 21.5 -4.5 30.5 -13.5s13.5 -19.167 13.5 -30.5c0 -8.66699 -3 -17.334 -9 -26.001s-16.667 -18 -32 -28l-138 -85h-58v0z" />
    <glyph glyph-name="oslash" unicode="&#xb5;" horiz-adv-x="556" 
d="M47 403l4.00293 24.9971c18 4.66699 34.667 9.5 50 14.5l45 14.5c16 5.33301 31.333 10.833 46 16.5l44 17.5c3.33301 1.33301 6.66602 2.83301 9.99902 4.5s6.66602 3.16699 9.99902 4.5c-2.66699 -22 -6 -46.167 -10 -72.5s-8.33301 -53.5 -13 -81.5l-2 -13.5l-2 -12.5
c-6 -38.667 -11.333 -76.5 -16 -113.5s-7 -68.833 -7 -95.5v-1.5v-1.5c0 -6 1.5 -11.5 4.5 -16.5s8.16699 -7.5 15.5 -7.5c8.66699 0 18.667 8.83301 30 26.5s23 39.834 35 66.501c6.66699 15.333 13.334 31.666 20.001 48.999l20 53c14 40 25.833 77.833 35.5 113.5
s15.167 59.834 16.5 72.501l126 24l-10 -67l-13 -86c-0.666992 -6.66699 -1.5 -13.334 -2.5 -20.001s-2.16699 -13.334 -3.5 -20.001c-5.33301 -40.667 -10.166 -79.5 -14.499 -116.5s-6.5 -65.5 -6.5 -85.5c0 -12 1.83301 -20.833 5.5 -26.5s10.167 -8.5 19.5 -8.5
c7.33301 0 13.833 2 19.5 6l17.5 13c0.666992 0.666992 1.66699 1.5 3 2.5s2.33301 1.83301 3 2.5c1.33301 1.33301 2.66602 2.5 3.99902 3.5s2.66602 1.83301 3.99902 2.5l16 -15l-14.5 -14l-15.5 -14c-14 -12.667 -29.5 -24.5 -46.5 -35.5s-34.167 -18.5 -51.5 -22.5
c-4 -1.33301 -8.33301 -2.33301 -13 -3s-9 -1 -13 -1c-22 0 -37.833 7.66699 -47.5 23s-15.834 32.333 -18.501 51c-0.666992 4.66699 -1.16699 9.66699 -1.5 15s-0.5 10.333 -0.5 15c0 21.333 1.66699 42.333 5 63s7 41.334 11 62.001l2 10.5l2 11.5l-2 3l-18 -50.5
c-6.66699 -19 -14.334 -38.5 -23.001 -58.5c-15.333 -36.667 -34.666 -70 -57.999 -100s-52.333 -45 -87 -45h-2.5h-2.5l-8 2c-2.66699 0.666992 -5 1.33398 -7 2.00098c0 -6 -0.166992 -12 -0.5 -18s-0.833008 -12 -1.5 -18v-5.5v-5.5
c-1.33301 -23.333 -2.66602 -45.333 -3.99902 -66s-3 -35 -5 -43c-4.66699 -18 -13.334 -31.167 -26.001 -39.5s-26.667 -12.5 -42 -12.5c-14.667 0 -26.167 4.33301 -34.5 13s-12.5 21.667 -12.5 39c0 18.667 5 46.334 15 83.001s20.667 87.334 32 152.001
c3.33301 18.667 6.66602 38.5 9.99902 59.5s6.66602 43.5 9.99902 67.5c8 61.333 14.5 109 19.5 143s8.16699 59 9.5 75c-1.33301 0 -2.66602 -0.166992 -3.99902 -0.5s-3 -0.5 -5 -0.5l-12.5 -2l-12.5 -2c-5.33301 -0.666992 -10.666 -1.5 -15.999 -2.5
s-10 -1.83301 -14 -2.5v1z" />
    <glyph glyph-name="paragraph" unicode="&#xb6;" horiz-adv-x="620" 
d="M212 -114v342.998c-50 -0.666992 -89.5 18.833 -118.5 58.5s-43.5 90.834 -43.5 153.501c0 69.333 16.333 119.666 49 150.999s86.334 47 161.001 47l310 1v-19c-30.667 -3.33301 -50.834 -8.16602 -60.501 -14.499s-14.5 -15.166 -14.5 -26.499v-694
c0 -15.333 6 -26 18 -32s31 -10 57 -12v-19h-181v786h-71v-786h-181v19c26 2 45 6 57 12s18 16.667 18 32v0z" />
    <glyph glyph-name="glyph265" unicode="&#xb7;" 
 />
    <glyph glyph-name="bullet" unicode="&#xb8;" 
d="M50 -197l15.9971 32.0029c4 -2 8 -3.66699 12 -5s7.66699 -2.33301 11 -3c8 -2 16 -3.33301 24 -4s16.333 -1 25 -1c12 0 22.5 3.66699 31.5 11s13.5 17.666 13.5 30.999c0 11.333 -4.16699 19.833 -12.5 25.5s-18.166 8.5 -29.499 8.5
c-5.33301 0 -10.666 -0.333008 -15.999 -1s-10.666 -1.66699 -15.999 -3l-10 10l43 96h41l-27 -67c5.33301 1.33301 11.166 2.5 17.499 3.5s13.833 1.5 22.5 1.5h1.5h1.5c20.667 -0.666992 39.834 -5.83398 57.501 -15.501s26.5 -26.834 26.5 -51.501
c0 -33.333 -13.667 -56.5 -41 -69.5s-60 -19.5 -98 -19.5c-5.33301 0 -10.833 0.333008 -16.5 1l-17.5 2c-11.333 2 -22.333 4.5 -33 7.5s-19.667 6.5 -27 10.5v0z" />
    <glyph glyph-name="uni00B9" unicode="&#xb9;" 
 />
    <glyph glyph-name="Agrave" unicode="&#xba;" horiz-adv-x="289" 
d="M283 550c0 -10 -0.833984 -20.166 -2.50098 -30.499s-4.5 -20.5 -8.5 -30.5c-11.333 -34.667 -31.5 -66.5 -60.5 -95.5s-63.833 -43.5 -104.5 -43.5c-38 0 -64.333 10.5 -79 31.5s-22 45.5 -22 73.5c0 53.333 16.667 98.666 50 135.999s70 58.333 110 63
c2.66699 0.666992 5.33398 1 8.00098 1h8c39.333 0 66 -10.333 80 -31s21 -45.667 21 -75v1zM138.999 391.001c3.33301 -0.666992 6.33203 -0.165039 8.99902 1.50195s5.33398 3.83398 8.00098 6.50098c2 2.66699 4.16699 9 6.5 19s4.83301 21.333 7.5 34
c1.33301 5.33301 2.5 10.666 3.5 15.999s1.83301 10.666 2.5 15.999c4 19.333 7.16699 37.166 9.5 53.499s3.5 26.833 3.5 31.5v6c0 2 -0.333008 4 -1 6c-1.33301 8.66699 -4.33301 16.5 -9 23.5s-12 10.5 -22 10.5c-4.66699 0 -9 -1.5 -13 -4.5
s-7.33301 -7.16699 -10 -12.5c-4 -8.66699 -8 -19.5 -12 -32.5s-7.33301 -26.5 -10 -40.5c-4 -15.333 -7 -30 -9 -44s-3 -25.333 -3 -34c0 -3.33301 0.166992 -6.83301 0.5 -10.5s1.16602 -7.5 2.49902 -11.5c2 -8.66699 5.83301 -16.667 11.5 -24s13.834 -11 24.501 -11v1z
" />
    <glyph glyph-name="Ydieresis" unicode="&#xbb;" horiz-adv-x="500" 
d="M142 259c0 28 -5.00098 53.498 -15.001 76.498s-20.667 43.167 -32 60.5c-12 17.333 -23 31.666 -33 42.999s-15 19 -15 23c0 0.666992 0.166992 1.5 0.5 2.5s0.5 1.83301 0.5 2.5c1.33301 2.66699 3.16602 5 5.49902 7s4.83301 3 7.5 3
c6.66699 0 19.667 -6.16699 39 -18.5s40 -28.166 62 -47.499c16.667 -14.667 32.834 -31 48.501 -49s28.5 -36.333 38.5 -55c5.33301 -10 9.5 -20 12.5 -30s4.5 -19.667 4.5 -29c0 -11.333 -2.66699 -23.166 -8 -35.499s-12.666 -24.5 -21.999 -36.5
c-10 -14 -21.5 -27.833 -34.5 -41.5s-26.167 -26.5 -39.5 -38.5c-22.667 -20 -44 -36.5 -64 -49.5s-32.667 -19.5 -38 -19.5h-1.5h-0.5c-2 0.666992 -4 1.83398 -6 3.50098s-3 3.83398 -3 6.50098c0 5.33301 4.83301 14.833 14.5 28.5s20.5 30.5 32.5 50.5
c11.333 19.333 21.833 41.166 31.5 65.499s14.5 49.833 14.5 76.5v1zM328.999 251.998c0 26.667 -6.00195 51.167 -18.002 73.5s-25 41.833 -39 58.5c-14 16 -27 29 -39 39s-18 16 -18 18c0 3.33301 1.5 6.33301 4.5 9s6.83301 4 11.5 4s17.834 -4.33301 39.501 -13
s45.167 -21.334 70.5 -38.001c28 -18.667 53.667 -41.667 77 -69s35 -58.333 35 -93c0 -26 -11.5 -50.833 -34.5 -74.5s-48.167 -44.5 -75.5 -62.5c-26 -16.667 -50 -29.834 -72 -39.501s-34.667 -14.5 -38 -14.5c-1.33301 0 -2.66602 0.166992 -3.99902 0.5
s-2.66602 0.5 -3.99902 0.5c-2.66699 0.666992 -5.33398 1.83398 -8.00098 3.50098s-4 3.5 -4 5.5c0 6 6 14.667 18 26s25.333 25.333 40 42s28 35.334 40 56.001s18 43 18 67v1z" />
    <glyph glyph-name="onequarter" unicode="&#xbc;" 
 />
    <glyph glyph-name="glyph243" unicode="&#xbd;" horiz-adv-x="834" 
d="M740 626l-549 -648l-37 30l548 648l38 -30v0zM774 70l-25.002 -76.0049h-281l11 51c10.667 4.66699 21.5 9.83398 32.5 15.501s22.167 11.834 33.5 18.501c39.333 22.667 75.833 49.167 109.5 79.5s54.5 62.833 62.5 97.5c0.666992 3.33301 1.16699 6.33301 1.5 9
s0.5 5.33398 0.5 8.00098c0 16.667 -5 30.667 -15 42s-24.667 17 -44 17c-24 0 -44.667 -6.16699 -62 -18.5s-31.333 -27.5 -42 -45.5l-12 1l8 24.5c2.66699 8.33301 5 16.833 7 25.5c2.66699 8 5 16.167 7 24.5l6 25.5c15.333 6.66699 31.833 11.834 49.5 15.501
s35.5 5.5 53.5 5.5c37.333 0 71.333 -7 102 -21s46 -38.667 46 -74c0 -3.33301 -0.166992 -7 -0.5 -11s-1.16602 -8.33301 -2.49902 -13c-8 -36 -27.667 -67.667 -59 -95s-65.333 -50.666 -102 -69.999c-15.333 -8 -30.5 -15.5 -45.5 -22.5s-29.167 -13.167 -42.5 -18.5v-1
c19.333 1.33301 41.333 2.5 66 3.5s50.334 1.5 77.001 1.5l60 1v0zM353.998 581.995l-61.999 -289.998v-1.5v-1.5v-1.5v-0.5c0 -6 2.16699 -10.667 6.5 -14s8.83301 -5.33301 13.5 -6h1.5h1.5l-3 -12l-38 2c-12.667 0.666992 -25.667 1 -39 1c-14 0 -27 -0.333008 -39 -1
l-35 -2c-2.66699 0 -5.16699 -0.166992 -7.5 -0.5s-4.83301 -0.5 -7.5 -0.5l3 14c2 0 3.83301 0.166992 5.5 0.5s3.5 0.833008 5.5 1.5c10.667 2.66699 18.5 5.83398 23.5 9.50098s8.16699 9.5 9.5 17.5l58 273c0.666992 2 1.16699 4 1.5 6s0.166016 4 -0.500977 6
c0 7.33301 -2.5 12.666 -7.5 15.999s-13.5 5 -25.5 5l-10 1l3 13c8.66699 0 18.334 1 29.001 3s21.667 4.33301 33 7c4.66699 1.33301 9.66699 2.66602 15 3.99902s10.333 2.66602 15 3.99902l47 14c13.333 4 20.333 6 21 6c1.33301 0 2.33301 -0.666992 3 -2
s0.666992 -3 0 -5c0 -2 -1.16699 -6 -3.5 -12s-4.83301 -13 -7.5 -21c-1.33301 -2 -2.33301 -4.33301 -3 -7l-2 -8c-1.33301 -3.33301 -2.33301 -6.5 -3 -9.5s-1.33398 -6.16699 -2.00098 -9.5v1z" />
    <glyph glyph-name="threequarters" unicode="&#xbe;" 
 />
    <glyph glyph-name="oe" unicode="&#xbf;" horiz-adv-x="500" 
d="M368 280l-16.999 -172.003c-10 -1.33301 -20.5 -3 -31.5 -5s-22.5 -4.66699 -34.5 -8c-26 -8 -50.167 -20 -72.5 -36s-35.833 -36.667 -40.5 -62c-0.666992 -5.33301 -1.33398 -10.333 -2.00098 -15s-1 -9.33398 -1 -14.001c0 -28.667 8.83301 -50 26.5 -64
s42.5 -21 74.5 -21c41.333 0 78.166 11.333 110.499 34s56.166 53.334 71.499 92.001l19 1l-42 -166c-10.667 -4.66699 -21.5 -9 -32.5 -13s-22.167 -7.33301 -33.5 -10c-20 -4.66699 -39.667 -8.16699 -59 -10.5s-36.666 -3.5 -51.999 -3.5h-1.5h-1.5
c-56 0.666992 -107.333 12.834 -154 36.501s-70 62.167 -70 115.5c0 4.66699 0.333008 9.33398 1 14.001s1.33398 9.66699 2.00098 15c8.66699 47.333 28 82.333 58 105s62 41.334 96 56.001l16.5 6.5l16.5 6.5c30 12 56.833 25.667 80.5 41s38.167 38.333 43.5 69l2 8h27v0
zM457.001 404.997c-4 -22.667 -15.167 -41.833 -33.5 -57.5s-38.5 -23.5 -60.5 -23.5c-20 0 -36.333 6.5 -49 19.5s-18.667 28.833 -18 47.5v3.5v3.5c0 0.666992 0.166992 1.66699 0.5 3s0.5 2.33301 0.5 3c3.33301 22 14.333 40.833 33 56.5s39 23.5 61 23.5
c20 0 36.167 -6.5 48.5 -19.5s18.5 -29.167 18.5 -48.5v-6c0 -2 -0.333008 -4 -1 -6v1z" />
    <glyph glyph-name="currency" unicode="&#xc0;" horiz-adv-x="599" 
d="M-22 -6l2.99805 18.9961c14 1.33301 25.167 6 33.5 14s15.833 18.333 22.5 31l256 498c0.666992 0.666992 1.33398 1.83398 2.00098 3.50098s1.33398 3.16699 2.00098 4.5c3.33301 6 6.16602 11.5 8.49902 16.5s3.83301 9.5 4.5 13.5v0.5
c0 0.333008 0.333008 0.833008 1 1.5v1.5v0.5c0 0.666992 -0.166992 1.33398 -0.5 2.00098s-0.5 1.33398 -0.5 2.00098c-1.33301 4.66699 -4.66602 8.83398 -9.99902 12.501s-12.666 5.5 -21.999 5.5l3 20c14.667 -2 29.5 -3.66699 44.5 -5s29.833 -2 44.5 -2
c7.33301 0 14.833 0.166992 22.5 0.5s15.5 0.833008 23.5 1.5l22.5 2l22.5 2l100 -561c4 -22.667 9.5 -38.334 16.5 -47.001s17.833 -15 32.5 -19l-3 -18l-30 2l-30 2c-10.667 0.666992 -21 1.16699 -31 1.5s-20 0.5 -30 0.5c-20.667 0 -41.334 -0.666992 -62.001 -2l-63 -4
l3 19c18 2.66699 31 6.66699 39 12s12.667 13.666 14 24.999c0.666992 2 1 4.16699 1 6.5v7.5v6c0 2 -0.333008 4.33301 -1 7c0 4 -0.333008 8.16699 -1 12.5s-1.66699 7.83301 -3 10.5l-16 98h-188l-58 -118c-2.66699 -7.33301 -5.16699 -13.833 -7.5 -19.5
s-3.83301 -11.167 -4.5 -16.5v-2.5v-3.5c0 -7.33301 3.16699 -13.166 9.5 -17.499s16.833 -7.16602 31.5 -8.49902l-3 -18c-5.33301 0.666992 -10.833 1.16699 -16.5 1.5s-11.167 0.833008 -16.5 1.5l-32.5 2c-11 0.666992 -22.167 1 -33.5 1
c-16.667 -0 -33.167 -0.666992 -49.5 -2l-49.5 -4h-1zM247.998 273.996l136 0.000976562l-0.5 1.5c-0.333008 1 -0.5 1.83301 -0.5 2.5c-5.33301 32 -10 65.167 -14 99.5s-7.33301 76.166 -10 125.499l-2 1c-9.33301 -24 -19.5 -47.667 -30.5 -71l-32.5 -69l-23.5 -46
l-22.5 -45v1zM363.998 693.997l-139 86c-15.333 9.33301 -26 18.333 -32 27s-9.33301 17.334 -10 26.001c0 11.333 4.16699 21.5 12.5 30.5s18.166 13.5 29.499 13.5c16.667 0 31.334 -5.33301 44.001 -16s24.334 -22.334 35.001 -35.001l10 -12
c3.33301 -4 6.66602 -7.66699 9.99902 -11l96 -109h-56v0z" />
    <glyph glyph-name="breve" unicode="&#xc1;" horiz-adv-x="599" 
d="M-22 -6l2.99805 18.9961c14 1.33301 25.167 6 33.5 14s15.833 18.333 22.5 31l256 498c0.666992 0.666992 1.33398 1.83398 2.00098 3.50098s1.33398 3.16699 2.00098 4.5c3.33301 6 6.16602 11.5 8.49902 16.5s3.83301 9.5 4.5 13.5v0.5
c0 0.333008 0.333008 0.833008 1 1.5v1.5v0.5c0 0.666992 -0.166992 1.33398 -0.5 2.00098s-0.5 1.33398 -0.5 2.00098c-1.33301 4.66699 -4.66602 8.83398 -9.99902 12.501s-12.666 5.5 -21.999 5.5l3 20c14.667 -2 29.5 -3.66699 44.5 -5s29.833 -2 44.5 -2
c7.33301 0 14.833 0.166992 22.5 0.5s15.5 0.833008 23.5 1.5l22.5 2l22.5 2l100 -561c4 -22.667 9.5 -38.334 16.5 -47.001s17.833 -15 32.5 -19l-3 -18l-30 2l-30 2c-10.667 0.666992 -21 1.16699 -31 1.5s-20 0.5 -30 0.5c-20.667 0 -41.334 -0.666992 -62.001 -2l-63 -4
l3 19c18 2.66699 31 6.66699 39 12s12.667 13.666 14 24.999c0.666992 2 1 4.16699 1 6.5v7.5v6c0 2 -0.333008 4.33301 -1 7c0 4 -0.333008 8.16699 -1 12.5s-1.66699 7.83301 -3 10.5l-16 98h-188l-58 -118c-2.66699 -7.33301 -5.16699 -13.833 -7.5 -19.5
s-3.83301 -11.167 -4.5 -16.5v-2.5v-3.5c0 -7.33301 3.16699 -13.166 9.5 -17.499s16.833 -7.16602 31.5 -8.49902l-3 -18c-5.33301 0.666992 -10.833 1.16699 -16.5 1.5s-11.167 0.833008 -16.5 1.5l-32.5 2c-11 0.666992 -22.167 1 -33.5 1
c-16.667 -0 -33.167 -0.666992 -49.5 -2l-49.5 -4h-1zM247.998 273.996l136 0.000976562l-0.5 1.5c-0.333008 1 -0.5 1.83301 -0.5 2.5c-5.33301 32 -10 65.167 -14 99.5s-7.33301 76.166 -10 125.499l-2 1c-9.33301 -24 -19.5 -47.667 -30.5 -71l-32.5 -69l-23.5 -46
l-22.5 -45v1zM276.998 693.997l89 109.998c3.33301 2.66699 6.5 6 9.5 10s5.83301 8 8.5 12c10 12.667 21 24.334 33 35.001s26.333 16 43 16c11.333 0 21.5 -4.5 30.5 -13.5s13.5 -19.167 13.5 -30.5v-1.5v-1.5c0 -8 -2.83301 -16.167 -8.5 -24.5
s-15.5 -17.166 -29.5 -26.499l-132 -85h-57v0z" />
    <glyph glyph-name="tilde" unicode="&#xc2;" horiz-adv-x="599" 
d="M-22 -6l2.99805 18.9961c14 1.33301 25.167 6 33.5 14s15.833 18.333 22.5 31l256 498c0.666992 0.666992 1.33398 1.83398 2.00098 3.50098s1.33398 3.16699 2.00098 4.5c3.33301 6 6.16602 11.5 8.49902 16.5s3.83301 9.5 4.5 13.5v0.5
c0 0.333008 0.333008 0.833008 1 1.5v1.5v0.5c0 0.666992 -0.166992 1.33398 -0.5 2.00098s-0.5 1.33398 -0.5 2.00098c-1.33301 4.66699 -4.66602 8.83398 -9.99902 12.501s-12.666 5.5 -21.999 5.5l3 20c14.667 -2 29.5 -3.66699 44.5 -5s29.833 -2 44.5 -2
c7.33301 0 14.833 0.166992 22.5 0.5s15.5 0.833008 23.5 1.5l22.5 2l22.5 2l100 -561c4 -22.667 9.5 -38.334 16.5 -47.001s17.833 -15 32.5 -19l-3 -18l-30 2l-30 2c-10.667 0.666992 -21 1.16699 -31 1.5s-20 0.5 -30 0.5c-20.667 0 -41.334 -0.666992 -62.001 -2l-63 -4
l3 19c18 2.66699 31 6.66699 39 12s12.667 13.666 14 24.999c0.666992 2 1 4.16699 1 6.5v7.5v6c0 2 -0.333008 4.33301 -1 7c0 4 -0.333008 8.16699 -1 12.5s-1.66699 7.83301 -3 10.5l-16 98h-188l-58 -118c-2.66699 -7.33301 -5.16699 -13.833 -7.5 -19.5
s-3.83301 -11.167 -4.5 -16.5v-2.5v-3.5c0 -7.33301 3.16699 -13.166 9.5 -17.499s16.833 -7.16602 31.5 -8.49902l-3 -18c-5.33301 0.666992 -10.833 1.16699 -16.5 1.5s-11.167 0.833008 -16.5 1.5l-32.5 2c-11 0.666992 -22.167 1 -33.5 1
c-16.667 -0 -33.167 -0.666992 -49.5 -2l-49.5 -4h-1zM247.998 273.996l136 0.000976562l-0.5 1.5c-0.333008 1 -0.5 1.83301 -0.5 2.5c-5.33301 32 -10 65.167 -14 99.5s-7.33301 76.166 -10 125.499l-2 1c-9.33301 -24 -19.5 -47.667 -30.5 -71l-32.5 -69l-23.5 -46
l-22.5 -45v1zM293.998 869.997h91l126 -176h-56l-112 99l-108 -99h-54l113 176v0z" />
    <glyph glyph-name="guilsinglleft" unicode="&#xc3;" horiz-adv-x="599" 
d="M-22 -6l2.99805 18.9961c14 1.33301 25.167 6 33.5 14s15.833 18.333 22.5 31l256 498c0.666992 0.666992 1.33398 1.83398 2.00098 3.50098s1.33398 3.16699 2.00098 4.5c3.33301 6 6.16602 11.5 8.49902 16.5s3.83301 9.5 4.5 13.5v0.5
c0 0.333008 0.333008 0.833008 1 1.5v1.5v0.5c0 0.666992 -0.166992 1.33398 -0.5 2.00098s-0.5 1.33398 -0.5 2.00098c-1.33301 4.66699 -4.66602 8.83398 -9.99902 12.501s-12.666 5.5 -21.999 5.5l3 20c14.667 -2 29.5 -3.66699 44.5 -5s29.833 -2 44.5 -2
c7.33301 0 14.833 0.166992 22.5 0.5s15.5 0.833008 23.5 1.5l22.5 2l22.5 2l100 -561c4 -22.667 9.5 -38.334 16.5 -47.001s17.833 -15 32.5 -19l-3 -18l-30 2l-30 2c-10.667 0.666992 -21 1.16699 -31 1.5s-20 0.5 -30 0.5c-20.667 0 -41.334 -0.666992 -62.001 -2l-63 -4
l3 19c18 2.66699 31 6.66699 39 12s12.667 13.666 14 24.999c0.666992 2 1 4.16699 1 6.5v7.5v6c0 2 -0.333008 4.33301 -1 7c0 4 -0.333008 8.16699 -1 12.5s-1.66699 7.83301 -3 10.5l-16 98h-188l-58 -118c-2.66699 -7.33301 -5.16699 -13.833 -7.5 -19.5
s-3.83301 -11.167 -4.5 -16.5v-2.5v-3.5c0 -7.33301 3.16699 -13.166 9.5 -17.499s16.833 -7.16602 31.5 -8.49902l-3 -18c-5.33301 0.666992 -10.833 1.16699 -16.5 1.5s-11.167 0.833008 -16.5 1.5l-32.5 2c-11 0.666992 -22.167 1 -33.5 1
c-16.667 -0 -33.167 -0.666992 -49.5 -2l-49.5 -4h-1zM247.998 273.996l136 0.000976562l-0.5 1.5c-0.333008 1 -0.5 1.83301 -0.5 2.5c-5.33301 32 -10 65.167 -14 99.5s-7.33301 76.166 -10 125.499l-2 1c-9.33301 -24 -19.5 -47.667 -30.5 -71l-32.5 -69l-23.5 -46
l-22.5 -45v1zM466.998 837.997h42.9951c0 -1.33301 -0.166992 -2.5 -0.5 -3.5s-0.5 -2.16699 -0.5 -3.5c-6.66699 -29.333 -18.5 -56.333 -35.5 -81s-42.833 -37 -77.5 -37c-4 0 -7.83301 0.166992 -11.5 0.5s-7.5 0.833008 -11.5 1.5c-10 2.66699 -20.167 6 -30.5 10
s-20.166 8.33301 -29.499 13l-39 16.5c-12 5 -23 7.5 -33 7.5c-10.667 0 -20.167 -4.83301 -28.5 -14.5s-13.166 -20.834 -14.499 -33.501l-41 1c3.33301 30.667 14 58.667 32 84s44.333 38 79 38c14.667 0 28.834 -2.5 42.501 -7.5s26.834 -10.5 39.501 -16.5
s24.834 -11.5 36.501 -16.5s22.5 -7.5 32.5 -7.5c14.667 0 25 4.33301 31 13s11.333 19.334 16 32.001c0 0.666992 0.166992 1.16699 0.5 1.5s0.5 0.833008 0.5 1.5v1z" />
    <glyph glyph-name="Adieresis" unicode="&#xc4;" horiz-adv-x="599" 
d="M-22 -6l2.99805 18.9961c14 1.33301 25.167 6 33.5 14s15.833 18.333 22.5 31l256 498c0.666992 0.666992 1.33398 1.83398 2.00098 3.50098s1.33398 3.16699 2.00098 4.5c3.33301 6 6.16602 11.5 8.49902 16.5s3.83301 9.5 4.5 13.5v0.5
c0 0.333008 0.333008 0.833008 1 1.5v1.5v0.5c0 0.666992 -0.166992 1.33398 -0.5 2.00098s-0.5 1.33398 -0.5 2.00098c-1.33301 4.66699 -4.66602 8.83398 -9.99902 12.501s-12.666 5.5 -21.999 5.5l3 20c14.667 -2 29.5 -3.66699 44.5 -5s29.833 -2 44.5 -2
c7.33301 0 14.833 0.166992 22.5 0.5s15.5 0.833008 23.5 1.5l22.5 2l22.5 2l100 -561c4 -22.667 9.5 -38.334 16.5 -47.001s17.833 -15 32.5 -19l-3 -18l-30 2l-30 2c-10.667 0.666992 -21 1.16699 -31 1.5s-20 0.5 -30 0.5c-20.667 0 -41.334 -0.666992 -62.001 -2l-63 -4
l3 19c18 2.66699 31 6.66699 39 12s12.667 13.666 14 24.999c0.666992 2 1 4.16699 1 6.5v7.5v6c0 2 -0.333008 4.33301 -1 7c0 4 -0.333008 8.16699 -1 12.5s-1.66699 7.83301 -3 10.5l-16 98h-188l-58 -118c-2.66699 -7.33301 -5.16699 -13.833 -7.5 -19.5
s-3.83301 -11.167 -4.5 -16.5v-2.5v-3.5c0 -7.33301 3.16699 -13.166 9.5 -17.499s16.833 -7.16602 31.5 -8.49902l-3 -18c-5.33301 0.666992 -10.833 1.16699 -16.5 1.5s-11.167 0.833008 -16.5 1.5l-32.5 2c-11 0.666992 -22.167 1 -33.5 1
c-16.667 -0 -33.167 -0.666992 -49.5 -2l-49.5 -4h-1zM247.998 273.996l136 0.000976562l-0.5 1.5c-0.333008 1 -0.5 1.83301 -0.5 2.5c-5.33301 32 -10 65.167 -14 99.5s-7.33301 76.166 -10 125.499l-2 1c-9.33301 -24 -19.5 -47.667 -30.5 -71l-32.5 -69l-23.5 -46
l-22.5 -45v1zM171.998 765.997l-0.000976562 0.5v1.5c0 17.333 6 32 18 44s26.667 18 44 18s32.333 -6.33301 45 -19s19.334 -28 20.001 -46v-0.5v-1.5v-1.5v-0.5c0 -16.667 -5.83301 -31 -17.5 -43s-26.167 -18 -43.5 -18s-32.5 6.33301 -45.5 19s-19.833 28 -20.5 46v1z
M377.997 765.997l-0.000976562 0.5v1.5c0 17.333 6 32 18 44s26.333 18 43 18c18 0 33.333 -6.33301 46 -19s19.334 -28 20.001 -46v-0.5v-1.5v-1.5v-0.5c0 -16.667 -5.83301 -31 -17.5 -43s-26.167 -18 -43.5 -18s-32.5 6.33301 -45.5 19s-19.833 28 -20.5 46v1z" />
    <glyph glyph-name="Aring" unicode="&#xc5;" horiz-adv-x="599" 
d="M-22 -6l2.99805 18.9961c14 1.33301 25.167 6 33.5 14s15.833 18.333 22.5 31l256 498c0.666992 0.666992 1.33398 1.83398 2.00098 3.50098s1.33398 3.16699 2.00098 4.5c3.33301 6 6.16602 11.5 8.49902 16.5s3.83301 9.5 4.5 13.5v0.5
c0 0.333008 0.333008 0.833008 1 1.5v1.5v0.5c0 0.666992 -0.166992 1.33398 -0.5 2.00098s-0.5 1.33398 -0.5 2.00098c-1.33301 4.66699 -4.66602 8.83398 -9.99902 12.501s-12.666 5.5 -21.999 5.5l3 20c14.667 -2 29.5 -3.66699 44.5 -5s29.833 -2 44.5 -2
c7.33301 0 14.833 0.166992 22.5 0.5s15.5 0.833008 23.5 1.5l22.5 2l22.5 2l100 -561c4 -22.667 9.5 -38.334 16.5 -47.001s17.833 -15 32.5 -19l-3 -18l-30 2l-30 2c-10.667 0.666992 -21 1.16699 -31 1.5s-20 0.5 -30 0.5c-20.667 0 -41.334 -0.666992 -62.001 -2l-63 -4
l3 19c18 2.66699 31 6.66699 39 12s12.667 13.666 14 24.999c0.666992 2 1 4.16699 1 6.5v7.5v6c0 2 -0.333008 4.33301 -1 7c0 4 -0.333008 8.16699 -1 12.5s-1.66699 7.83301 -3 10.5l-16 98h-188l-58 -118c-2.66699 -7.33301 -5.16699 -13.833 -7.5 -19.5
s-3.83301 -11.167 -4.5 -16.5v-2.5v-3.5c0 -7.33301 3.16699 -13.166 9.5 -17.499s16.833 -7.16602 31.5 -8.49902l-3 -18c-5.33301 0.666992 -10.833 1.16699 -16.5 1.5s-11.167 0.833008 -16.5 1.5l-32.5 2c-11 0.666992 -22.167 1 -33.5 1
c-16.667 -0 -33.167 -0.666992 -49.5 -2l-49.5 -4h-1zM247.998 273.996l136 0.000976562l-0.5 1.5c-0.333008 1 -0.5 1.83301 -0.5 2.5c-5.33301 32 -10 65.167 -14 99.5s-7.33301 76.166 -10 125.499l-2 1c-9.33301 -24 -19.5 -47.667 -30.5 -71l-32.5 -69l-23.5 -46
l-22.5 -45v1zM258.998 779.997c0 -0.666992 0 -0.833008 0 -0.5v1.5v1.5v0.5c0 28.667 9.66699 52.834 29 72.501s43.333 29.5 72 29.5s53.5 -10.333 74.5 -31s31.833 -45.667 32.5 -75v-0.5v-1.5v-1.5v-0.5c0 -28.667 -9.5 -52.834 -28.5 -72.501
s-42.833 -29.5 -71.5 -29.5s-53.5 10.333 -74.5 31s-32.167 45.667 -33.5 75v1zM303.998 779.998c1.33301 -17.333 7.83203 -31.834 19.499 -43.501s25.5 -17.5 41.5 -17.5s29.5 5.66699 40.5 17s16.5 25 16.5 41v0.5v0.5v0.5v0.5c-0.666992 16.667 -7 30.834 -19 42.501
s-26 17.5 -42 17.5c-15.333 0 -28.666 -5.66699 -39.999 -17s-17 -25 -17 -41v-0.5v-0.5v-0.5v-0.5v1z" />
    <glyph glyph-name="Oslash" unicode="&#xc6;" horiz-adv-x="871" 
d="M572 285l-33.998 -197.001h204c30.667 -0.666992 54.5 8.33301 71.5 27s29.5 43.334 37.5 74.001l24 1l-29.5 -100.5c-8.33301 -27.667 -15.166 -54.167 -20.499 -79.5c0 -2 -0.166992 -3.83301 -0.5 -5.5s-0.833008 -3.16699 -1.5 -4.5h-499l3 19
c20.667 0 35.667 4.33301 45 13s15 19 17 31l25 143h-188l-84 -121l-8.5 -14.5c-3 -5 -5.5 -9.83301 -7.5 -14.5c-0.666992 -2 -1.33398 -4.16699 -2.00098 -6.5s-1.33398 -4.83301 -2.00098 -7.5v-1.5v-0.5v-1.5v-1.5c0 -5.33301 1.5 -10.5 4.5 -15.5
s9.83301 -8.16699 20.5 -9.5l22 1l-4 -19l-56 4c-18.667 1.33301 -37.334 2 -56.001 2c-9.33301 -0 -18.833 -0.166992 -28.5 -0.5s-19.167 -0.833008 -28.5 -1.5l-28.5 -2l-28.5 -2l3 19c18.667 -0.666992 33.667 2.66602 45 9.99902s20.666 15.333 27.999 24
c1.33301 1.33301 2.66602 2.83301 3.99902 4.5s2.33301 3.16699 3 4.5l313 449l37 49c9.33301 12.667 14.666 24 15.999 34c0 0.666992 0.166992 1.33398 0.5 2.00098s0.5 1.33398 0.5 2.00098v1v2c-0.666992 7.33301 -5.16699 12.333 -13.5 15s-22.833 4 -43.5 4l3 20h578
c-2.66699 -18.667 -5.16699 -37 -7.5 -55s-4.5 -36 -6.5 -54c-1.33301 -9.33301 -2.5 -18.333 -3.5 -27s-1.83301 -17.667 -2.5 -27l-19 1c0 26.667 -4 45.5 -12 56.5s-25.333 16.5 -52 16.5l-193 1l-30 -173h113c20 -0.666992 34 2.16602 42 8.49902s14.667 16.833 20 31.5
c0.666992 1.33301 1.33398 2.83301 2.00098 4.5s1.33398 3.5 2.00098 5.5l19 1c-2 -8.66699 -4.16699 -17 -6.5 -25s-4.16602 -15.667 -5.49902 -23c-2 -8 -3.83301 -16 -5.5 -24s-3.16699 -16 -4.5 -24s-2.5 -16 -3.5 -24s-1.83301 -15.667 -2.5 -23
c0 -4 -0.166992 -8 -0.5 -12s-0.833008 -8 -1.5 -12c0 -4 -0.166992 -8 -0.5 -12s-0.833008 -8 -1.5 -12l-19 1c-0.666992 17.333 -3.5 30 -8.5 38s-19.167 12 -42.5 12l-111 1v0zM284.002 287.999h143l45 258h-9l-179 -258v0z" />
    <glyph glyph-name="Ccedilla" unicode="&#xc7;" horiz-adv-x="599" 
d="M251 -197l13.9971 32.0039c4.66699 -2 9.16699 -3.66699 13.5 -5l12.5 -4c7.33301 -1.33301 14.666 -2.33301 21.999 -3s15 -1 23 -1c11.333 0 21.333 3.33301 30 10s13 16.667 13 30v0.5v0.5v0.5v0.5c-0.666992 11.333 -5 19.833 -13 25.5s-17.667 8.5 -29 8.5
c-5.33301 0 -10.666 -0.333008 -15.999 -1s-10.666 -1.66699 -15.999 -3l-10 10l39 96h40l-24 -67c5.33301 1.33301 11 2.5 17 3.5s13.333 1.5 22 1.5h2.5h3.5c20 -0.666992 38.5 -5.83398 55.5 -15.501s25.833 -26.834 26.5 -51.501v-0.5v-1.5v-1.5v-0.5
c0 -31.333 -13 -53.333 -39 -66s-57.333 -19 -94 -19c-5.33301 0 -10.666 0.166992 -15.999 0.5s-11 1.16602 -17 2.49902c-11.333 1.33301 -22.166 3.66602 -32.499 6.99902s-19.5 7 -27.5 11v0zM541.997 151.004l-26.998 -106.999c-13.333 -10 -27.333 -18.667 -42 -26
s-29.667 -13.333 -45 -18c-22.667 -8 -44.5 -13.667 -65.5 -17s-39.5 -5 -55.5 -5c-94 0 -164.667 28.833 -212 86.5s-71 124.5 -71 200.5c0 8 0.333008 16 1 24l2 24c12.667 87.333 52.5 166.166 119.5 236.499s156.833 105.5 269.5 105.5
c27.333 0 51.833 -1.66699 73.5 -5s39.5 -6.66602 53.5 -9.99902c6.66699 -2 12.334 -3.83301 17.001 -5.5s8.66699 -3.16699 12 -4.5c-4.66699 -34 -8.83398 -67.333 -12.501 -100s-6.5 -65.334 -8.5 -98.001l-18 1c-2 40.667 -16 71.834 -42 93.501
s-59.667 32.5 -101 32.5c-54 0 -102.333 -21 -145 -63s-69.667 -100.667 -81 -176c-0.666992 -4.66699 -1.16699 -9.33398 -1.5 -14.001s-0.5 -9.66699 -0.5 -15v-2.5v-3.5c1.33301 -51.333 18.666 -98.5 51.999 -141.5s78.333 -64.5 135 -64.5c14.667 0 31.167 2 49.5 6
s37.166 9.66699 56.499 17c14.667 6 29.5 13 44.5 21s29.167 17 42.5 27v1z" />
    <glyph glyph-name="ring" unicode="&#xc8;" horiz-adv-x="620" 
d="M97 61l69.998 512.004c0.666992 1.33301 1 3 1 5v5c0 10 -3 17.5 -9 22.5s-16 7.83301 -30 8.5l2 20h481l-6 -55c-2 -18 -3.66699 -36 -5 -54l-2 -27l-2 -27l-17 1c-0.666992 26.667 -5.33398 45.5 -14.001 56.5s-26 16.5 -52 16.5l-209 1l-24 -173h132
c20 -0.666992 33.667 2.33301 41 9s13.333 17.667 18 33c0.666992 1.33301 1.16699 2.66602 1.5 3.99902s0.833008 2.66602 1.5 3.99902l18 1c-1.33301 -6 -2.66602 -12.333 -3.99902 -19l-4 -21c0 -2 -0.166992 -3.83301 -0.5 -5.5s-0.5 -3.5 -0.5 -5.5
c-2 -8 -3.66699 -15.833 -5 -23.5s-2.33301 -14.834 -3 -21.501c-1.33301 -6 -2.5 -12.833 -3.5 -20.5s-1.83301 -15.5 -2.5 -23.5c-0.666992 -10 -1.16699 -19.333 -1.5 -28s-0.5 -16.334 -0.5 -23.001l-18 1c-0.666992 17.333 -3.5 30 -8.5 38s-18.5 12 -40.5 12l-131 1
l-27 -197h219c20.667 -0.666992 37 3 49 11s23.333 24 34 48c2.66699 6 5.16699 12.5 7.5 19.5l7.5 22.5l24 1c-8.66699 -39.333 -15.667 -72.833 -21 -100.5s-9.66602 -54.167 -12.999 -79.5c-0.666992 -2 -1.16699 -3.83301 -1.5 -5.5s-0.5 -3.16699 -0.5 -4.5h-504l2 19
c16.667 0 28.834 3.33301 36.501 10s12.5 17 14.5 31v1zM363.998 694.004l-139 86c-15.333 9.33301 -26 18.333 -32 27s-9.33301 17.334 -10 26.001c0 11.333 4.16699 21.5 12.5 30.5s18.166 13.5 29.499 13.5c16.667 0 31.334 -5.33301 44.001 -16
s24.334 -22.334 35.001 -35.001l10 -12c3.33301 -4 6.66602 -7.66699 9.99902 -11l96 -109h-56v0z" />
    <glyph glyph-name="Eacute" unicode="&#xc9;" horiz-adv-x="599" 
d="M97 61l69.998 512.004c0.666992 1.33301 1 3 1 5v5c0 10 -3 17.5 -9 22.5s-16 7.83301 -30 8.5l2 20h481l-6 -55c-2 -18 -3.66699 -36 -5 -54l-2 -27l-2 -27l-17 1c-0.666992 26.667 -5.33398 45.5 -14.001 56.5s-26 16.5 -52 16.5l-209 1l-24 -173h132
c20 -0.666992 33.667 2.33301 41 9s13.333 17.667 18 33c0.666992 1.33301 1.16699 2.66602 1.5 3.99902s0.833008 2.66602 1.5 3.99902l18 1c-1.33301 -6 -2.66602 -12.333 -3.99902 -19l-4 -21c0 -2 -0.166992 -3.83301 -0.5 -5.5s-0.5 -3.5 -0.5 -5.5
c-2 -8 -3.66699 -15.833 -5 -23.5s-2.33301 -14.834 -3 -21.501c-1.33301 -6 -2.5 -12.833 -3.5 -20.5s-1.83301 -15.5 -2.5 -23.5c-0.666992 -10 -1.16699 -19.333 -1.5 -28s-0.5 -16.334 -0.5 -23.001l-18 1c-0.666992 17.333 -3.5 30 -8.5 38s-18.5 12 -40.5 12l-131 1
l-27 -197h219c20.667 -0.666992 37 3 49 11s23.333 24 34 48c2.66699 6 5.16699 12.5 7.5 19.5l7.5 22.5l24 1c-8.66699 -39.333 -15.667 -72.833 -21 -100.5s-9.66602 -54.167 -12.999 -79.5c-0.666992 -2 -1.16699 -3.83301 -1.5 -5.5s-0.5 -3.16699 -0.5 -4.5h-504l2 19
c16.667 0 28.834 3.33301 36.501 10s12.5 17 14.5 31v1zM266.998 694.004l89 109.998c3.33301 2.66699 6.5 6 9.5 10s5.83301 8 8.5 12c10 12.667 21 24.334 33 35.001s26.333 16 43 16c11.333 0 21.5 -4.5 30.5 -13.5s13.5 -19.167 13.5 -30.5v-1.5v-1.5
c0 -8 -2.83301 -16.167 -8.5 -24.5s-15.5 -17.166 -29.5 -26.499l-132 -85h-57v0z" />
    <glyph glyph-name="macron" unicode="&#xca;" horiz-adv-x="620" 
d="M97 61l69.998 512.004c0.666992 1.33301 1 3 1 5v5c0 10 -3 17.5 -9 22.5s-16 7.83301 -30 8.5l2 20h481l-6 -55c-2 -18 -3.66699 -36 -5 -54l-2 -27l-2 -27l-17 1c-0.666992 26.667 -5.33398 45.5 -14.001 56.5s-26 16.5 -52 16.5l-209 1l-24 -173h132
c20 -0.666992 33.667 2.33301 41 9s13.333 17.667 18 33c0.666992 1.33301 1.16699 2.66602 1.5 3.99902s0.833008 2.66602 1.5 3.99902l18 1c-1.33301 -6 -2.66602 -12.333 -3.99902 -19l-4 -21c0 -2 -0.166992 -3.83301 -0.5 -5.5s-0.5 -3.5 -0.5 -5.5
c-2 -8 -3.66699 -15.833 -5 -23.5s-2.33301 -14.834 -3 -21.501c-1.33301 -6 -2.5 -12.833 -3.5 -20.5s-1.83301 -15.5 -2.5 -23.5c-0.666992 -10 -1.16699 -19.333 -1.5 -28s-0.5 -16.334 -0.5 -23.001l-18 1c-0.666992 17.333 -3.5 30 -8.5 38s-18.5 12 -40.5 12l-131 1
l-27 -197h219c20.667 -0.666992 37 3 49 11s23.333 24 34 48c2.66699 6 5.16699 12.5 7.5 19.5l7.5 22.5l24 1c-8.66699 -39.333 -15.667 -72.833 -21 -100.5s-9.66602 -54.167 -12.999 -79.5c-0.666992 -2 -1.16699 -3.83301 -1.5 -5.5s-0.5 -3.16699 -0.5 -4.5h-504l2 19
c16.667 0 28.834 3.33301 36.501 10s12.5 17 14.5 31v1zM318.998 870.004h91l126 -176h-56l-112 99l-108 -99h-54l113 176v0z" />
    <glyph glyph-name="dotaccent" unicode="&#xcb;" horiz-adv-x="620" 
d="M97 61l69.998 512.004c0.666992 1.33301 1 3 1 5v5c0 10 -3 17.5 -9 22.5s-16 7.83301 -30 8.5l2 20h481l-6 -55c-2 -18 -3.66699 -36 -5 -54l-2 -27l-2 -27l-17 1c-0.666992 26.667 -5.33398 45.5 -14.001 56.5s-26 16.5 -52 16.5l-209 1l-24 -173h132
c20 -0.666992 33.667 2.33301 41 9s13.333 17.667 18 33c0.666992 1.33301 1.16699 2.66602 1.5 3.99902s0.833008 2.66602 1.5 3.99902l18 1c-1.33301 -6 -2.66602 -12.333 -3.99902 -19l-4 -21c0 -2 -0.166992 -3.83301 -0.5 -5.5s-0.5 -3.5 -0.5 -5.5
c-2 -8 -3.66699 -15.833 -5 -23.5s-2.33301 -14.834 -3 -21.501c-1.33301 -6 -2.5 -12.833 -3.5 -20.5s-1.83301 -15.5 -2.5 -23.5c-0.666992 -10 -1.16699 -19.333 -1.5 -28s-0.5 -16.334 -0.5 -23.001l-18 1c-0.666992 17.333 -3.5 30 -8.5 38s-18.5 12 -40.5 12l-131 1
l-27 -197h219c20.667 -0.666992 37 3 49 11s23.333 24 34 48c2.66699 6 5.16699 12.5 7.5 19.5l7.5 22.5l24 1c-8.66699 -39.333 -15.667 -72.833 -21 -100.5s-9.66602 -54.167 -12.999 -79.5c-0.666992 -2 -1.16699 -3.83301 -1.5 -5.5s-0.5 -3.16699 -0.5 -4.5h-504l2 19
c16.667 0 28.834 3.33301 36.501 10s12.5 17 14.5 31v1zM186.998 766.004l-0.000976562 0.5v1.5c0 17.333 6 32 18 44s26.667 18 44 18s32.333 -6.33301 45 -19s19.334 -28 20.001 -46v-0.5v-1.5v-1.5v-0.5c0 -16.667 -5.83301 -31 -17.5 -43s-26.167 -18 -43.5 -18
s-32.5 6.33301 -45.5 19s-19.833 28 -20.5 46v1zM392.997 766.004l-0.000976562 0.5v1.5c0 17.333 6 32 18 44s26.333 18 43 18c18 0 33.333 -6.33301 46 -19s19.334 -28 20.001 -46v-0.5v-1.5v-1.5v-0.5c0 -16.667 -5.83301 -31 -17.5 -43s-26.167 -18 -43.5 -18
s-32.5 6.33301 -45.5 19s-19.833 28 -20.5 46v1z" />
    <glyph glyph-name="caron" unicode="&#xcc;" horiz-adv-x="325" 
d="M96 55l71 524.002c0.666992 1.33301 1 3 1 5v5c0 10 -3 17.5 -9 22.5s-16 7.83301 -30 8.5l3 20c20.667 -2 40.5 -3.66699 59.5 -5s37.167 -2 54.5 -2c18 0 36.5 0.666992 55.5 2s39.167 2.66602 60.5 3.99902l-3 -18c-16 -1.33301 -27.833 -5.33301 -35.5 -12
s-12.5 -17 -14.5 -31l-71 -523c-0.666992 -2.66699 -1 -4.83398 -1 -6.50098v-4.5c0 -10.667 3.16699 -18.5 9.5 -23.5s16.5 -7.83301 30.5 -8.5l-3 -18c-21.333 1.33301 -41.333 2.66602 -60 3.99902s-36.667 2 -54 2c-18.667 0 -37.5 -0.666992 -56.5 -2
s-39.167 -2.66602 -60.5 -3.99902l4 19c16 0 27.667 3.33301 35 10s12 17 14 31v1zM221 694.002l-138.003 86.001c-15.333 9.33301 -26 18.333 -32 27s-9.33301 17.334 -10 26.001v0.5v0.5v0.5v0.5c0 11.333 4.33301 21.166 13 29.499s18.334 12.5 29.001 12.5
c16.667 0 31.334 -5.33301 44.001 -16s24.334 -22.334 35.001 -35.001c3.33301 -4 6.5 -8 9.5 -12s6.16699 -7.66699 9.5 -11l97 -109h-57v0z" />
    <glyph glyph-name="cedilla" unicode="&#xcd;" horiz-adv-x="325" 
d="M96 55l71 524.002c0.666992 1.33301 1 3 1 5v5c0 10 -3 17.5 -9 22.5s-16 7.83301 -30 8.5l3 20c20.667 -2 40.5 -3.66699 59.5 -5s37.167 -2 54.5 -2c18 0 36.5 0.666992 55.5 2s39.167 2.66602 60.5 3.99902l-3 -18c-16 -1.33301 -27.833 -5.33301 -35.5 -12
s-12.5 -17 -14.5 -31l-71 -523c-0.666992 -2.66699 -1 -4.83398 -1 -6.50098v-4.5c0 -10.667 3.16699 -18.5 9.5 -23.5s16.5 -7.83301 30.5 -8.5l-3 -18c-21.333 1.33301 -41.333 2.66602 -60 3.99902s-36.667 2 -54 2c-18.667 0 -37.5 -0.666992 -56.5 -2
s-39.167 -2.66602 -60.5 -3.99902l4 19c16 0 27.667 3.33301 35 10s12 17 14 31v1zM175 694.002l89 109.998c2.66699 2.66699 5.5 6 8.5 10s6.16699 8 9.5 12c9.33301 12.667 20 24.334 32 35.001s26.667 16 44 16c11.333 0 21.333 -4.5 30 -13.5
s13.334 -19.167 14.001 -30.5v-1.5v-0.5c0 -2 -0.166992 -4 -0.5 -6s-0.833008 -4.33301 -1.5 -7c-2 -6 -5.83301 -12.167 -11.5 -18.5s-13.834 -13.166 -24.501 -20.499l-133 -85h-56v0z" />
    <glyph glyph-name="hungarumlaut" unicode="&#xce;" horiz-adv-x="325" 
d="M96 55l71 524.002c0.666992 1.33301 1 3 1 5v5c0 10 -3 17.5 -9 22.5s-16 7.83301 -30 8.5l3 20c20.667 -2 40.5 -3.66699 59.5 -5s37.167 -2 54.5 -2c18 0 36.5 0.666992 55.5 2s39.167 2.66602 60.5 3.99902l-3 -18c-16 -1.33301 -27.833 -5.33301 -35.5 -12
s-12.5 -17 -14.5 -31l-71 -523c-0.666992 -2.66699 -1 -4.83398 -1 -6.50098v-4.5c0 -10.667 3.16699 -18.5 9.5 -23.5s16.5 -7.83301 30.5 -8.5l-3 -18c-21.333 1.33301 -41.333 2.66602 -60 3.99902s-36.667 2 -54 2c-18.667 0 -37.5 -0.666992 -56.5 -2
s-39.167 -2.66602 -60.5 -3.99902l4 19c16 0 27.667 3.33301 35 10s12 17 14 31v1zM142 870.002h91l126 -176h-56l-112 99l-108 -99h-54l113 176v0z" />
    <glyph glyph-name="ogonek" unicode="&#xcf;" horiz-adv-x="325" 
d="M96 55l71 524.002c0.666992 1.33301 1 3 1 5v5c0 10 -3 17.5 -9 22.5s-16 7.83301 -30 8.5l3 20c20.667 -2 40.5 -3.66699 59.5 -5s37.167 -2 54.5 -2c18 0 36.5 0.666992 55.5 2s39.167 2.66602 60.5 3.99902l-3 -18c-16 -1.33301 -27.833 -5.33301 -35.5 -12
s-12.5 -17 -14.5 -31l-71 -523c-0.666992 -2.66699 -1 -4.83398 -1 -6.50098v-4.5c0 -10.667 3.16699 -18.5 9.5 -23.5s16.5 -7.83301 30.5 -8.5l-3 -18c-21.333 1.33301 -41.333 2.66602 -60 3.99902s-36.667 2 -54 2c-18.667 0 -37.5 -0.666992 -56.5 -2
s-39.167 -2.66602 -60.5 -3.99902l4 19c16 0 27.667 3.33301 35 10s12 17 14 31v1zM50 766.002l-0.000976562 0.5v1.5c0 17.333 6 32 18 44s26.333 18 43 18c18 0 33.333 -6.33301 46 -19s19.334 -28 20.001 -46v-0.5v-1.5v-1.5v-0.5c0 -16.667 -5.83301 -31 -17.5 -43
s-26.167 -18 -43.5 -18s-32.5 6.33301 -45.5 19s-19.833 28 -20.5 46v1zM255.999 766.002c0 -0.666992 0.000976562 -0.833008 0.000976562 -0.5v1.5v1.5v0.5c0 17.333 6 31.833 18 43.5s26.333 17.5 43 17.5c17.333 0 32.5 -6.33301 45.5 -19s19.833 -28 20.5 -46v-1.5
v-1.5c0 -16.667 -5.83301 -31.167 -17.5 -43.5s-26.167 -18.5 -43.5 -18.5c-18 0 -33.333 6.33301 -46 19s-19.334 28 -20.001 46v1z" />
    <glyph glyph-name="glyph232" unicode="&#xd0;" horiz-adv-x="708" 
d="M74 291l14.001 82h67l35 200c0.666992 2 1 4 1 6v6c0 9.33301 -3 16.333 -9 21s-15.667 7.33398 -29 8.00098l3 20h298c74 -0.666992 139.5 -19.834 196.5 -57.501s85.5 -99.834 85.5 -186.501c0 -10 -0.5 -20.5 -1.5 -31.5s-2.5 -22.5 -4.5 -34.5
c-16.667 -97.333 -63.834 -175.166 -141.501 -233.499s-161.167 -88.5 -250.5 -90.5h-5.5h-5.5h-282l3 19c16.667 0 29 3.33301 37 10s13.333 17 16 31l40 231h-67v0zM330.001 546l-30 -172.999h165l-13 -82h-166l-35 -203h74c63.333 -0.666992 119.333 19.5 168 60.5
s77.667 89.833 87 146.5c2 11.333 3.5 22.166 4.5 32.499s1.5 20.5 1.5 30.5c0 54.667 -15.5 99.5 -46.5 134.5s-80.833 52.5 -149.5 52.5l-60 1v0z" />
    <glyph glyph-name="Ntilde" unicode="&#xd1;" horiz-adv-x="708" 
d="M101 55l71.002 523.999c0.666992 1.33301 1 3 1 5v5c0 10 -3 17.5 -9 22.5s-16 7.83301 -30 8.5l3 20c20.667 -2 40.334 -3.66699 59.001 -5s37 -2 55 -2c13.333 0 27.166 0.333008 41.499 1s29.166 2.33398 44.499 5.00098l207 -427l48 353c0.666992 2 1 4.16699 1 6.5
v6.5c0 17.333 -4.5 28.5 -13.5 33.5s-19.167 7.83301 -30.5 8.5h-3.5h-3.5l4 20c15.333 -2 30.666 -3.66699 45.999 -5s30.333 -2 45 -2c8 0 16 0.166992 24 0.5s16 0.833008 24 1.5l23 2l24 2l-4 -18c-16 -1.33301 -27.667 -5.33301 -35 -12s-12 -17 -14 -31l-79 -584h-102
l-250 504h-1l-59 -429c-0.666992 -3.33301 -1 -6.33301 -1 -9v-7c0 -16 4.16699 -26.667 12.5 -32s17.5 -8.33301 27.5 -9h5.5h5.5l-4 -18l-46 4c-15.333 1.33301 -30.333 2 -45 2c-8 -0 -15.833 -0.166992 -23.5 -0.5s-15.5 -0.833008 -23.5 -1.5l-24 -2l-24 -2l3 19
c16.667 0 28.667 3.33301 36 10s12 17 14 31v1zM576.002 837.999l41.9941 0.00292969c0 -1.33301 -0.166992 -2.5 -0.5 -3.5s-0.5 -2.16699 -0.5 -3.5c-6 -29.333 -17.5 -56.333 -34.5 -81s-42.833 -37 -77.5 -37c-4 0 -7.83301 0.166992 -11.5 0.5s-7.5 0.833008 -11.5 1.5
c-10 2.66699 -20.167 6 -30.5 10s-20.166 8.33301 -29.499 13l-39 16.5c-12 5 -23 7.5 -33 7.5c-10.667 0 -20.167 -4.83301 -28.5 -14.5s-13.166 -20.834 -14.499 -33.501l-41 1c3.33301 30.667 14 58.667 32 84s44.333 38 79 38c14.667 0 28.834 -2.5 42.501 -7.5
s26.834 -10.5 39.501 -16.5s24.834 -11.5 36.501 -16.5s22.5 -7.5 32.5 -7.5c14 0 23.833 3.83301 29.5 11.5s10.834 17.167 15.501 28.5c0.666992 1.33301 1.16699 2.66602 1.5 3.99902s0.833008 2.66602 1.5 3.99902v1z" />
    <glyph glyph-name="scaron" unicode="&#xd2;" horiz-adv-x="695" 
d="M663 316c-14.667 -106 -57.834 -188.834 -129.501 -248.501s-150.167 -89.5 -235.5 -89.5s-150.5 28.833 -195.5 86.5s-67.5 126.167 -67.5 205.5c0 9.33301 0.333008 18.833 1 28.5s1.66699 19.167 3 28.5c12.667 95.333 53 173.833 121 235.5s146 92.5 234 92.5
c88.667 0 156.334 -28.5 203.001 -85.5s70 -124.5 70 -202.5c0 -8.66699 -0.333008 -17.167 -1 -25.5s-1.66699 -17.166 -3 -26.499v1zM514 273.999c1.33301 10.667 2.5 21.6689 3.5 33.002s1.5 23 1.5 35v9.5v9.5c-2 49.333 -14.167 94.666 -36.5 135.999
s-61.166 62 -116.499 62c-44.667 0 -80.167 -14 -106.5 -42s-45.833 -59 -58.5 -93c-4 -10.667 -7.33301 -21.334 -10 -32.001s-4.66699 -21 -6 -31s-2.33301 -20.167 -3 -30.5s-1 -21.166 -1 -32.499v-14c0 -4.66699 0.333008 -9.33398 1 -14.001
c2.66699 -49.333 15.5 -94.5 38.5 -135.5s60.5 -61.5 112.5 -61.5c49.333 0 90.166 19.667 122.499 59s51.833 86.333 58.5 141v1zM387 694.001l-138.003 86.001c-15.333 9.33301 -26 18.333 -32 27s-9.33301 17.334 -10 26.001v0.5v0.5v0.5v0.5
c0 11.333 4.33301 21.166 13 29.499s18.334 12.5 29.001 12.5c16.667 0 31.334 -5.33301 44.001 -16s24.334 -22.334 35.001 -35.001c3.33301 -4 6.5 -8 9.5 -12s6.16699 -7.66699 9.5 -11l97 -109h-57v0z" />
    <glyph glyph-name="Lslash" unicode="&#xd3;" horiz-adv-x="680" 
d="M658 316c-14.667 -106 -57.834 -188.834 -129.501 -248.501s-150.167 -89.5 -235.5 -89.5s-150.5 28.833 -195.5 86.5s-67.5 126.167 -67.5 205.5c0 9.33301 0.333008 18.833 1 28.5s1.66699 19.167 3 28.5c12.667 95.333 53 173.833 121 235.5s146 92.5 234 92.5
c88.667 0 156.334 -28.5 203.001 -85.5s70 -124.5 70 -202.5c0 -8.66699 -0.333008 -17.167 -1 -25.5s-1.66699 -17.166 -3 -26.499v1zM509 273.999c1.33301 10.667 2.5 21.6689 3.5 33.002s1.5 23 1.5 35v9.5v9.5c-2 49.333 -14.167 94.666 -36.5 135.999
s-61.166 62 -116.499 62c-44.667 0 -80.167 -14 -106.5 -42s-45.833 -59 -58.5 -93c-4 -10.667 -7.33301 -21.334 -10 -32.001s-4.66699 -21 -6 -31s-2.33301 -20.167 -3 -30.5s-1 -21.166 -1 -32.499v-14c0 -4.66699 0.333008 -9.33398 1 -14.001
c2.66699 -49.333 15.5 -94.5 38.5 -135.5s60.5 -61.5 112.5 -61.5c49.333 0 90.166 19.667 122.499 59s51.833 86.333 58.5 141v1zM271 694.001l88.999 109.998c3.33301 2.66699 6.5 6 9.5 10s5.83301 8 8.5 12c10 12.667 21 24.334 33 35.001s26.333 16 43 16
c11.333 0 21.333 -4.5 30 -13.5s13.334 -19.167 14.001 -30.5v-1.5v-1.5c0 -8 -2.83301 -16.167 -8.5 -24.5s-15.5 -17.166 -29.5 -26.499l-132 -85h-57v0z" />
    <glyph glyph-name="lslash" unicode="&#xd4;" horiz-adv-x="690" 
d="M653 316c-14.667 -106 -57.834 -188.834 -129.501 -248.501s-150.167 -89.5 -235.5 -89.5s-150.5 28.833 -195.5 86.5s-67.5 126.167 -67.5 205.5c0 9.33301 0.333008 18.833 1 28.5s1.66699 19.167 3 28.5c12.667 95.333 53 173.833 121 235.5s146 92.5 234 92.5
c88.667 0 156.334 -28.5 203.001 -85.5s70 -124.5 70 -202.5c0 -8.66699 -0.333008 -17.167 -1 -25.5s-1.66699 -17.166 -3 -26.499v1zM504 273.999c1.33301 10.667 2.5 21.6689 3.5 33.002s1.5 23 1.5 35v9.5v9.5c-2 49.333 -14.167 94.666 -36.5 135.999
s-61.166 62 -116.499 62c-44.667 0 -80.167 -14 -106.5 -42s-45.833 -59 -58.5 -93c-4 -10.667 -7.33301 -21.334 -10 -32.001s-4.66699 -21 -6 -31s-2.33301 -20.167 -3 -30.5s-1 -21.166 -1 -32.499v-14c0 -4.66699 0.333008 -9.33398 1 -14.001
c2.66699 -49.333 15.5 -94.5 38.5 -135.5s60.5 -61.5 112.5 -61.5c49.333 0 90.166 19.667 122.499 59s51.833 86.333 58.5 141v1zM308 870.001h91l126 -176h-56l-112 99l-108 -99h-54l113 176v0z" />
    <glyph glyph-name="guilsinglright" unicode="&#xd5;" horiz-adv-x="695" 
d="M663 316c-14.667 -106 -57.834 -188.834 -129.501 -248.501s-150.167 -89.5 -235.5 -89.5s-150.5 28.833 -195.5 86.5s-67.5 126.167 -67.5 205.5c0 9.33301 0.333008 18.833 1 28.5s1.66699 19.167 3 28.5c12.667 95.333 53 173.833 121 235.5s146 92.5 234 92.5
c88.667 0 156.334 -28.5 203.001 -85.5s70 -124.5 70 -202.5c0 -8.66699 -0.333008 -17.167 -1 -25.5s-1.66699 -17.166 -3 -26.499v1zM514 273.999c1.33301 10.667 2.5 21.6689 3.5 33.002s1.5 23 1.5 35v9.5v9.5c-2 49.333 -14.167 94.666 -36.5 135.999
s-61.166 62 -116.499 62c-44.667 0 -80.167 -14 -106.5 -42s-45.833 -59 -58.5 -93c-4 -10.667 -7.33301 -21.334 -10 -32.001s-4.66699 -21 -6 -31s-2.33301 -20.167 -3 -30.5s-1 -21.166 -1 -32.499v-14c0 -4.66699 0.333008 -9.33398 1 -14.001
c2.66699 -49.333 15.5 -94.5 38.5 -135.5s60.5 -61.5 112.5 -61.5c49.333 0 90.166 19.667 122.499 59s51.833 86.333 58.5 141v1zM491 838.001l41.9941 0.00292969c0 -1.33301 -0.166992 -2.5 -0.5 -3.5s-0.5 -2.16699 -0.5 -3.5c-6 -29.333 -17.5 -56.333 -34.5 -81
s-42.833 -37 -77.5 -37c-4 0 -7.83301 0.166992 -11.5 0.5s-7.5 0.833008 -11.5 1.5c-10 2.66699 -20.167 6 -30.5 10s-20.166 8.33301 -29.499 13l-39 16.5c-12 5 -23 7.5 -33 7.5c-10.667 0 -20.167 -4.83301 -28.5 -14.5s-13.166 -20.834 -14.499 -33.501l-41 1
c3.33301 30.667 14 58.667 32 84s44.333 38 79 38c14.667 0 28.834 -2.5 42.501 -7.5s26.834 -10.5 39.501 -16.5s24.834 -11.5 36.501 -16.5s22.5 -7.5 32.5 -7.5c14 0 23.833 3.83301 29.5 11.5s10.834 17.167 15.501 28.5c0.666992 1.33301 1.16699 2.66602 1.5 3.99902
s0.833008 2.66602 1.5 3.99902v1z" />
    <glyph glyph-name="Odieresis" unicode="&#xd6;" horiz-adv-x="708" 
d="M668 316c-14.667 -106 -57.834 -188.834 -129.501 -248.501s-150.167 -89.5 -235.5 -89.5s-150.5 28.833 -195.5 86.5s-67.5 126.167 -67.5 205.5c0 9.33301 0.333008 18.833 1 28.5s1.66699 19.167 3 28.5c12.667 95.333 53 173.833 121 235.5s146 92.5 234 92.5
c88.667 0 156.334 -28.5 203.001 -85.5s70 -124.5 70 -202.5c0 -8.66699 -0.333008 -17.167 -1 -25.5s-1.66699 -17.166 -3 -26.499v1zM519 273.999c1.33301 10.667 2.5 21.6689 3.5 33.002s1.5 23 1.5 35v9.5v9.5c-2 49.333 -14.167 94.666 -36.5 135.999
s-61.166 62 -116.499 62c-44.667 0 -80.167 -14 -106.5 -42s-45.833 -59 -58.5 -93c-4 -10.667 -7.33301 -21.334 -10 -32.001s-4.66699 -21 -6 -31s-2.33301 -20.167 -3 -30.5s-1 -21.166 -1 -32.499v-14c0 -4.66699 0.333008 -9.33398 1 -14.001
c2.66699 -49.333 15.5 -94.5 38.5 -135.5s60.5 -61.5 112.5 -61.5c49.333 0 90.166 19.667 122.499 59s51.833 86.333 58.5 141v1zM221 766.001l-0.000976562 0.5v1.5c0 17.333 6 32 18 44s26.333 18 43 18c18 0 33.333 -6.33301 46 -19s19.334 -28 20.001 -46v-0.5v-1.5
v-1.5v-0.5c0 -16.667 -5.83301 -31 -17.5 -43s-26.167 -18 -43.5 -18s-32.5 6.33301 -45.5 19s-19.833 28 -20.5 46v1zM426.999 766.001v0.5v1.5c0 17.333 6 32 18 44s26.333 18 43 18c18 0 33.333 -6.33301 46 -19s19.334 -28 20.001 -46v-1.5v-1.5
c0 -16.667 -5.83301 -31.167 -17.5 -43.5s-26.167 -18.5 -43.5 -18.5c-18 0 -33.333 6.33301 -46 19s-19.334 28 -20.001 46v1z" />
    <glyph glyph-name="multiply" unicode="&#xd7;" 
 />
    <glyph glyph-name="plusminus" unicode="&#xd8;" horiz-adv-x="708" 
d="M19 -77l93.001 120.999c-26.667 24.667 -47 55.5 -61 92.5s-21 76.5 -21 118.5c0 12 0.666992 24 2 36s3 24 5 36c16 95.333 59.833 173.833 131.5 235.5s152.5 92.5 242.5 92.5c28.667 0 55.334 -3.16699 80.001 -9.5s46.667 -15.5 66 -27.5l56 75h66l-81 -105
c27.333 -26 47.666 -56.667 60.999 -92s20 -73.333 20 -114c0 -10.667 -0.5 -21.667 -1.5 -33s-2.5 -22.666 -4.5 -33.999c-18.667 -105.333 -65.5 -187.833 -140.5 -247.5s-156.167 -89.5 -243.5 -89.5c-26.667 0 -51.334 3 -74.001 9s-42.667 14.333 -60 25l-70 -89h-66v0
zM508.001 471.999l-276.002 -357.001c12 -13.333 25.833 -23.666 41.5 -30.999s33.834 -11 54.501 -11c50 0 92.333 19.667 127 59s56.334 86.333 65.001 141c2.66699 13.333 4.66699 27.333 6 42s2 29.334 2 44.001c0 19.333 -1.5 38.666 -4.5 57.999
s-8.16699 37.333 -15.5 54v1zM202.999 161.998l276 357c-11.333 12.667 -25.333 22.5 -42 29.5s-36 10.5 -58 10.5c-46 0 -83 -14 -111 -42s-48.667 -59 -62 -93c-4.66699 -10.667 -8.5 -21.334 -11.5 -32.001s-5.5 -21 -7.5 -31c-2 -12 -3.5 -24.667 -4.5 -38
s-1.5 -26.666 -1.5 -39.999c0 -21.333 1.66699 -42.5 5 -63.5s9 -40.5 17 -58.5v1z" />
    <glyph glyph-name="Thorn" unicode="&#xd9;" horiz-adv-x="685" 
d="M50 208l51.0039 370.999v1c0 0.666992 0.333008 1.66699 1 3v2v2c-0.666992 11.333 -4 19.5 -10 24.5s-16 7.83301 -30 8.5l3 20c15.333 -2 32.333 -3.66699 51 -5s38.334 -2 59.001 -2c25.333 0 48.166 0.666992 68.499 2l59.5 4l-3 -18
c-20.667 -1.33301 -34.834 -5.16602 -42.501 -11.499s-12.834 -19.166 -15.501 -38.499l-50 -370c-0.666992 -8.66699 -1.33398 -16.5 -2.00098 -23.5s-1 -13.833 -1 -20.5c0 -38 9.5 -62.833 28.5 -74.5s45.167 -17.5 78.5 -17.5c39.333 0 70.833 8.66699 94.5 26
s39.167 53.666 46.5 108.999l51 372c0.666992 2.66699 1 5.16699 1 7.5v7.5c0 12.667 -3.5 21.167 -10.5 25.5s-19.167 6.83301 -36.5 7.5l3 20c19.333 -2 39.166 -3.66699 59.499 -5s42.833 -2 67.5 -2c20.667 0 40.5 0.666992 59.5 2s36.167 2.66602 51.5 3.99902l-3 -18
c-16 -1.33301 -27.667 -5.33301 -35 -12s-12 -17 -14 -31l-50 -356c-12 -93.333 -43 -157.333 -93 -192s-118 -52 -204 -52c-77.333 0 -136.333 13.167 -177 39.5s-61 72.5 -61 138.5c0 8 0.5 16.333 1.5 25s1.83301 17.334 2.5 26.001v1zM362.004 693.999l-138.003 86.001
c-15.333 9.33301 -26 18.333 -32 27s-9.33301 17.334 -10 26.001v0.5v0.5v0.5v0.5c0 11.333 4.33301 21.166 13 29.499s18.334 12.5 29.001 12.5c16.667 0 31.334 -5.33301 44.001 -16s24.334 -22.334 35.001 -35.001c3.33301 -4 6.5 -8 9.5 -12s6.16699 -7.66699 9.5 -11
l97 -109h-57v0z" />
    <glyph glyph-name="Eth" unicode="&#xda;" horiz-adv-x="690" 
d="M55 208l51.0039 370.999v1c0 0.666992 0.333008 1.66699 1 3v2v2c-0.666992 11.333 -4 19.5 -10 24.5s-16 7.83301 -30 8.5l3 20c15.333 -2 32.333 -3.66699 51 -5s38.334 -2 59.001 -2c25.333 0 48.166 0.666992 68.499 2l59.5 4l-3 -18
c-20.667 -1.33301 -34.834 -5.16602 -42.501 -11.499s-12.834 -19.166 -15.501 -38.499l-50 -370c-0.666992 -8.66699 -1.33398 -16.5 -2.00098 -23.5s-1 -13.833 -1 -20.5c0 -38 9.5 -62.833 28.5 -74.5s45.167 -17.5 78.5 -17.5c39.333 0 70.833 8.66699 94.5 26
s39.167 53.666 46.5 108.999l51 372c0.666992 2.66699 1 5.16699 1 7.5v7.5c0 12.667 -3.5 21.167 -10.5 25.5s-19.167 6.83301 -36.5 7.5l3 20c19.333 -2 39.166 -3.66699 59.499 -5s42.833 -2 67.5 -2c20.667 0 40.5 0.666992 59.5 2s36.167 2.66602 51.5 3.99902l-3 -18
c-16 -1.33301 -27.667 -5.33301 -35 -12s-12 -17 -14 -31l-50 -356c-12 -93.333 -43 -157.333 -93 -192s-118 -52 -204 -52c-77.333 0 -136.333 13.167 -177 39.5s-61 72.5 -61 138.5c0 8 0.5 16.333 1.5 25s1.83301 17.334 2.5 26.001v1zM281.004 693.999l88.999 109.998
c3.33301 2.66699 6.5 6 9.5 10s5.83301 8 8.5 12c10 12.667 21 24.334 33 35.001s26.333 16 43 16c11.333 0 21.333 -4.5 30 -13.5s13.334 -19.167 14.001 -30.5v-1.5v-1.5c0 -8 -2.83301 -16.167 -8.5 -24.5s-15.5 -17.166 -29.5 -26.499l-132 -85h-57v0z" />
    <glyph glyph-name="eth" unicode="&#xdb;" horiz-adv-x="690" 
d="M50 208l51.0039 370.999v1c0 0.666992 0.333008 1.66699 1 3v2v2c-0.666992 11.333 -4 19.5 -10 24.5s-16 7.83301 -30 8.5l3 20c15.333 -2 32.333 -3.66699 51 -5s38.334 -2 59.001 -2c25.333 0 48.166 0.666992 68.499 2l59.5 4l-3 -18
c-20.667 -1.33301 -34.834 -5.16602 -42.501 -11.499s-12.834 -19.166 -15.501 -38.499l-50 -370c-0.666992 -8.66699 -1.33398 -16.5 -2.00098 -23.5s-1 -13.833 -1 -20.5c0 -38 9.5 -62.833 28.5 -74.5s45.167 -17.5 78.5 -17.5c39.333 0 70.833 8.66699 94.5 26
s39.167 53.666 46.5 108.999l51 372c0.666992 2.66699 1 5.16699 1 7.5v7.5c0 12.667 -3.5 21.167 -10.5 25.5s-19.167 6.83301 -36.5 7.5l3 20c19.333 -2 39.166 -3.66699 59.499 -5s42.833 -2 67.5 -2c20.667 0 40.5 0.666992 59.5 2s36.167 2.66602 51.5 3.99902l-3 -18
c-16 -1.33301 -27.667 -5.33301 -35 -12s-12 -17 -14 -31l-50 -356c-12 -93.333 -43 -157.333 -93 -192s-118 -52 -204 -52c-77.333 0 -136.333 13.167 -177 39.5s-61 72.5 -61 138.5c0 8 0.5 16.333 1.5 25s1.83301 17.334 2.5 26.001v1zM303.004 869.999h91l126 -176h-56
l-112 99l-108 -99h-54l113 176v0z" />
    <glyph glyph-name="Udieresis" unicode="&#xdc;" horiz-adv-x="670" 
d="M55 208l51.0039 370.999v1c0 0.666992 0.333008 1.66699 1 3v2v2c-0.666992 11.333 -4 19.5 -10 24.5s-16 7.83301 -30 8.5l3 20c15.333 -2 32.333 -3.66699 51 -5s38.334 -2 59.001 -2c25.333 0 48.166 0.666992 68.499 2l59.5 4l-3 -18
c-20.667 -1.33301 -34.834 -5.16602 -42.501 -11.499s-12.834 -19.166 -15.501 -38.499l-50 -370c-0.666992 -8.66699 -1.33398 -16.5 -2.00098 -23.5s-1 -13.833 -1 -20.5c0 -38 9.5 -62.833 28.5 -74.5s45.167 -17.5 78.5 -17.5c39.333 0 70.833 8.66699 94.5 26
s39.167 53.666 46.5 108.999l51 372c0.666992 2.66699 1 5.16699 1 7.5v7.5c0 12.667 -3.5 21.167 -10.5 25.5s-19.167 6.83301 -36.5 7.5l3 20c19.333 -2 39.166 -3.66699 59.499 -5s42.833 -2 67.5 -2c20.667 0 40.5 0.666992 59.5 2s36.167 2.66602 51.5 3.99902l-3 -18
c-16 -1.33301 -27.667 -5.33301 -35 -12s-12 -17 -14 -31l-50 -356c-12 -93.333 -43 -157.333 -93 -192s-118 -52 -204 -52c-77.333 0 -136.333 13.167 -177 39.5s-61 72.5 -61 138.5c0 8 0.5 16.333 1.5 25s1.83301 17.334 2.5 26.001v1zM226.004 765.999l-0.000976562 0.5
v1.5c0 17.333 6 32 18 44s26.333 18 43 18c18 0 33.333 -6.33301 46 -19s19.334 -28 20.001 -46v-0.5v-1.5v-1.5v-0.5c0 -16.667 -5.83301 -31 -17.5 -43s-26.167 -18 -43.5 -18s-32.5 6.33301 -45.5 19s-19.833 28 -20.5 46v1zM432.003 765.999v0.5v1.5
c0 17.333 6 32 18 44s26.333 18 43 18c18 0 33.333 -6.33301 46 -19s19.334 -28 20.001 -46v-1.5v-1.5c0 -16.667 -5.83301 -31.167 -17.5 -43.5s-26.167 -18.5 -43.5 -18.5c-18 0 -33.333 6.33301 -46 19s-19.334 28 -20.001 46v1z" />
    <glyph glyph-name="Yacute" unicode="&#xdd;" 
 />
    <glyph glyph-name="glyph236" unicode="&#xde;" horiz-adv-x="599" 
d="M105 84l86.002 495.008c0.666992 2 1 4 1 6v6c0 9.33301 -3 16.333 -9 21s-16 7.33398 -30 8.00098l4 20c21.333 -2 41.5 -3.66699 60.5 -5s37.5 -2 55.5 -2c18.667 0 37.667 0.666992 57 2s40 2.66602 62 3.99902l-4 -18c-16.667 -1.33301 -28.834 -5.33301 -36.501 -12
s-12.834 -17 -15.501 -31l-11 -61h100c79.333 -0.666992 135.166 -15.834 167.499 -45.501s48.5 -67.834 48.5 -114.501c0 -7.33301 -0.333008 -14.833 -1 -22.5s-1.66699 -15.167 -3 -22.5c-11.333 -62 -40.666 -110.833 -87.999 -146.5s-102.666 -53.5 -165.999 -53.5
c-5.33301 0 -10.666 0.333008 -15.999 1l-16 2c-17.333 3.33301 -33.5 8.16602 -48.5 14.499s-24.5 13.166 -28.5 20.499c-0.666992 1.33301 -1.16699 2.5 -1.5 3.5s-0.5 2.16699 -0.5 3.5v0v1v0v0c1.33301 4.66699 3.33301 7.33398 6 8.00098s6.33398 1 11.001 1
c2 0 4.33301 -0.166992 7 -0.5s5.33398 -0.5 8.00098 -0.5c3.33301 -0.666992 6.5 -1.16699 9.5 -1.5s5.83301 -0.5 8.5 -0.5c51.333 0 90.5 13.333 117.5 40s43.833 60.667 50.5 102c1.33301 6 2.16602 11.667 2.49902 17s0.5 10.333 0.5 15
c0 33.333 -11 56.666 -33 69.999s-52 20 -90 20l-60 1l-62 -356c-0.666992 -4.66699 -1.16699 -8.5 -1.5 -11.5s-0.5 -6.16699 -0.5 -9.5c0 -10.667 3.83301 -18.834 11.5 -24.501s22.5 -10.834 44.5 -15.501l-4 -18c-30.667 1.33301 -56.334 2.66602 -77.001 3.99902
s-40 2 -58 2c-18.667 0 -37.834 -0.666992 -57.501 -2l-61.5 -4l4 19c19.333 2.66699 32.666 9.16699 39.999 19.5s13 27.166 17 50.499v1z" />
    <glyph glyph-name="germandbls" unicode="&#xdf;" horiz-adv-x="500" 
d="M78 436l4 30.998c2.66699 -0.666992 5.5 -0.666992 8.5 0s6.16699 1.66699 9.5 3c4.66699 2 9 4.66699 13 8s7.33301 7.33301 10 12c0.666992 0.666992 1.16699 1.83398 1.5 3.50098s0.833008 3.5 1.5 5.5c2.66699 10 6 25.167 10 45.5s10.333 41.5 19 63.5
c12 30 31.167 57.667 57.5 83s64.833 38 115.5 38c39.333 0 75 -9.5 107 -28.5s48 -51.833 48 -98.5c0 -44 -14.333 -82.5 -43 -115.5s-61.667 -52.167 -99 -57.5v-1c44.667 -5.33301 77 -23.666 97 -54.999s30 -69.333 30 -114c0 -10.667 -0.5 -21.667 -1.5 -33
s-2.5 -23 -4.5 -35c-9.33301 -52 -28.833 -99.5 -58.5 -142.5s-70.5 -64.5 -122.5 -64.5c-10.667 0 -21 0.666992 -31 2s-19.667 4.33301 -29 9v49c2.66699 -2.66699 5 -4.66699 7 -6s4.33301 -2.33301 7 -3c3.33301 -2 7 -3.5 11 -4.5s8.33301 -1.5 13 -1.5
c16 0 29.667 14.667 41 44s20.333 61.666 27 96.999c6 28 10.333 54.5 13 79.5s4 42.833 4 53.5c0 24 -5.66699 44.333 -17 61s-30.666 25 -57.999 25l4 53c21.333 -0.666992 39.166 8.83301 53.499 28.5s24.5 41.167 30.5 64.5c2.66699 9.33301 4.66699 18.666 6 27.999
s2 18 2 26c0 21.333 -5.16699 39.333 -15.5 54s-24.5 22 -42.5 22c-10.667 0 -20 -4.66699 -28 -14s-13.667 -28.666 -17 -57.999l-71 -575c-6.66699 -54 -18 -96.167 -34 -126.5s-33 -52.833 -51 -67.5c-20 -17.333 -38.667 -27.333 -56 -30s-28 -4 -32 -4h-7l-12 52
c17.333 1.33301 30 6.83301 38 16.5s15 32.834 21 69.501c2 10.667 3.83301 22.667 5.5 36l5.5 44l51 428h-42v0z" />
    <glyph glyph-name="agrave" unicode="&#xe0;" horiz-adv-x="500" 
d="M470 79l14.002 -16.001l-16.5 -16.5c-6.33301 -6.33301 -13.5 -12.5 -21.5 -18.5c-10.667 -8.66699 -22.167 -16.667 -34.5 -24s-25.166 -12.666 -38.499 -15.999c-4 -1.33301 -8 -2.33301 -12 -3s-8 -1 -12 -1c-26.667 0 -43.834 8.33301 -51.501 25s-11.5 41 -11.5 73
c0 5.33301 0.333008 13 1 23s1.66699 20.333 3 31l4 27.5c1.33301 9 2.66602 16.5 3.99902 22.5l-2 1l-15 -37.5c-5.33301 -13 -11.333 -26.167 -18 -39.5c-15.333 -32 -34.5 -61 -57.5 -87s-51.167 -39 -84.5 -39s-56.333 11.667 -69 35s-20.334 49 -23.001 77
c-0.666992 6.66699 -1.16699 13.334 -1.5 20.001s-0.5 13 -0.5 19s0.166992 12 0.5 18s0.833008 12 1.5 18c10 76 45.333 145.667 106 209s129.667 95 207 95c8 0 16.333 -0.666992 25 -2s17.334 -3 26.001 -5c0.666992 -0.666992 1.66699 -1 3 -1
s2.66602 -0.333008 3.99902 -1c2 0 3.83301 -0.166992 5.5 -0.5s3.16699 -0.833008 4.5 -1.5l41 25l-13 -91c-1.33301 -10.667 -3.5 -26.667 -6.5 -48l-9.5 -71c-0.666992 -6 -1.5 -12.167 -2.5 -18.5s-1.83301 -12.5 -2.5 -18.5
c-3.33301 -29.333 -6.33301 -57.666 -9 -84.999s-4 -48 -4 -62c0 -8.66699 1.5 -16.834 4.5 -24.501s9.83301 -11.5 20.5 -11.5c5.33301 0 10.5 1.16699 15.5 3.5s9.83301 5.16602 14.5 8.49902c2 1.33301 3.83301 2.5 5.5 3.5s3.5 2.16699 5.5 3.5v1zM293.002 411.999
c-26.667 -0.666992 -46.667 -6.99805 -60 -18.998s-25 -33.333 -35 -64l-4 -12c-1.33301 -4 -2.66602 -8.33301 -3.99902 -13c-12 -41.333 -20.5 -77.833 -25.5 -109.5s-7.5 -61.834 -7.5 -90.501v-1.5v-1.5c0 -10.667 1.5 -20.334 4.5 -29.001s8.16699 -13 15.5 -13
s15.333 4.66699 24 14s17.334 21.666 26.001 36.999c9.33301 17.333 18.666 37.333 27.999 60s18 45.667 26 69c11.333 33.333 20.666 65.333 27.999 96s11 53.334 11 68.001c0 2.66699 -2.5 4.66699 -7.5 6s-10.5 2 -16.5 2h-1.5h-1.5v1zM378.002 535.001l-137.999 86
c-15.333 9.33301 -26 18.333 -32 27s-9 17.334 -9 26.001c0 11.333 4.5 21.5 13.5 30.5s19.167 13.5 30.5 13.5c17.333 0 32.166 -5.33301 44.499 -16s23.833 -22.334 34.5 -35.001c3.33301 -4 6.5 -8 9.5 -12s6.16699 -7.66699 9.5 -11l95 -109h-58v0z" />
    <glyph glyph-name="aacute" unicode="&#xe1;" horiz-adv-x="500" 
d="M470 79l14.002 -16.001l-16.5 -16.5c-6.33301 -6.33301 -13.5 -12.5 -21.5 -18.5c-10.667 -8.66699 -22.167 -16.667 -34.5 -24s-25.166 -12.666 -38.499 -15.999c-4 -1.33301 -8 -2.33301 -12 -3s-8 -1 -12 -1c-26.667 0 -43.834 8.33301 -51.501 25s-11.5 41 -11.5 73
c0 5.33301 0.333008 13 1 23s1.66699 20.333 3 31l4 27.5c1.33301 9 2.66602 16.5 3.99902 22.5l-2 1l-15 -37.5c-5.33301 -13 -11.333 -26.167 -18 -39.5c-15.333 -32 -34.5 -61 -57.5 -87s-51.167 -39 -84.5 -39s-56.333 11.667 -69 35s-20.334 49 -23.001 77
c-0.666992 6.66699 -1.16699 13.334 -1.5 20.001s-0.5 13 -0.5 19s0.166992 12 0.5 18s0.833008 12 1.5 18c10 76 45.333 145.667 106 209s129.667 95 207 95c8 0 16.333 -0.666992 25 -2s17.334 -3 26.001 -5c0.666992 -0.666992 1.66699 -1 3 -1
s2.66602 -0.333008 3.99902 -1c2 0 3.83301 -0.166992 5.5 -0.5s3.16699 -0.833008 4.5 -1.5l41 25l-13 -91c-1.33301 -10.667 -3.5 -26.667 -6.5 -48l-9.5 -71c-0.666992 -6 -1.5 -12.167 -2.5 -18.5s-1.83301 -12.5 -2.5 -18.5
c-3.33301 -29.333 -6.33301 -57.666 -9 -84.999s-4 -48 -4 -62c0 -8.66699 1.5 -16.834 4.5 -24.501s9.83301 -11.5 20.5 -11.5c5.33301 0 10.5 1.16699 15.5 3.5s9.83301 5.16602 14.5 8.49902c2 1.33301 3.83301 2.5 5.5 3.5s3.5 2.16699 5.5 3.5v1zM293.002 411.999
c-26.667 -0.666992 -46.667 -6.99805 -60 -18.998s-25 -33.333 -35 -64l-4 -12c-1.33301 -4 -2.66602 -8.33301 -3.99902 -13c-12 -41.333 -20.5 -77.833 -25.5 -109.5s-7.5 -61.834 -7.5 -90.501v-1.5v-1.5c0 -10.667 1.5 -20.334 4.5 -29.001s8.16699 -13 15.5 -13
s15.333 4.66699 24 14s17.334 21.666 26.001 36.999c9.33301 17.333 18.666 37.333 27.999 60s18 45.667 26 69c11.333 33.333 20.666 65.333 27.999 96s11 53.334 11 68.001c0 2.66699 -2.5 4.66699 -7.5 6s-10.5 2 -16.5 2h-1.5h-1.5v1zM264.002 535.001l95.001 110
c3.33301 2.66699 6.5 6 9.5 10s6.16699 8 9.5 12c10.667 12.667 22.167 24.334 34.5 35.001s27.166 16 44.499 16c11.333 0 21.5 -4.5 30.5 -13.5s13.5 -19.167 13.5 -30.5c0 -8.66699 -3 -17.334 -9 -26.001s-16.667 -18 -32 -28l-138 -85h-58v0z" />
    <glyph glyph-name="acircumflex" unicode="&#xe2;" horiz-adv-x="500" 
d="M470 79l14.002 -16.001l-16.5 -16.5c-6.33301 -6.33301 -13.5 -12.5 -21.5 -18.5c-10.667 -8.66699 -22.167 -16.667 -34.5 -24s-25.166 -12.666 -38.499 -15.999c-4 -1.33301 -8 -2.33301 -12 -3s-8 -1 -12 -1c-26.667 0 -43.834 8.33301 -51.501 25s-11.5 41 -11.5 73
c0 5.33301 0.333008 13 1 23s1.66699 20.333 3 31l4 27.5c1.33301 9 2.66602 16.5 3.99902 22.5l-2 1l-15 -37.5c-5.33301 -13 -11.333 -26.167 -18 -39.5c-15.333 -32 -34.5 -61 -57.5 -87s-51.167 -39 -84.5 -39s-56.333 11.667 -69 35s-20.334 49 -23.001 77
c-0.666992 6.66699 -1.16699 13.334 -1.5 20.001s-0.5 13 -0.5 19s0.166992 12 0.5 18s0.833008 12 1.5 18c10 76 45.333 145.667 106 209s129.667 95 207 95c8 0 16.333 -0.666992 25 -2s17.334 -3 26.001 -5c0.666992 -0.666992 1.66699 -1 3 -1
s2.66602 -0.333008 3.99902 -1c2 0 3.83301 -0.166992 5.5 -0.5s3.16699 -0.833008 4.5 -1.5l41 25l-13 -91c-1.33301 -10.667 -3.5 -26.667 -6.5 -48l-9.5 -71c-0.666992 -6 -1.5 -12.167 -2.5 -18.5s-1.83301 -12.5 -2.5 -18.5
c-3.33301 -29.333 -6.33301 -57.666 -9 -84.999s-4 -48 -4 -62c0 -8.66699 1.5 -16.834 4.5 -24.501s9.83301 -11.5 20.5 -11.5c5.33301 0 10.5 1.16699 15.5 3.5s9.83301 5.16602 14.5 8.49902c2 1.33301 3.83301 2.5 5.5 3.5s3.5 2.16699 5.5 3.5v1zM293.002 411.999
c-26.667 -0.666992 -46.667 -6.99805 -60 -18.998s-25 -33.333 -35 -64l-4 -12c-1.33301 -4 -2.66602 -8.33301 -3.99902 -13c-12 -41.333 -20.5 -77.833 -25.5 -109.5s-7.5 -61.834 -7.5 -90.501v-1.5v-1.5c0 -10.667 1.5 -20.334 4.5 -29.001s8.16699 -13 15.5 -13
s15.333 4.66699 24 14s17.334 21.666 26.001 36.999c9.33301 17.333 18.666 37.333 27.999 60s18 45.667 26 69c11.333 33.333 20.666 65.333 27.999 96s11 53.334 11 68.001c0 2.66699 -2.5 4.66699 -7.5 6s-10.5 2 -16.5 2h-1.5h-1.5v1zM303.002 711.001h93l122 -176h-57
l-111 99l-113 -99h-55l121 176v0z" />
    <glyph glyph-name="atilde" unicode="&#xe3;" horiz-adv-x="500" 
d="M470 79l14.002 -16.001l-16.5 -16.5c-6.33301 -6.33301 -13.5 -12.5 -21.5 -18.5c-10.667 -8.66699 -22.167 -16.667 -34.5 -24s-25.166 -12.666 -38.499 -15.999c-4 -1.33301 -8 -2.33301 -12 -3s-8 -1 -12 -1c-26.667 0 -43.834 8.33301 -51.501 25s-11.5 41 -11.5 73
c0 5.33301 0.333008 13 1 23s1.66699 20.333 3 31l4 27.5c1.33301 9 2.66602 16.5 3.99902 22.5l-2 1l-15 -37.5c-5.33301 -13 -11.333 -26.167 -18 -39.5c-15.333 -32 -34.5 -61 -57.5 -87s-51.167 -39 -84.5 -39s-56.333 11.667 -69 35s-20.334 49 -23.001 77
c-0.666992 6.66699 -1.16699 13.334 -1.5 20.001s-0.5 13 -0.5 19s0.166992 12 0.5 18s0.833008 12 1.5 18c10 76 45.333 145.667 106 209s129.667 95 207 95c8 0 16.333 -0.666992 25 -2s17.334 -3 26.001 -5c0.666992 -0.666992 1.66699 -1 3 -1
s2.66602 -0.333008 3.99902 -1c2 0 3.83301 -0.166992 5.5 -0.5s3.16699 -0.833008 4.5 -1.5l41 25l-13 -91c-1.33301 -10.667 -3.5 -26.667 -6.5 -48l-9.5 -71c-0.666992 -6 -1.5 -12.167 -2.5 -18.5s-1.83301 -12.5 -2.5 -18.5
c-3.33301 -29.333 -6.33301 -57.666 -9 -84.999s-4 -48 -4 -62c0 -8.66699 1.5 -16.834 4.5 -24.501s9.83301 -11.5 20.5 -11.5c5.33301 0 10.5 1.16699 15.5 3.5s9.83301 5.16602 14.5 8.49902c2 1.33301 3.83301 2.5 5.5 3.5s3.5 2.16699 5.5 3.5v1zM293.002 411.999
c-26.667 -0.666992 -46.667 -6.99805 -60 -18.998s-25 -33.333 -35 -64l-4 -12c-1.33301 -4 -2.66602 -8.33301 -3.99902 -13c-12 -41.333 -20.5 -77.833 -25.5 -109.5s-7.5 -61.834 -7.5 -90.501v-1.5v-1.5c0 -10.667 1.5 -20.334 4.5 -29.001s8.16699 -13 15.5 -13
s15.333 4.66699 24 14s17.334 21.666 26.001 36.999c9.33301 17.333 18.666 37.333 27.999 60s18 45.667 26 69c11.333 33.333 20.666 65.333 27.999 96s11 53.334 11 68.001c0 2.66699 -2.5 4.66699 -7.5 6s-10.5 2 -16.5 2h-1.5h-1.5v1zM489.002 679.001
l42.9971 0.00195312c0 -1.33301 -0.166992 -2.5 -0.5 -3.5s-0.5 -2.16699 -0.5 -3.5c-7.33301 -29.333 -20.166 -56.333 -38.499 -81s-45.166 -37 -80.499 -37c-2.66699 0 -5.5 0.166992 -8.5 0.5s-5.83301 0.5 -8.5 0.5c-11.333 2 -22.666 5.16699 -33.999 9.5
s-22.333 9.16602 -33 14.499l-39.5 16.5c-12.333 5 -23.5 7.5 -33.5 7.5c-10.667 0 -20.334 -4.83301 -29.001 -14.5s-14 -20.834 -16 -33.501l-42 1c4.66699 30.667 16.5 58.667 35.5 84s46.5 38 82.5 38c14.667 0 29 -2.5 43 -7.5s27.333 -10.5 40 -16.5
s24.834 -11.5 36.501 -16.5s22.5 -7.5 32.5 -7.5c14 0 24.167 3.83301 30.5 11.5s11.833 17.167 16.5 28.5l2 4l2 4v1z" />
    <glyph glyph-name="adieresis" unicode="&#xe4;" horiz-adv-x="500" 
d="M470 79l14.002 -16.001l-16.5 -16.5c-6.33301 -6.33301 -13.5 -12.5 -21.5 -18.5c-10.667 -8.66699 -22.167 -16.667 -34.5 -24s-25.166 -12.666 -38.499 -15.999c-4 -1.33301 -8 -2.33301 -12 -3s-8 -1 -12 -1c-26.667 0 -43.834 8.33301 -51.501 25s-11.5 41 -11.5 73
c0 5.33301 0.333008 13 1 23s1.66699 20.333 3 31l4 27.5c1.33301 9 2.66602 16.5 3.99902 22.5l-2 1l-15 -37.5c-5.33301 -13 -11.333 -26.167 -18 -39.5c-15.333 -32 -34.5 -61 -57.5 -87s-51.167 -39 -84.5 -39s-56.333 11.667 -69 35s-20.334 49 -23.001 77
c-0.666992 6.66699 -1.16699 13.334 -1.5 20.001s-0.5 13 -0.5 19s0.166992 12 0.5 18s0.833008 12 1.5 18c10 76 45.333 145.667 106 209s129.667 95 207 95c8 0 16.333 -0.666992 25 -2s17.334 -3 26.001 -5c0.666992 -0.666992 1.66699 -1 3 -1
s2.66602 -0.333008 3.99902 -1c2 0 3.83301 -0.166992 5.5 -0.5s3.16699 -0.833008 4.5 -1.5l41 25l-13 -91c-1.33301 -10.667 -3.5 -26.667 -6.5 -48l-9.5 -71c-0.666992 -6 -1.5 -12.167 -2.5 -18.5s-1.83301 -12.5 -2.5 -18.5
c-3.33301 -29.333 -6.33301 -57.666 -9 -84.999s-4 -48 -4 -62c0 -8.66699 1.5 -16.834 4.5 -24.501s9.83301 -11.5 20.5 -11.5c5.33301 0 10.5 1.16699 15.5 3.5s9.83301 5.16602 14.5 8.49902c2 1.33301 3.83301 2.5 5.5 3.5s3.5 2.16699 5.5 3.5v1zM293.002 411.999
c-26.667 -0.666992 -46.667 -6.99805 -60 -18.998s-25 -33.333 -35 -64l-4 -12c-1.33301 -4 -2.66602 -8.33301 -3.99902 -13c-12 -41.333 -20.5 -77.833 -25.5 -109.5s-7.5 -61.834 -7.5 -90.501v-1.5v-1.5c0 -10.667 1.5 -20.334 4.5 -29.001s8.16699 -13 15.5 -13
s15.333 4.66699 24 14s17.334 21.666 26.001 36.999c9.33301 17.333 18.666 37.333 27.999 60s18 45.667 26 69c11.333 33.333 20.666 65.333 27.999 96s11 53.334 11 68.001c0 2.66699 -2.5 4.66699 -7.5 6s-10.5 2 -16.5 2h-1.5h-1.5v1zM180.002 607.001
c0 17.333 6.33301 32.333 19 45s28 19 46 19s33.333 -6.33301 46 -19s19 -28 19 -46s-6.33301 -33.333 -19 -46s-28 -19 -46 -19s-33.333 6.33301 -46 19s-19 28 -19 46v1zM390.002 607.001c0 17.333 6.33301 32.333 19 45s28 19 46 19s33.333 -6.33301 46 -19
s19 -28 19 -46s-6.33301 -33.333 -19 -46s-28 -19 -46 -19s-33.333 6.33301 -46 19s-19 28 -19 46v1z" />
    <glyph glyph-name="aring" unicode="&#xe5;" horiz-adv-x="500" 
d="M470 79l14.002 -16.001l-16.5 -16.5c-6.33301 -6.33301 -13.5 -12.5 -21.5 -18.5c-10.667 -8.66699 -22.167 -16.667 -34.5 -24s-25.166 -12.666 -38.499 -15.999c-4 -1.33301 -8 -2.33301 -12 -3s-8 -1 -12 -1c-26.667 0 -43.834 8.33301 -51.501 25s-11.5 41 -11.5 73
c0 5.33301 0.333008 13 1 23s1.66699 20.333 3 31l4 27.5c1.33301 9 2.66602 16.5 3.99902 22.5l-2 1l-15 -37.5c-5.33301 -13 -11.333 -26.167 -18 -39.5c-15.333 -32 -34.5 -61 -57.5 -87s-51.167 -39 -84.5 -39s-56.333 11.667 -69 35s-20.334 49 -23.001 77
c-0.666992 6.66699 -1.16699 13.334 -1.5 20.001s-0.5 13 -0.5 19s0.166992 12 0.5 18s0.833008 12 1.5 18c10 76 45.333 145.667 106 209s129.667 95 207 95c8 0 16.333 -0.666992 25 -2s17.334 -3 26.001 -5c0.666992 -0.666992 1.66699 -1 3 -1
s2.66602 -0.333008 3.99902 -1c2 0 3.83301 -0.166992 5.5 -0.5s3.16699 -0.833008 4.5 -1.5l41 25l-13 -91c-1.33301 -10.667 -3.5 -26.667 -6.5 -48l-9.5 -71c-0.666992 -6 -1.5 -12.167 -2.5 -18.5s-1.83301 -12.5 -2.5 -18.5
c-3.33301 -29.333 -6.33301 -57.666 -9 -84.999s-4 -48 -4 -62c0 -8.66699 1.5 -16.834 4.5 -24.501s9.83301 -11.5 20.5 -11.5c5.33301 0 10.5 1.16699 15.5 3.5s9.83301 5.16602 14.5 8.49902c2 1.33301 3.83301 2.5 5.5 3.5s3.5 2.16699 5.5 3.5v1zM293.002 411.999
c-26.667 -0.666992 -46.667 -6.99805 -60 -18.998s-25 -33.333 -35 -64l-4 -12c-1.33301 -4 -2.66602 -8.33301 -3.99902 -13c-12 -41.333 -20.5 -77.833 -25.5 -109.5s-7.5 -61.834 -7.5 -90.501v-1.5v-1.5c0 -10.667 1.5 -20.334 4.5 -29.001s8.16699 -13 15.5 -13
s15.333 4.66699 24 14s17.334 21.666 26.001 36.999c9.33301 17.333 18.666 37.333 27.999 60s18 45.667 26 69c11.333 33.333 20.666 65.333 27.999 96s11 53.334 11 68.001c0 2.66699 -2.5 4.66699 -7.5 6s-10.5 2 -16.5 2h-1.5h-1.5v1zM244.002 641.001
c0 28.667 10.333 53.333 31 74s45.667 31 75 31s54.333 -10.333 75 -31s31 -45.667 31 -75s-10.333 -54.333 -31 -75s-45.667 -31 -75 -31s-54.333 10.333 -75 31s-31 45.667 -31 75v1zM290.002 641c0 -17.333 5.83301 -31.834 17.5 -43.501s25.834 -17.5 42.501 -17.5
s30.834 5.83301 42.501 17.5s17.5 25.834 17.5 42.501s-5.83301 30.834 -17.5 42.501s-25.834 17.5 -42.501 17.5s-30.834 -5.83301 -42.501 -17.5s-17.5 -25.834 -17.5 -42.501v1z" />
    <glyph glyph-name="Otilde" unicode="&#xe6;" horiz-adv-x="667" 
d="M669 391c0 -46 -18.6729 -84.667 -56.0059 -116s-78.333 -56.333 -123 -75c-17.333 -7.33301 -34.666 -13.5 -51.999 -18.5s-33.666 -9.16699 -48.999 -12.5l-0.5 -1.5c-0.333008 -1 -0.5 -1.83301 -0.5 -2.5c-0.666992 -2.66699 -1.16699 -5.5 -1.5 -8.5
s-0.5 -6.5 -0.5 -10.5c0 -4.66699 0.5 -10.834 1.5 -18.501s3.16699 -15.834 6.5 -24.501c4.66699 -12.667 13.167 -24.167 25.5 -34.5s30.166 -15.5 53.499 -15.5c24.667 0 47.334 7.5 68.001 22.5s39.334 31.5 56.001 49.5c4 4 8 8.33301 12 13s8 9 12 13l16 -19
c-2.66699 -5.33301 -5.66699 -10.166 -9 -14.499s-7 -8.83301 -11 -13.5c-23.333 -30 -53.166 -57.5 -89.499 -82.5s-78.5 -37.5 -126.5 -37.5c-38.667 0 -71.667 13 -99 39s-42.666 58 -45.999 96l-2 1l-8 -18c-2.66699 -6 -5.66699 -12 -9 -18
c-13.333 -25.333 -30.333 -48.333 -51 -69s-46.667 -31 -78 -31c-33.333 0 -56.333 11.667 -69 35s-20.334 49 -23.001 77c-0.666992 6.66699 -1.16699 13.334 -1.5 20.001s-0.5 13 -0.5 19s0.166992 12 0.5 18s0.833008 12 1.5 18c9.33301 66 38 127.833 86 185.5
s99.667 94.5 155 110.5c8.66699 2.66699 17.334 4.66699 26.001 6s17 2 25 2c4 0 8 -0.166992 12 -0.5s8 -0.833008 12 -1.5c10 -1.33301 19.667 -3.5 29 -6.5s17 -6.16699 23 -9.5l54 32l-18 -67l2 -2c22 17.333 45.5 30.833 70.5 40.5s51.833 14.5 80.5 14.5
c24.667 0 46.834 -6.66699 66.501 -20s29.5 -35 29.5 -65v1zM143.994 105c0 -11.333 1.83594 -20.5029 5.50293 -27.5029s10.5 -10.5 20.5 -10.5c8 0 16.833 5.66699 26.5 17s19.5 26 29.5 44c8.66699 17.333 17.667 36.833 27 58.5s17.666 43.834 24.999 66.501
c8 22.667 15.167 45 21.5 67s11.166 41.667 14.499 59c1.33301 6.66699 2.5 11.834 3.5 15.501s1.5 6.5 1.5 8.5c0 3.33301 -2.83301 5.5 -8.5 6.5s-15.834 1.5 -30.501 1.5c-28.667 0 -50 -4.5 -64 -13.5s-26.333 -31.833 -37 -68.5
c-2.66699 -8.66699 -5.33398 -18.667 -8.00098 -30l-9 -37c-4 -18 -7.66699 -38.667 -11 -62s-5.66602 -47.666 -6.99902 -72.999v-11v-12v1zM550.997 356.997c0 18.667 -5.16602 31.334 -15.499 38.001s-24.5 10 -42.5 10c-6.66699 0 -12 -0.666992 -16 -2
s-7.66699 -3.33301 -11 -6c-1.33301 -0.666992 -2.5 -1.5 -3.5 -2.5l-3.5 -3.5c-7.33301 -8.66699 -14.666 -21.834 -21.999 -39.501s-14 -36.5 -20 -56.5c-5.33301 -17.333 -9.83301 -33.833 -13.5 -49.5s-6.5 -28.5 -8.5 -38.5c8.66699 2 18 5.16699 28 9.5
s20 9.5 30 15.5c19.333 12 37.666 26.333 54.999 43s29.666 34 36.999 52c2 4.66699 3.5 9.5 4.5 14.5s1.5 9.83301 1.5 14.5v1z" />
    <glyph glyph-name="ccedilla" unicode="&#xe7;" horiz-adv-x="389" 
d="M56 -197l15.9971 32.0029c4 -2 8 -3.66699 12 -5s7.66699 -2.33301 11 -3c8 -2 16 -3.33301 24 -4s16.333 -1 25 -1c12 0 22.5 3.66699 31.5 11s13.5 17.666 13.5 30.999c0 11.333 -4.16699 19.833 -12.5 25.5s-18.166 8.5 -29.499 8.5
c-5.33301 0 -10.666 -0.333008 -15.999 -1s-10.666 -1.66699 -15.999 -3l-10 10l43 96h41l-27 -67c5.33301 1.33301 11.166 2.5 17.499 3.5s13.833 1.5 22.5 1.5h1.5h1.5c20.667 -0.666992 39.834 -5.83398 57.501 -15.501s26.5 -26.834 26.5 -51.501
c0 -33.333 -13.667 -56.5 -41 -69.5s-60 -19.5 -98 -19.5c-5.33301 0 -10.833 0.333008 -16.5 1l-17.5 2c-11.333 2 -22.333 4.5 -33 7.5s-19.667 6.5 -27 10.5v0zM359.997 131.003l12.9971 -18.999c-10 -10.667 -19.833 -20.667 -29.5 -30l-28.5 -27
c-22.667 -20.667 -46.5 -37.667 -71.5 -51s-54.5 -20 -88.5 -20c-35.333 0 -63 12.167 -83 36.5s-33.333 51.5 -40 81.5c-1.33301 8 -2.5 16.167 -3.5 24.5s-1.5 16.166 -1.5 23.499v9.5c0 3 0.333008 6.16699 1 9.5c4.66699 76.667 35.5 146.834 92.5 210.501
s126.833 95.5 209.5 95.5c6.66699 0 12.834 -0.166992 18.501 -0.5s11.167 -0.5 16.5 -0.5c2 0 3.83301 -0.166992 5.5 -0.5s3.5 -0.5 5.5 -0.5l-26 -107l-29.5 10.5c-10.333 3.66699 -20.833 6.5 -31.5 8.5c-4 0.666992 -8.16699 1.16699 -12.5 1.5s-8.5 0.5 -12.5 0.5
c-24 0 -43.333 -13.333 -58 -40s-26 -56.334 -34 -89.001c-5.33301 -22.667 -9.16602 -44.334 -11.499 -65.001s-3.5 -36.667 -3.5 -48v-7.5v-6.5c0.666992 -19.333 4.66699 -37.166 12 -53.499s23.333 -24.5 48 -24.5c3.33301 0 6.5 0.166992 9.5 0.5
s6.16699 0.833008 9.5 1.5c14.667 3.33301 29.334 9.33301 44.001 18s28.667 18 42 28l19.5 15.5c6.33301 5 12.5 9.5 18.5 13.5v1z" />
    <glyph glyph-name="egrave" unicode="&#xe8;" horiz-adv-x="444" 
d="M392 152l15.9961 -20c-2.66699 -5.33301 -5.66699 -10.166 -9 -14.499s-7 -8.83301 -11 -13.5c-23.333 -30 -51.666 -57.5 -84.999 -82.5s-69 -37.5 -107 -37.5c-52.667 0 -94 15.833 -124 47.5s-45 73.5 -45 125.5c0 72.667 27.167 138.667 81.5 198
s113.833 97 178.5 113c10 2 19.667 3.66699 29 5s18.666 2 27.999 2c24.667 0 46.834 -6.66699 66.501 -20s29.5 -35 29.5 -65c0 -45.333 -18.667 -83.666 -56 -114.999s-78.333 -56.333 -123 -75c-17.333 -7.33301 -34.666 -13.5 -51.999 -18.5
s-33.666 -9.16699 -48.999 -12.5l-0.5 -1.5c-0.333008 -1 -0.5 -1.83301 -0.5 -2.5c-0.666992 -2.66699 -1.16699 -5.5 -1.5 -8.5s-0.5 -6.5 -0.5 -10.5c0 -4.66699 0.5 -10.834 1.5 -18.501s3.16699 -15.834 6.5 -24.501c4.66699 -12.667 13.167 -24.167 25.5 -34.5
s30.166 -15.5 53.499 -15.5c24.667 0 47.334 7.5 68.001 22.5s39.334 31.5 56.001 49.5c4 4 8 8.33301 12 13s8 9 12 13v1zM321.996 357c0 18.667 -5.16602 31.334 -15.499 38.001s-24.5 10 -42.5 10c-7.33301 0 -13.333 -0.833008 -18 -2.5s-9 -4.5 -13 -8.5l-1.5 -1.5
l-1.5 -1.5c-7.33301 -8.66699 -14.666 -21.834 -21.999 -39.501s-14 -36.5 -20 -56.5c-5.33301 -17.333 -9.83301 -33.833 -13.5 -49.5s-6.5 -28.5 -8.5 -38.5c8.66699 2 18 5.16699 28 9.5s20 9.5 30 15.5c19.333 12 37.666 26.333 54.999 43s29.666 34 36.999 52
c2 4.66699 3.5 9.5 4.5 14.5s1.5 9.83301 1.5 14.5v1zM349.997 535l-137.999 86c-15.333 9.33301 -26 18.333 -32 27s-9 17.334 -9 26.001c0 11.333 4.5 21.5 13.5 30.5s19.167 13.5 30.5 13.5c17.333 0 32.166 -5.33301 44.499 -16s23.833 -22.334 34.5 -35.001
c3.33301 -4 6.5 -8 9.5 -12s6.16699 -7.66699 9.5 -11l95 -109h-58v0z" />
    <glyph glyph-name="eacute" unicode="&#xe9;" horiz-adv-x="444" 
d="M392 152l15.9961 -20c-2.66699 -5.33301 -5.66699 -10.166 -9 -14.499s-7 -8.83301 -11 -13.5c-23.333 -30 -51.666 -57.5 -84.999 -82.5s-69 -37.5 -107 -37.5c-52.667 0 -94 15.833 -124 47.5s-45 73.5 -45 125.5c0 72.667 27.167 138.667 81.5 198
s113.833 97 178.5 113c10 2 19.667 3.66699 29 5s18.666 2 27.999 2c24.667 0 46.834 -6.66699 66.501 -20s29.5 -35 29.5 -65c0 -45.333 -18.667 -83.666 -56 -114.999s-78.333 -56.333 -123 -75c-17.333 -7.33301 -34.666 -13.5 -51.999 -18.5
s-33.666 -9.16699 -48.999 -12.5l-0.5 -1.5c-0.333008 -1 -0.5 -1.83301 -0.5 -2.5c-0.666992 -2.66699 -1.16699 -5.5 -1.5 -8.5s-0.5 -6.5 -0.5 -10.5c0 -4.66699 0.5 -10.834 1.5 -18.501s3.16699 -15.834 6.5 -24.501c4.66699 -12.667 13.167 -24.167 25.5 -34.5
s30.166 -15.5 53.499 -15.5c24.667 0 47.334 7.5 68.001 22.5s39.334 31.5 56.001 49.5c4 4 8 8.33301 12 13s8 9 12 13v1zM321.996 357c0 18.667 -5.16602 31.334 -15.499 38.001s-24.5 10 -42.5 10c-7.33301 0 -13.333 -0.833008 -18 -2.5s-9 -4.5 -13 -8.5l-1.5 -1.5
l-1.5 -1.5c-7.33301 -8.66699 -14.666 -21.834 -21.999 -39.501s-14 -36.5 -20 -56.5c-5.33301 -17.333 -9.83301 -33.833 -13.5 -49.5s-6.5 -28.5 -8.5 -38.5c8.66699 2 18 5.16699 28 9.5s20 9.5 30 15.5c19.333 12 37.666 26.333 54.999 43s29.666 34 36.999 52
c2 4.66699 3.5 9.5 4.5 14.5s1.5 9.83301 1.5 14.5v1zM235.997 535l95.001 110c3.33301 2.66699 6.5 6 9.5 10s6.16699 8 9.5 12c10.667 12.667 22.167 24.334 34.5 35.001s27.166 16 44.499 16c11.333 0 21.5 -4.5 30.5 -13.5s13.5 -19.167 13.5 -30.5
c0 -8.66699 -3 -17.334 -9 -26.001s-16.667 -18 -32 -28l-138 -85h-58v0z" />
    <glyph glyph-name="ecircumflex" unicode="&#xea;" horiz-adv-x="444" 
d="M392 152l15.9961 -20c-2.66699 -5.33301 -5.66699 -10.166 -9 -14.499s-7 -8.83301 -11 -13.5c-23.333 -30 -51.666 -57.5 -84.999 -82.5s-69 -37.5 -107 -37.5c-52.667 0 -94 15.833 -124 47.5s-45 73.5 -45 125.5c0 72.667 27.167 138.667 81.5 198
s113.833 97 178.5 113c10 2 19.667 3.66699 29 5s18.666 2 27.999 2c24.667 0 46.834 -6.66699 66.501 -20s29.5 -35 29.5 -65c0 -45.333 -18.667 -83.666 -56 -114.999s-78.333 -56.333 -123 -75c-17.333 -7.33301 -34.666 -13.5 -51.999 -18.5
s-33.666 -9.16699 -48.999 -12.5l-0.5 -1.5c-0.333008 -1 -0.5 -1.83301 -0.5 -2.5c-0.666992 -2.66699 -1.16699 -5.5 -1.5 -8.5s-0.5 -6.5 -0.5 -10.5c0 -4.66699 0.5 -10.834 1.5 -18.501s3.16699 -15.834 6.5 -24.501c4.66699 -12.667 13.167 -24.167 25.5 -34.5
s30.166 -15.5 53.499 -15.5c24.667 0 47.334 7.5 68.001 22.5s39.334 31.5 56.001 49.5c4 4 8 8.33301 12 13s8 9 12 13v1zM321.996 357c0 18.667 -5.16602 31.334 -15.499 38.001s-24.5 10 -42.5 10c-7.33301 0 -13.333 -0.833008 -18 -2.5s-9 -4.5 -13 -8.5l-1.5 -1.5
l-1.5 -1.5c-7.33301 -8.66699 -14.666 -21.834 -21.999 -39.501s-14 -36.5 -20 -56.5c-5.33301 -17.333 -9.83301 -33.833 -13.5 -49.5s-6.5 -28.5 -8.5 -38.5c8.66699 2 18 5.16699 28 9.5s20 9.5 30 15.5c19.333 12 37.666 26.333 54.999 43s29.666 34 36.999 52
c2 4.66699 3.5 9.5 4.5 14.5s1.5 9.83301 1.5 14.5v1zM274.997 711h93l122 -176h-57l-111 99l-113 -99h-55l121 176v0z" />
    <glyph glyph-name="edieresis" unicode="&#xeb;" horiz-adv-x="444" 
d="M392 152l15.9961 -20c-2.66699 -5.33301 -5.66699 -10.166 -9 -14.499s-7 -8.83301 -11 -13.5c-23.333 -30 -51.666 -57.5 -84.999 -82.5s-69 -37.5 -107 -37.5c-52.667 0 -94 15.833 -124 47.5s-45 73.5 -45 125.5c0 72.667 27.167 138.667 81.5 198
s113.833 97 178.5 113c10 2 19.667 3.66699 29 5s18.666 2 27.999 2c24.667 0 46.834 -6.66699 66.501 -20s29.5 -35 29.5 -65c0 -45.333 -18.667 -83.666 -56 -114.999s-78.333 -56.333 -123 -75c-17.333 -7.33301 -34.666 -13.5 -51.999 -18.5
s-33.666 -9.16699 -48.999 -12.5l-0.5 -1.5c-0.333008 -1 -0.5 -1.83301 -0.5 -2.5c-0.666992 -2.66699 -1.16699 -5.5 -1.5 -8.5s-0.5 -6.5 -0.5 -10.5c0 -4.66699 0.5 -10.834 1.5 -18.501s3.16699 -15.834 6.5 -24.501c4.66699 -12.667 13.167 -24.167 25.5 -34.5
s30.166 -15.5 53.499 -15.5c24.667 0 47.334 7.5 68.001 22.5s39.334 31.5 56.001 49.5c4 4 8 8.33301 12 13s8 9 12 13v1zM321.996 357c0 18.667 -5.16602 31.334 -15.499 38.001s-24.5 10 -42.5 10c-7.33301 0 -13.333 -0.833008 -18 -2.5s-9 -4.5 -13 -8.5l-1.5 -1.5
l-1.5 -1.5c-7.33301 -8.66699 -14.666 -21.834 -21.999 -39.501s-14 -36.5 -20 -56.5c-5.33301 -17.333 -9.83301 -33.833 -13.5 -49.5s-6.5 -28.5 -8.5 -38.5c8.66699 2 18 5.16699 28 9.5s20 9.5 30 15.5c19.333 12 37.666 26.333 54.999 43s29.666 34 36.999 52
c2 4.66699 3.5 9.5 4.5 14.5s1.5 9.83301 1.5 14.5v1zM151.997 607c0 17.333 6.33301 32.333 19 45s28 19 46 19s33.333 -6.33301 46 -19s19 -28 19 -46s-6.33301 -33.333 -19 -46s-28 -19 -46 -19s-33.333 6.33301 -46 19s-19 28 -19 46v1zM361.997 607
c0 17.333 6.33301 32.333 19 45s28 19 46 19s33.333 -6.33301 46 -19s19 -28 19 -46s-6.33301 -33.333 -19 -46s-28 -19 -46 -19s-33.333 6.33301 -46 19s-19 28 -19 46v1z" />
    <glyph glyph-name="igrave" unicode="&#xec;" 
d="M250 83l14.002 -19.9971c-4.66699 -4.66699 -9.66699 -9.16699 -15 -13.5l-16 -12.5c-12 -9.33301 -25 -18 -39 -26s-28 -14.667 -42 -20c-6.66699 -2 -13.167 -3.66699 -19.5 -5s-12.833 -2 -19.5 -2c-20.667 0 -34.667 7 -42 21s-11.333 29.333 -12 46v1.5v1.5
c0 15.333 2.5 41.833 7.5 79.5l16.5 119.5v2v2l12 84.5c4 27 7 50.5 9 70.5c-4 -0.666992 -8.16699 -1.5 -12.5 -2.5s-8.83301 -1.83301 -13.5 -2.5s-9.16699 -1.5 -13.5 -2.5s-8.5 -1.83301 -12.5 -2.5l4 26c15.333 4.66699 30 9.5 44 14.5l41 14.5l37 13.5
c12 4.33301 24 9.16602 36 14.499c6 2 11.833 4.33301 17.5 7l17.5 8l-13 -74c-2 -12.667 -5 -33.167 -9 -61.5l-13 -91.5c-0.666992 -2.66699 -1.16699 -5.33398 -1.5 -8.00098s-0.5 -5.33398 -0.5 -8.00098c-6 -42 -11.333 -81.167 -16 -117.5s-7 -56.166 -7 -59.499
c0 -6.66699 1.66699 -11.834 5 -15.501s8.33301 -5.5 15 -5.5c2.66699 0 5.66699 0.666992 9 2s6.66602 3.33301 9.99902 6c1.33301 0.666992 2.83301 1.5 4.5 2.5s3.16699 1.83301 4.5 2.5l7.5 5.5c2.33301 1.66699 4.16602 3.16699 5.49902 4.5v1zM267.002 535.003
l-137.999 86c-15.333 9.33301 -26 18.333 -32 27s-9 17.334 -9 26.001c0 11.333 4.5 21.5 13.5 30.5s19.167 13.5 30.5 13.5c17.333 0 32.166 -5.33301 44.499 -16s23.833 -22.334 34.5 -35.001c3.33301 -4 6.5 -8 9.5 -12s6.16699 -7.66699 9.5 -11l95 -109h-58v0z" />
    <glyph glyph-name="iacute" unicode="&#xed;" 
d="M250 83l14.002 -19.9971c-4.66699 -4.66699 -9.66699 -9.16699 -15 -13.5l-16 -12.5c-12 -9.33301 -25 -18 -39 -26s-28 -14.667 -42 -20c-6.66699 -2 -13.167 -3.66699 -19.5 -5s-12.833 -2 -19.5 -2c-20.667 0 -34.667 7 -42 21s-11.333 29.333 -12 46v1.5v1.5
c0 15.333 2.5 41.833 7.5 79.5l16.5 119.5v2v2l12 84.5c4 27 7 50.5 9 70.5c-4 -0.666992 -8.16699 -1.5 -12.5 -2.5s-8.83301 -1.83301 -13.5 -2.5s-9.16699 -1.5 -13.5 -2.5s-8.5 -1.83301 -12.5 -2.5l4 26c15.333 4.66699 30 9.5 44 14.5l41 14.5l37 13.5
c12 4.33301 24 9.16602 36 14.499c6 2 11.833 4.33301 17.5 7l17.5 8l-13 -74c-2 -12.667 -5 -33.167 -9 -61.5l-13 -91.5c-0.666992 -2.66699 -1.16699 -5.33398 -1.5 -8.00098s-0.5 -5.33398 -0.5 -8.00098c-6 -42 -11.333 -81.167 -16 -117.5s-7 -56.166 -7 -59.499
c0 -6.66699 1.66699 -11.834 5 -15.501s8.33301 -5.5 15 -5.5c2.66699 0 5.66699 0.666992 9 2s6.66602 3.33301 9.99902 6c1.33301 0.666992 2.83301 1.5 4.5 2.5s3.16699 1.83301 4.5 2.5l7.5 5.5c2.33301 1.66699 4.16602 3.16699 5.49902 4.5v1zM153.002 535.003
l95.001 110c3.33301 2.66699 6.5 6 9.5 10s6.16699 8 9.5 12c10.667 12.667 22.167 24.334 34.5 35.001s27.166 16 44.499 16c11.333 0 21.5 -4.5 30.5 -13.5s13.5 -19.167 13.5 -30.5c0 -8.66699 -3 -17.334 -9 -26.001s-16.667 -18 -32 -28l-138 -85h-58v0z" />
    <glyph glyph-name="icircumflex" unicode="&#xee;" 
d="M250 83l14.002 -19.9971c-4.66699 -4.66699 -9.66699 -9.16699 -15 -13.5l-16 -12.5c-12 -9.33301 -25 -18 -39 -26s-28 -14.667 -42 -20c-6.66699 -2 -13.167 -3.66699 -19.5 -5s-12.833 -2 -19.5 -2c-20.667 0 -34.667 7 -42 21s-11.333 29.333 -12 46v1.5v1.5
c0 15.333 2.5 41.833 7.5 79.5l16.5 119.5v2v2l12 84.5c4 27 7 50.5 9 70.5c-4 -0.666992 -8.16699 -1.5 -12.5 -2.5s-8.83301 -1.83301 -13.5 -2.5s-9.16699 -1.5 -13.5 -2.5s-8.5 -1.83301 -12.5 -2.5l4 26c15.333 4.66699 30 9.5 44 14.5l41 14.5l37 13.5
c12 4.33301 24 9.16602 36 14.499c6 2 11.833 4.33301 17.5 7l17.5 8l-13 -74c-2 -12.667 -5 -33.167 -9 -61.5l-13 -91.5c-0.666992 -2.66699 -1.16699 -5.33398 -1.5 -8.00098s-0.5 -5.33398 -0.5 -8.00098c-6 -42 -11.333 -81.167 -16 -117.5s-7 -56.166 -7 -59.499
c0 -6.66699 1.66699 -11.834 5 -15.501s8.33301 -5.5 15 -5.5c2.66699 0 5.66699 0.666992 9 2s6.66602 3.33301 9.99902 6c1.33301 0.666992 2.83301 1.5 4.5 2.5s3.16699 1.83301 4.5 2.5l7.5 5.5c2.33301 1.66699 4.16602 3.16699 5.49902 4.5v1zM192.002 711.003h93
l122 -176h-57l-111 99l-113 -99h-55l121 176v0z" />
    <glyph glyph-name="idieresis" unicode="&#xef;" 
d="M250 83l14.002 -19.9971c-4.66699 -4.66699 -9.66699 -9.16699 -15 -13.5l-16 -12.5c-12 -9.33301 -25 -18 -39 -26s-28 -14.667 -42 -20c-6.66699 -2 -13.167 -3.66699 -19.5 -5s-12.833 -2 -19.5 -2c-20.667 0 -34.667 7 -42 21s-11.333 29.333 -12 46v1.5v1.5
c0 15.333 2.5 41.833 7.5 79.5l16.5 119.5v2v2l12 84.5c4 27 7 50.5 9 70.5c-4 -0.666992 -8.16699 -1.5 -12.5 -2.5s-8.83301 -1.83301 -13.5 -2.5s-9.16699 -1.5 -13.5 -2.5s-8.5 -1.83301 -12.5 -2.5l4 26c15.333 4.66699 30 9.5 44 14.5l41 14.5l37 13.5
c12 4.33301 24 9.16602 36 14.499c6 2 11.833 4.33301 17.5 7l17.5 8l-13 -74c-2 -12.667 -5 -33.167 -9 -61.5l-13 -91.5c-0.666992 -2.66699 -1.16699 -5.33398 -1.5 -8.00098s-0.5 -5.33398 -0.5 -8.00098c-6 -42 -11.333 -81.167 -16 -117.5s-7 -56.166 -7 -59.499
c0 -6.66699 1.66699 -11.834 5 -15.501s8.33301 -5.5 15 -5.5c2.66699 0 5.66699 0.666992 9 2s6.66602 3.33301 9.99902 6c1.33301 0.666992 2.83301 1.5 4.5 2.5s3.16699 1.83301 4.5 2.5l7.5 5.5c2.33301 1.66699 4.16602 3.16699 5.49902 4.5v1zM69.002 607.003
c0 17.333 6.33301 32.333 19 45s28 19 46 19s33.333 -6.33301 46 -19s19 -28 19 -46s-6.33301 -33.333 -19 -46s-28 -19 -46 -19s-33.333 6.33301 -46 19s-19 28 -19 46v1zM279.002 607.003c0 17.333 6.33301 32.333 19 45s28 19 46 19s33.333 -6.33301 46 -19
s19 -28 19 -46s-6.33301 -33.333 -19 -46s-28 -19 -46 -19s-33.333 6.33301 -46 19s-19 28 -19 46v1z" />
    <glyph glyph-name="glyph233" unicode="&#xf0;" horiz-adv-x="444" 
d="M145 570l127.003 66.0029c-8.66699 9.33301 -19.834 16.833 -33.501 22.5s-29.5 8.5 -47.5 8.5c-8.66699 0 -17.667 -0.333008 -27 -1s-20.666 -1.66699 -33.999 -3l35 87c40.667 -0.666992 76.334 -7.33398 107.001 -20.001s57 -30.667 79 -54l122 64l34 -45l-123 -63
c17.333 -29.333 30.166 -62.333 38.499 -99s12.5 -75.334 12.5 -116.001c0 -24 -1.83301 -50.833 -5.5 -80.5s-9.83398 -60.167 -18.501 -91.5c-17.333 -65.333 -45.666 -125.166 -84.999 -179.499s-93 -81.5 -161 -81.5c-50 0 -85.5 17 -106.5 51s-31.5 73.333 -31.5 118
c0 14.667 1.16699 29.667 3.5 45s5.83301 31 10.5 47c15.333 54.667 41.166 105 77.499 151s77.166 69 122.499 69c14.667 0 27.667 -2.5 39 -7.5s20 -11.5 26 -19.5l2 1c1.33301 7.33301 2.16602 16.166 2.49902 26.499s0.5 22.166 0.5 35.499c0 16 -1 31.333 -3 46
s-5 28 -9 40l-122 -62l-32 45v0zM157.003 147.003l0.00390625 -14.999c0 -4.66699 0.333008 -9.33398 1 -14.001c2 -19.333 6.66699 -37 14 -53s20.666 -24 39.999 -24c5.33301 0 10.166 1.16699 14.499 3.5s8.16602 6.16602 11.499 11.499
c2.66699 4.66699 5.83398 14.667 9.50098 30s7.5 33.666 11.5 54.999c2 9.33301 3.83301 19.166 5.5 29.499s3.16699 20.5 4.5 30.5c5.33301 30.667 9.66602 59.334 12.999 86.001s5 45 5 55v6v6c-1.33301 16 -5.33301 30.833 -12 44.5s-18.334 20.5 -35.001 20.5
c-7.33301 0 -13.833 -2.83301 -19.5 -8.5s-10.167 -12.167 -13.5 -19.5c-0.666992 -2 -1.5 -4.16699 -2.5 -6.5s-1.83301 -4.83301 -2.5 -7.5c-4.66699 -14 -9.33398 -30 -14.001 -48s-9 -36.333 -13 -55c-5.33301 -25.333 -9.66602 -49.666 -12.999 -72.999
s-5 -41.666 -5 -54.999v1z" />
    <glyph glyph-name="ntilde" unicode="&#xf1;" horiz-adv-x="556" 
d="M52 -16l59.002 429.003c-4 -1.33301 -8.16699 -2.5 -12.5 -3.5s-8.83301 -1.83301 -13.5 -2.5s-9.16699 -1.5 -13.5 -2.5s-8.5 -1.83301 -12.5 -2.5l4 26c15.333 4.66699 30 9.5 44 14.5l41 14.5l37 13.5c12 4.33301 24 9.16602 36 14.499c6 2 11.833 4.33301 17.5 7
l17.5 8l-44 -279h2l19.5 47.5c7.66699 18.333 16.5 37.166 26.5 56.499c20 37.333 44.167 71.666 72.5 102.999s61.166 47 98.499 47c26 0 43.333 -6.83301 52 -20.5s13 -32.167 13 -55.5c0 -15.333 -2.16699 -36.833 -6.5 -64.5s-9.16602 -56.5 -14.499 -86.5
c-0.666992 -2.66699 -1.33398 -5.66699 -2.00098 -9s-1 -6.33301 -1 -9c-6.66699 -33.333 -12.5 -63.833 -17.5 -91.5s-7.5 -46.5 -7.5 -56.5c0 -7.33301 2 -12.833 6 -16.5s8 -5.83398 12 -6.50098h1.5h1.5c2.66699 0 5.5 0.333008 8.5 1s5.83301 1.66699 8.5 3
c3.33301 1.33301 6.33301 2.83301 9 4.5s5.33398 3.5 8.00098 5.5c2 0.666992 3.66699 1.5 5 2.5s2.66602 1.83301 3.99902 2.5l15 -19c-4 -4 -8.66699 -8 -14 -12l-16 -12c-10 -6.66699 -20.5 -13.167 -31.5 -19.5s-22.167 -11.5 -33.5 -15.5
c-10.667 -4.66699 -21.167 -8.5 -31.5 -11.5s-20.166 -4.5 -29.499 -4.5c-16.667 0 -28.834 5.16699 -36.501 15.5s-12.5 21.833 -14.5 34.5c-0.666992 3.33301 -1.16699 6.66602 -1.5 9.99902s-0.5 6.66602 -0.5 9.99902c0 12 1.66699 30 5 54s7.33301 49.333 12 76l2 11.5
l2 10.5l11 60l8 44c0.666992 2.66699 1.16699 5.33398 1.5 8.00098s0.833008 5.66699 1.5 9l0.5 0.5c0.333008 0.333008 0.5 0.833008 0.5 1.5c1.33301 6 2.5 12 3.5 18s1.5 11.333 1.5 16s-1.33301 8.5 -4 11.5s-6.66699 4.5 -12 4.5c-10.667 0 -23.167 -10.667 -37.5 -32
s-28.833 -47.333 -43.5 -78c-6.66699 -13.333 -13.167 -27.166 -19.5 -41.499l-18.5 -43.5c-16.667 -39.333 -31.334 -76.666 -44.001 -111.999s-21 -59.333 -25 -72l-110 -16v0zM497.002 679.003l42.9971 0.00195312c0 -1.33301 -0.166992 -2.5 -0.5 -3.5
s-0.5 -2.16699 -0.5 -3.5c-7.33301 -29.333 -20.166 -56.333 -38.499 -81s-45.166 -37 -80.499 -37c-2.66699 0 -5.5 0.166992 -8.5 0.5s-5.83301 0.5 -8.5 0.5c-11.333 2 -22.666 5.16699 -33.999 9.5s-22.333 9.16602 -33 14.499l-39.5 16.5
c-12.333 5 -23.5 7.5 -33.5 7.5c-10.667 0 -20.334 -4.83301 -29.001 -14.5s-14 -20.834 -16 -33.501l-42 1c4.66699 30.667 16.5 58.667 35.5 84s46.5 38 82.5 38c14.667 0 29 -2.5 43 -7.5s27.333 -10.5 40 -16.5s24.834 -11.5 36.501 -16.5s22.5 -7.5 32.5 -7.5
c14 0 24.167 3.83301 30.5 11.5s11.833 17.167 16.5 28.5l2 4l2 4v1z" />
    <glyph glyph-name="ograve" unicode="&#xf2;" horiz-adv-x="444" 
d="M27 154c0 78.667 21 146.667 63 204s88.333 93.666 139 108.999c8 2.66699 16 4.66699 24 6s16 2 24 2c53.333 0 90 -16.667 110 -50s30 -73.666 30 -120.999c0 -15.333 -1.5 -31.5 -4.5 -48.5s-7.16699 -34.167 -12.5 -51.5
c-17.333 -55.333 -46.833 -105.833 -88.5 -151.5s-90.5 -68.5 -146.5 -68.5c-50 0 -85.5 17 -106.5 51s-31.5 73.333 -31.5 118v1zM157 147l0.00292969 -14.998c0 -4.66699 0.333008 -9.33398 1 -14.001c2 -19.333 6.66699 -37 14 -53s20.666 -24 39.999 -24
c5.33301 0 10.166 1.16699 14.499 3.5s8.16602 6.16602 11.499 11.499c2.66699 4.66699 5.83398 14.667 9.50098 30s7.5 33.666 11.5 54.999c2 9.33301 3.83301 19.166 5.5 29.499s3.16699 20.5 4.5 30.5c5.33301 30.667 9.66602 59.334 12.999 86.001s5 45 5 55v7.5
c0 2.33301 -0.333008 4.83301 -1 7.5c-1.33301 15.333 -5.33301 29.166 -12 41.499s-18 18.5 -34 18.5c-7.33301 0 -13.833 -2.5 -19.5 -7.5s-10.167 -11.167 -13.5 -18.5c-0.666992 -2 -1.5 -4.16699 -2.5 -6.5s-1.83301 -4.83301 -2.5 -7.5
c-4.66699 -14 -9.33398 -30 -14.001 -48s-9 -36.333 -13 -55c-5.33301 -25.333 -9.66602 -49.666 -12.999 -72.999s-5 -41.666 -5 -54.999v1zM320.003 535.002l-137.999 86c-15.333 9.33301 -26 18.333 -32 27s-9 17.334 -9 26.001c0 11.333 4.5 21.5 13.5 30.5
s19.167 13.5 30.5 13.5c17.333 0 32.166 -5.33301 44.499 -16s23.833 -22.334 34.5 -35.001c3.33301 -4 6.5 -8 9.5 -12s6.16699 -7.66699 9.5 -11l95 -109h-58v0z" />
    <glyph glyph-name="oacute" unicode="&#xf3;" horiz-adv-x="444" 
d="M27 154c0 78.667 21 146.667 63 204s88.333 93.666 139 108.999c8 2.66699 16 4.66699 24 6s16 2 24 2c53.333 0 90 -16.667 110 -50s30 -73.666 30 -120.999c0 -15.333 -1.5 -31.5 -4.5 -48.5s-7.16699 -34.167 -12.5 -51.5
c-17.333 -55.333 -46.833 -105.833 -88.5 -151.5s-90.5 -68.5 -146.5 -68.5c-50 0 -85.5 17 -106.5 51s-31.5 73.333 -31.5 118v1zM157 147l0.00292969 -14.998c0 -4.66699 0.333008 -9.33398 1 -14.001c2 -19.333 6.66699 -37 14 -53s20.666 -24 39.999 -24
c5.33301 0 10.166 1.16699 14.499 3.5s8.16602 6.16602 11.499 11.499c2.66699 4.66699 5.83398 14.667 9.50098 30s7.5 33.666 11.5 54.999c2 9.33301 3.83301 19.166 5.5 29.499s3.16699 20.5 4.5 30.5c5.33301 30.667 9.66602 59.334 12.999 86.001s5 45 5 55v7.5
c0 2.33301 -0.333008 4.83301 -1 7.5c-1.33301 15.333 -5.33301 29.166 -12 41.499s-18 18.5 -34 18.5c-7.33301 0 -13.833 -2.5 -19.5 -7.5s-10.167 -11.167 -13.5 -18.5c-0.666992 -2 -1.5 -4.16699 -2.5 -6.5s-1.83301 -4.83301 -2.5 -7.5
c-4.66699 -14 -9.33398 -30 -14.001 -48s-9 -36.333 -13 -55c-5.33301 -25.333 -9.66602 -49.666 -12.999 -72.999s-5 -41.666 -5 -54.999v1zM206.003 535.002l95.001 110c3.33301 2.66699 6.5 6 9.5 10s6.16699 8 9.5 12c10.667 12.667 22.167 24.334 34.5 35.001
s27.166 16 44.499 16c11.333 0 21.5 -4.5 30.5 -13.5s13.5 -19.167 13.5 -30.5c0 -8.66699 -3 -17.334 -9 -26.001s-16.667 -18 -32 -28l-138 -85h-58v0z" />
    <glyph glyph-name="ocircumflex" unicode="&#xf4;" horiz-adv-x="444" 
d="M27 154c0 78.667 21 146.667 63 204s88.333 93.666 139 108.999c8 2.66699 16 4.66699 24 6s16 2 24 2c53.333 0 90 -16.667 110 -50s30 -73.666 30 -120.999c0 -15.333 -1.5 -31.5 -4.5 -48.5s-7.16699 -34.167 -12.5 -51.5
c-17.333 -55.333 -46.833 -105.833 -88.5 -151.5s-90.5 -68.5 -146.5 -68.5c-50 0 -85.5 17 -106.5 51s-31.5 73.333 -31.5 118v1zM157 147l0.00292969 -14.998c0 -4.66699 0.333008 -9.33398 1 -14.001c2 -19.333 6.66699 -37 14 -53s20.666 -24 39.999 -24
c5.33301 0 10.166 1.16699 14.499 3.5s8.16602 6.16602 11.499 11.499c2.66699 4.66699 5.83398 14.667 9.50098 30s7.5 33.666 11.5 54.999c2 9.33301 3.83301 19.166 5.5 29.499s3.16699 20.5 4.5 30.5c5.33301 30.667 9.66602 59.334 12.999 86.001s5 45 5 55v7.5
c0 2.33301 -0.333008 4.83301 -1 7.5c-1.33301 15.333 -5.33301 29.166 -12 41.499s-18 18.5 -34 18.5c-7.33301 0 -13.833 -2.5 -19.5 -7.5s-10.167 -11.167 -13.5 -18.5c-0.666992 -2 -1.5 -4.16699 -2.5 -6.5s-1.83301 -4.83301 -2.5 -7.5
c-4.66699 -14 -9.33398 -30 -14.001 -48s-9 -36.333 -13 -55c-5.33301 -25.333 -9.66602 -49.666 -12.999 -72.999s-5 -41.666 -5 -54.999v1zM245.003 711.002h93l122 -176h-57l-111 99l-113 -99h-55l121 176v0z" />
    <glyph glyph-name="otilde" unicode="&#xf5;" horiz-adv-x="444" 
d="M27 154c0 78.667 21 146.667 63 204s88.333 93.666 139 108.999c8 2.66699 16 4.66699 24 6s16 2 24 2c53.333 0 90 -16.667 110 -50s30 -73.666 30 -120.999c0 -15.333 -1.5 -31.5 -4.5 -48.5s-7.16699 -34.167 -12.5 -51.5
c-17.333 -55.333 -46.833 -105.833 -88.5 -151.5s-90.5 -68.5 -146.5 -68.5c-50 0 -85.5 17 -106.5 51s-31.5 73.333 -31.5 118v1zM157 147l0.00292969 -14.998c0 -4.66699 0.333008 -9.33398 1 -14.001c2 -19.333 6.66699 -37 14 -53s20.666 -24 39.999 -24
c5.33301 0 10.166 1.16699 14.499 3.5s8.16602 6.16602 11.499 11.499c2.66699 4.66699 5.83398 14.667 9.50098 30s7.5 33.666 11.5 54.999c2 9.33301 3.83301 19.166 5.5 29.499s3.16699 20.5 4.5 30.5c5.33301 30.667 9.66602 59.334 12.999 86.001s5 45 5 55v7.5
c0 2.33301 -0.333008 4.83301 -1 7.5c-1.33301 15.333 -5.33301 29.166 -12 41.499s-18 18.5 -34 18.5c-7.33301 0 -13.833 -2.5 -19.5 -7.5s-10.167 -11.167 -13.5 -18.5c-0.666992 -2 -1.5 -4.16699 -2.5 -6.5s-1.83301 -4.83301 -2.5 -7.5
c-4.66699 -14 -9.33398 -30 -14.001 -48s-9 -36.333 -13 -55c-5.33301 -25.333 -9.66602 -49.666 -12.999 -72.999s-5 -41.666 -5 -54.999v1zM431.003 679.002l42.9971 0.00195312c0 -1.33301 -0.166992 -2.5 -0.5 -3.5s-0.5 -2.16699 -0.5 -3.5
c-7.33301 -29.333 -20.166 -56.333 -38.499 -81s-45.166 -37 -80.499 -37c-2.66699 0 -5.5 0.166992 -8.5 0.5s-5.83301 0.5 -8.5 0.5c-11.333 2 -22.666 5.16699 -33.999 9.5s-22.333 9.16602 -33 14.499l-39.5 16.5c-12.333 5 -23.5 7.5 -33.5 7.5
c-10.667 0 -20.334 -4.83301 -29.001 -14.5s-14 -20.834 -16 -33.501l-42 1c4.66699 30.667 16.5 58.667 35.5 84s46.5 38 82.5 38c14.667 0 29 -2.5 43 -7.5s27.333 -10.5 40 -16.5s24.834 -11.5 36.501 -16.5s22.5 -7.5 32.5 -7.5c14 0 24.167 3.83301 30.5 11.5
s11.833 17.167 16.5 28.5l2 4l2 4v1z" />
    <glyph glyph-name="odieresis" unicode="&#xf6;" horiz-adv-x="444" 
d="M27 154c0 78.667 21 146.667 63 204s88.333 93.666 139 108.999c8 2.66699 16 4.66699 24 6s16 2 24 2c53.333 0 90 -16.667 110 -50s30 -73.666 30 -120.999c0 -15.333 -1.5 -31.5 -4.5 -48.5s-7.16699 -34.167 -12.5 -51.5
c-17.333 -55.333 -46.833 -105.833 -88.5 -151.5s-90.5 -68.5 -146.5 -68.5c-50 0 -85.5 17 -106.5 51s-31.5 73.333 -31.5 118v1zM157 147l0.00292969 -14.998c0 -4.66699 0.333008 -9.33398 1 -14.001c2 -19.333 6.66699 -37 14 -53s20.666 -24 39.999 -24
c5.33301 0 10.166 1.16699 14.499 3.5s8.16602 6.16602 11.499 11.499c2.66699 4.66699 5.83398 14.667 9.50098 30s7.5 33.666 11.5 54.999c2 9.33301 3.83301 19.166 5.5 29.499s3.16699 20.5 4.5 30.5c5.33301 30.667 9.66602 59.334 12.999 86.001s5 45 5 55v7.5
c0 2.33301 -0.333008 4.83301 -1 7.5c-1.33301 15.333 -5.33301 29.166 -12 41.499s-18 18.5 -34 18.5c-7.33301 0 -13.833 -2.5 -19.5 -7.5s-10.167 -11.167 -13.5 -18.5c-0.666992 -2 -1.5 -4.16699 -2.5 -6.5s-1.83301 -4.83301 -2.5 -7.5
c-4.66699 -14 -9.33398 -30 -14.001 -48s-9 -36.333 -13 -55c-5.33301 -25.333 -9.66602 -49.666 -12.999 -72.999s-5 -41.666 -5 -54.999v1zM122.003 607.002c0 17.333 6.33301 32.333 19 45s28 19 46 19s33.333 -6.33301 46 -19s19 -28 19 -46s-6.33301 -33.333 -19 -46
s-28 -19 -46 -19s-33.333 6.33301 -46 19s-19 28 -19 46v1zM332.003 607.002c0 17.333 6.33301 32.333 19 45s28 19 46 19s33.333 -6.33301 46 -19s19 -28 19 -46s-6.33301 -33.333 -19 -46s-28 -19 -46 -19s-33.333 6.33301 -46 19s-19 28 -19 46v1z" />
    <glyph glyph-name="Aacute" unicode="&#xf7;" 
 />
    <glyph glyph-name="OE" unicode="&#xf8;" horiz-adv-x="444" 
d="M50 -69l39.002 75c-22 14 -37.833 34.333 -47.5 61s-14.5 55.334 -14.5 86.001c0 79.333 21 147.666 63 204.999s88.333 93.666 139 108.999c8 2.66699 16 4.66699 24 6s16 2 24 2c10 0 19.5 -0.666992 28.5 -2s16.833 -3.66602 23.5 -6.99902l27 52h37l-34 -66
c21.333 -15.333 36.333 -36 45 -62s13 -54.667 13 -86c0 -15.333 -1.5 -31.5 -4.5 -48.5s-7.16699 -34.167 -12.5 -51.5c-17.333 -55.333 -46.833 -105.833 -88.5 -151.5s-90.5 -68.5 -146.5 -68.5c-8.66699 0 -16.834 0.5 -24.501 1.5s-14.834 2.83301 -21.501 5.5l-32 -60
h-37v0zM285.002 312l-118.997 -229.999c3.33301 -12 8.66602 -21.833 15.999 -29.5s17.333 -11.5 30 -11.5c5.33301 0 10.166 1.16699 14.499 3.5s8.16602 6.16602 11.499 11.499c2.66699 4.66699 6 14.667 10 30s8 33.333 12 54c2 9.33301 3.83301 18.833 5.5 28.5
s3.5 19.167 5.5 28.5l9.5 61.5c3 19.667 5.16699 36.5 6.5 50.5l-2 3v0zM158.005 138.001l124 238.998c-2.66699 10.667 -7.16699 20 -13.5 28s-15.833 12 -28.5 12c-7.33301 0 -13.833 -2.5 -19.5 -7.5s-10.167 -11.167 -13.5 -18.5c-0.666992 -2 -1.5 -4.16699 -2.5 -6.5
s-1.83301 -4.83301 -2.5 -7.5c-4.66699 -14 -9.33398 -30 -14.001 -48s-9 -36.333 -13 -55c-5.33301 -25.333 -9.66602 -49.666 -12.999 -72.999s-5 -41.666 -5 -54.999v-4.5c0 -1.66699 0.333008 -3.16699 1 -4.5v1z" />
    </font>
</defs>
</svg>
